<svg width="20" height="13" viewBox="0 0 20 13" fill="none" xmlns="http://www.w3.org/2000/svg">
<path fill-rule="evenodd" clip-rule="evenodd" d="M19.7371 1.68211C19.7371 1.04907 19.2595 0.535889 18.6704 0.535889H17.6038C17.0147 0.535889 16.5371 1.04907 16.5371 1.68211V11.6161C16.5371 12.2491 17.0147 12.7623 17.6038 12.7623H18.6704C19.2595 12.7623 19.7371 12.2491 19.7371 11.6161V1.68211ZM12.303 2.98117H13.3697C13.9588 2.98117 14.4363 3.50667 14.4363 4.15491V11.5886C14.4363 12.2368 13.9588 12.7623 13.3697 12.7623H12.303C11.7139 12.7623 11.2363 12.2368 11.2363 11.5886V4.15491C11.2363 3.50667 11.7139 2.98117 12.303 2.98117ZM7.97122 5.63022H6.90456C6.31545 5.63022 5.83789 6.16241 5.83789 6.8189V11.5736C5.83789 12.2301 6.31545 12.7623 6.90456 12.7623H7.97122C8.56033 12.7623 9.03789 12.2301 9.03789 11.5736V6.8189C9.03789 6.16241 8.56033 5.63022 7.97122 5.63022ZM2.67044 8.07551H1.60378C1.01467 8.07551 0.537109 8.6001 0.537109 9.24721V11.5906C0.537109 12.2377 1.01467 12.7623 1.60378 12.7623H2.67044C3.25955 12.7623 3.73711 12.2377 3.73711 11.5906V9.24721C3.73711 8.6001 3.25955 8.07551 2.67044 8.07551Z" fill="white"/>
</svg>
