<svg width="20" height="13" viewBox="0 0 20 13" fill="none" xmlns="http://www.w3.org/2000/svg">
<path fill-rule="evenodd" clip-rule="evenodd" d="M19.4722 1.68211C19.4722 1.04907 18.9947 0.535889 18.4056 0.535889H17.3389C16.7498 0.535889 16.2722 1.04907 16.2722 1.68211V11.6161C16.2722 12.2491 16.7498 12.7623 17.3389 12.7623H18.4056C18.9947 12.7623 19.4722 12.2491 19.4722 11.6161V1.68211ZM12.0381 2.98117H13.1048C13.6939 2.98117 14.1714 3.50667 14.1714 4.15491V11.5886C14.1714 12.2368 13.6939 12.7623 13.1048 12.7623H12.0381C11.449 12.7623 10.9714 12.2368 10.9714 11.5886V4.15491C10.9714 3.50667 11.449 2.98117 12.0381 2.98117ZM7.70633 5.63022H6.63966C6.05056 5.63022 5.573 6.16241 5.573 6.8189V11.5736C5.573 12.2301 6.05056 12.7623 6.63966 12.7623H7.70633C8.29543 12.7623 8.773 12.2301 8.773 11.5736V6.8189C8.773 6.16241 8.29543 5.63022 7.70633 5.63022ZM2.40555 8.07551H1.33888C0.74978 8.07551 0.272217 8.6001 0.272217 9.24721V11.5906C0.272217 12.2377 0.74978 12.7623 1.33888 12.7623H2.40555C2.99465 12.7623 3.47222 12.2377 3.47222 11.5906V9.24721C3.47222 8.6001 2.99465 8.07551 2.40555 8.07551Z" fill="black"/>
</svg>
