<svg width="48" height="49" viewBox="0 0 48 49" fill="none" xmlns="http://www.w3.org/2000/svg">
<path d="M0 24.5C0 11.2452 10.7452 0.5 24 0.5V0.5C37.2548 0.5 48 11.2452 48 24.5V24.5C48 37.7548 37.2548 48.5 24 48.5V48.5C10.7452 48.5 0 37.7548 0 24.5V24.5Z" fill="#17B26A"/>
<path fill-rule="evenodd" clip-rule="evenodd" d="M34.193 15.2801L19.873 29.1001L16.073 25.0401C15.373 24.3801 14.273 24.3401 13.473 24.9001C12.693 25.4801 12.473 26.5001 12.953 27.3201L17.453 34.6401C17.893 35.3201 18.653 35.7401 19.513 35.7401C20.333 35.7401 21.113 35.3201 21.553 34.6401C22.273 33.7001 36.013 17.3201 36.013 17.3201C37.813 15.4801 35.633 13.8601 34.193 15.2601V15.2801Z" fill="white"/>
</svg>
