<svg width="33" height="32" viewBox="0 0 33 32" fill="none" xmlns="http://www.w3.org/2000/svg">
<mask id="mask0_483_8189" style="mask-type:luminance" maskUnits="userSpaceOnUse" x="0" y="0" width="33" height="32">
<path d="M32.231 0H0.230957V32H32.231V0Z" fill="white"/>
</mask>
<g mask="url(#mask0_483_8189)">
<path d="M16.4755 3.38539C15.0105 4.86772 12.9761 5.78586 10.7271 5.78586C9.98359 5.78586 9.26351 5.68535 8.57977 5.49754C8.39048 5.44582 8.20488 5.38749 8.02182 5.3222C7.1554 5.01481 6.35683 4.56325 5.65474 3.99651C5.08285 3.53615 4.57518 2.99875 4.14746 2.40011C5.28278 1.25196 6.75959 0.442378 8.41359 0.136458C8.59371 0.10234 8.77602 0.0752011 8.96052 0.0542792C9.26719 0.0190639 9.57935 0.000732422 9.89591 0.000732422C12.6086 0.000732422 15.0098 1.33596 16.4755 3.38539Z" fill="#00BD0D"/>
<path d="M28.2398 2.36161L23.5867 7.02721L21.9697 8.64819C20.7876 9.99699 19.1639 10.95 17.3247 11.2827C16.9355 11.3528 16.5364 11.3957 16.1296 11.407C16.108 11.407 16.086 11.4063 16.0644 11.4049C13.5421 11.3069 11.3144 10.056 9.89622 8.16362L8.60647 6.89625L5.65503 3.99579C6.35712 4.56254 7.15569 5.01409 8.02213 5.32149C8.20517 5.38678 8.39078 5.4451 8.58006 5.49683C9.26382 5.68464 9.98388 5.78515 10.7274 5.78515C12.976 5.78515 15.0108 4.867 16.476 3.38466C16.4593 3.35935 16.4935 3.40924 16.476 3.38466C17.8599 1.38073 20.2244 0.141602 22.844 0.141602C23.0119 0.141602 23.1792 0.147103 23.3447 0.158485C23.5236 0.169487 23.7005 0.187087 23.8757 0.210935C25.5676 0.437998 27.085 1.21712 28.2398 2.36161Z" fill="#94FFAB"/>
<path d="M28.7528 16.2273C27.2705 14.7623 26.3523 12.7278 26.3523 10.4788C26.3523 9.7353 26.4529 9.01522 26.6406 8.33147C26.6924 8.14219 26.7508 7.95659 26.816 7.77353C27.1233 6.90711 27.575 6.10854 28.1417 5.40645C28.602 4.83456 29.1395 4.32689 29.738 3.89917C30.8862 5.03448 31.6958 6.5113 32.0018 8.1653C32.0358 8.34542 32.0631 8.52773 32.084 8.71223C32.1192 9.0189 32.1374 9.33106 32.1374 9.64762C32.1374 12.3603 30.8021 14.7615 28.7528 16.2273Z" fill="#41BCF0"/>
<path d="M29.777 27.9918L25.1114 23.3387L23.4905 21.7217C22.1417 20.5394 21.1887 18.916 20.856 17.0767C20.7859 16.6875 20.743 16.2883 20.7317 15.8816C20.7317 15.86 20.7325 15.8379 20.7338 15.8162C20.8318 13.294 22.0827 11.0663 23.9751 9.64817L25.2425 8.35842L28.1429 5.40698C27.5762 6.10908 27.1245 6.90765 26.8172 7.77408C26.752 7.95712 26.6936 8.14274 26.6419 8.33201C26.4541 9.01577 26.3535 9.73584 26.3535 10.4794C26.3535 12.728 27.2717 14.7628 28.7541 16.2278C28.7294 16.2455 28.7794 16.2113 28.7541 16.2278C30.7587 17.6122 31.9978 19.9764 31.9978 22.5958C31.9978 22.7639 31.9923 22.9312 31.9809 23.0965C31.9699 23.2756 31.9523 23.4523 31.9285 23.6277C31.7014 25.3195 30.9216 26.837 29.777 27.9918Z" fill="#7CEBFF"/>
<path d="M3.61732 15.7283C5.09965 17.1933 6.01781 19.2277 6.01781 21.4767C6.01781 22.2203 5.9173 22.9403 5.72947 23.624C5.67775 23.8133 5.61944 23.9989 5.55414 24.1821C5.24674 25.0485 4.79518 25.847 4.22844 26.5491C3.76809 27.121 3.2307 27.6286 2.63204 28.0563C1.48389 26.9211 0.674318 25.4442 0.36839 23.7903C0.334275 23.6102 0.307131 23.4278 0.286222 23.2432C0.251007 22.9367 0.232666 22.6244 0.232666 22.3079C0.232666 19.5952 1.5679 17.194 3.61732 15.7283Z" fill="#E64A67"/>
<path d="M2.59354 3.96411L7.25914 8.61725L8.88012 10.2342C10.2289 11.4165 11.1819 13.04 11.5146 14.8792C11.5847 15.2684 11.6276 15.6675 11.639 16.0743C11.639 16.096 11.6382 16.1179 11.6368 16.1396C11.5388 18.6619 10.288 20.8896 8.39555 22.3078L7.12818 23.5975L4.22772 26.5489C4.79447 25.8468 5.24602 25.0482 5.55342 24.1818C5.61871 23.9988 5.67703 23.8132 5.72876 23.6239C5.91657 22.9402 6.01708 22.22 6.01708 21.4766C6.01708 19.2279 5.09893 17.1931 3.61659 15.7281C3.59128 15.7446 3.64117 15.7105 3.61659 15.7281C1.61192 14.3438 0.372803 11.9795 0.372803 9.36006C0.372803 9.19204 0.378305 9.02478 0.389676 8.85933C0.400681 8.68033 0.418289 8.50352 0.442132 8.32818C0.669195 6.6364 1.44905 5.11887 2.59354 3.96411Z" fill="#FF7F9C"/>
<path d="M15.9902 28.6146C17.4554 27.1324 19.4897 26.2141 21.7387 26.2141C22.4823 26.2141 23.2023 26.3147 23.886 26.5024C24.0753 26.5542 24.261 26.6126 24.444 26.6778C25.3105 26.9852 26.1089 27.4368 26.8111 28.0035C27.383 28.4639 27.8906 29.0013 28.3183 29.5999C27.1831 30.7481 25.7062 31.5577 24.0523 31.8636C23.8721 31.8976 23.6897 31.9249 23.5054 31.9458C23.1986 31.981 22.8865 31.9993 22.5699 31.9993C19.8572 31.9993 17.456 30.6639 15.9902 28.6146Z" fill="#FF9B0F"/>
<path d="M4.2251 29.6381L8.87822 24.9725L10.4952 23.3516C11.6774 22.0028 13.301 21.0498 15.1402 20.7171C15.5294 20.647 15.9285 20.604 16.3354 20.5928C16.357 20.5928 16.3789 20.5934 16.4006 20.5949C18.9228 20.6929 21.1506 21.9438 22.5687 23.8362L23.8584 25.1036L26.8099 28.004C26.1079 27.4373 25.3092 26.9856 24.4428 26.6783C24.2598 26.613 24.0742 26.5547 23.8849 26.5029C23.201 26.3151 22.481 26.2146 21.7376 26.2146C19.4889 26.2146 17.4541 27.1328 15.989 28.615C15.9715 28.5905 16.0056 28.6405 15.989 28.615C14.6047 30.6197 12.2405 31.8589 9.62103 31.8589C9.45303 31.8589 9.28576 31.8534 9.12032 31.842C8.94132 31.831 8.76451 31.8133 8.58917 31.7896C6.89739 31.5625 5.37984 30.7826 4.2251 29.6381Z" fill="#FFD24C"/>
</g>
</svg>
