<svg width="32" height="32" viewBox="0 0 32 32" fill="none" xmlns="http://www.w3.org/2000/svg">
<mask id="mask0_596_156606" style="mask-type:luminance" maskUnits="userSpaceOnUse" x="0" y="0" width="32" height="32">
<path d="M32 0H0V32H32V0Z" fill="white"/>
</mask>
<g mask="url(#mask0_596_156606)">
<path d="M16.2441 3.38533C14.7791 4.86766 12.7447 5.7858 10.4957 5.7858C9.75214 5.7858 9.03207 5.68529 8.34832 5.49748C8.15903 5.44576 7.97343 5.38743 7.79038 5.32213C6.92395 5.01475 6.12539 4.56319 5.42329 3.99645C4.85141 3.53609 4.34373 2.99869 3.91602 2.40005C5.05133 1.2519 6.52814 0.442317 8.18215 0.136397C8.36226 0.102279 8.54457 0.07514 8.72907 0.0542181C9.03574 0.0190029 9.34791 0.000671387 9.66447 0.000671387C12.3771 0.000671387 14.7783 1.33589 16.2441 3.38533Z" fill="#00BD0D"/>
<path d="M28.0086 2.36155L23.3555 7.02715L21.7385 8.64813C20.5564 9.99693 18.9327 10.9499 17.0935 11.2826C16.7043 11.3527 16.3052 11.3956 15.8984 11.407C15.8767 11.407 15.8548 11.4063 15.8332 11.4048C13.3109 11.3068 11.0831 10.056 9.66502 8.16356L8.37526 6.89619L5.42383 3.99573C6.12592 4.56248 6.92449 5.01403 7.79093 5.32143C7.97397 5.38672 8.15958 5.44504 8.34886 5.49677C9.03262 5.68458 9.75268 5.78509 10.4962 5.78509C12.7448 5.78509 14.7796 4.86693 16.2447 3.3846C16.2623 3.40918 16.2281 3.35929 16.2447 3.3846C17.6287 1.38067 19.9932 0.141541 22.6127 0.141541C22.7807 0.141541 22.948 0.147042 23.1135 0.158424C23.2924 0.169426 23.4693 0.187026 23.6445 0.210874C25.3364 0.437937 26.8538 1.21706 28.0086 2.36155Z" fill="#94FFAB"/>
<path d="M28.5216 16.2273C27.0393 14.7623 26.1211 12.7279 26.1211 10.4789C26.1211 9.73536 26.2217 9.01528 26.4094 8.33154C26.4612 8.14225 26.5196 7.95665 26.5848 7.77359C26.8921 6.90717 27.3438 6.1086 27.9105 5.40651C28.3708 4.83462 28.9083 4.32695 29.5068 3.89923C30.655 5.03455 31.4646 6.51136 31.7706 8.16536C31.8046 8.34548 31.8319 8.52779 31.8528 8.71229C31.888 9.01896 31.9062 9.33112 31.9062 9.64768C31.9062 12.3603 30.5709 14.7616 28.5216 16.2273Z" fill="#41BCF0"/>
<path d="M29.5453 27.9917L24.8797 23.3386L23.2589 21.7217C21.91 20.5394 20.957 18.9159 20.6243 17.0767C20.5542 16.6875 20.5113 16.2882 20.5 15.8815C20.5 15.8599 20.5008 15.8378 20.5021 15.8162C20.6001 13.2939 21.851 11.0662 23.7434 9.64811L25.0108 8.35836L27.9112 5.40692C27.3445 6.10902 26.8928 6.90758 26.5855 7.77402C26.5203 7.95706 26.4619 8.14268 26.4102 8.33195C26.2224 9.01571 26.1218 9.73578 26.1218 10.4793C26.1218 12.7279 27.04 14.7627 28.5224 16.2277C28.5477 16.2113 28.4977 16.2454 28.5224 16.2277C30.527 17.6121 31.7661 19.9763 31.7661 22.5957C31.7661 22.7638 31.7606 22.9311 31.7492 23.0965C31.7382 23.2755 31.7206 23.4523 31.6968 23.6277C31.4698 25.3194 30.6899 26.837 29.5453 27.9917Z" fill="#7CEBFF"/>
<path d="M3.38563 15.7284C4.86796 17.1934 5.78612 19.2278 5.78612 21.4768C5.78612 22.2204 5.68561 22.9404 5.49778 23.6242C5.44607 23.8134 5.38775 23.999 5.32245 24.1822C5.01506 25.0486 4.56349 25.8471 3.99675 26.5493C3.5364 27.1212 2.99901 27.6287 2.40035 28.0565C1.2522 26.9212 0.442629 25.4444 0.1367 23.7904C0.102586 23.6103 0.0754412 23.4279 0.0545324 23.2434C0.0193176 22.9368 0.000976562 22.6245 0.000976562 22.308C0.000976562 19.5954 1.33621 17.1941 3.38563 15.7284Z" fill="#E64A67"/>
<path d="M2.36136 3.96405L7.02696 8.61719L8.64794 10.2341C9.99675 11.4164 10.9497 13.0399 11.2824 14.8792C11.3525 15.2683 11.3954 15.6674 11.4068 16.0743C11.4068 16.0959 11.4061 16.1179 11.4046 16.1395C11.3067 18.6619 10.0558 20.8895 8.16337 22.3077L6.89601 23.5975L3.99554 26.5488C4.56229 25.8468 5.01384 25.0481 5.32124 24.1817C5.38654 23.9987 5.44485 23.8131 5.49658 23.6238C5.68439 22.9401 5.7849 22.22 5.7849 21.4765C5.7849 19.2278 4.86675 17.1931 3.38442 15.7281C3.409 15.7104 3.35911 15.7445 3.38442 15.7281C1.37975 14.3437 0.140625 11.9795 0.140625 9.36C0.140625 9.19198 0.146127 9.02471 0.157499 8.85927C0.168504 8.68027 0.186111 8.50346 0.209954 8.32812C0.437017 6.63634 1.21688 5.11881 2.36136 3.96405Z" fill="#FF7F9C"/>
<path d="M15.7588 28.6144C17.2239 27.1322 19.2582 26.214 21.5072 26.214C22.2508 26.214 22.9708 26.3146 23.6546 26.5023C23.8438 26.5541 24.0296 26.6125 24.2126 26.6777C25.079 26.985 25.8775 27.4367 26.5797 28.0034C27.1516 28.4637 27.6591 29.0012 28.0869 29.5997C26.9516 30.7479 25.4748 31.5575 23.8208 31.8635C23.6407 31.8975 23.4583 31.9248 23.2739 31.9456C22.9672 31.9808 22.6551 31.9991 22.3384 31.9991C19.6258 31.9991 17.2245 30.6638 15.7588 28.6144Z" fill="#FF9B0F"/>
<path d="M3.99316 29.6382L8.64628 24.9726L10.2632 23.3518C11.4455 22.0029 13.0691 21.0499 14.9083 20.7172C15.2975 20.6471 15.6966 20.6042 16.1034 20.5929C16.1251 20.5929 16.147 20.5935 16.1686 20.595C18.6909 20.693 20.9187 21.9439 22.3367 23.8363L23.6265 25.1037L26.5779 28.0041C25.8759 27.4374 25.0773 26.9857 24.2109 26.6784C24.0278 26.6132 23.8422 26.5548 23.653 26.503C22.9691 26.3153 22.2491 26.2147 21.5056 26.2147C19.257 26.2147 17.2222 27.1329 15.7571 28.6151C15.7737 28.6406 15.7395 28.5906 15.7571 28.6151C14.3727 30.6199 12.0086 31.859 9.3891 31.859C9.2211 31.859 9.05383 31.8535 8.88839 31.8421C8.70939 31.8311 8.53258 31.8135 8.35723 31.7897C6.66545 31.5626 5.14791 30.7828 3.99316 29.6382Z" fill="#FFD24C"/>
</g>
</svg>
