<svg width="56" height="56" viewBox="0 0 56 56" fill="none" xmlns="http://www.w3.org/2000/svg">
<path d="M0 28C0 12.536 12.536 0 28 0C43.464 0 56 12.536 56 28C56 43.464 43.464 56 28 56C12.536 56 0 43.464 0 28Z" fill="#DCFAE6"/>
<path d="M39.6663 25.6667H16.333M26.833 30.3333H20.9997M16.333 23.5667L16.333 32.4333C16.333 33.7401 16.333 34.3935 16.5873 34.8926C16.811 35.3317 17.168 35.6886 17.607 35.9123C18.1062 36.1667 18.7596 36.1667 20.0663 36.1667L35.933 36.1667C37.2398 36.1667 37.8932 36.1667 38.3923 35.9123C38.8314 35.6886 39.1883 35.3317 39.412 34.8926C39.6663 34.3935 39.6663 33.7401 39.6663 32.4333V23.5667C39.6663 22.2599 39.6663 21.6065 39.412 21.1074C39.1883 20.6683 38.8314 20.3114 38.3923 20.0876C37.8932 19.8333 37.2398 19.8333 35.933 19.8333L20.0663 19.8333C18.7596 19.8333 18.1062 19.8333 17.607 20.0876C17.168 20.3114 16.811 20.6683 16.5873 21.1074C16.333 21.6065 16.333 22.2599 16.333 23.5667Z" stroke="#079455" stroke-width="2" stroke-linecap="round" stroke-linejoin="round"/>
</svg>
