<svg width="56" height="56" viewBox="0 0 56 56" fill="none" xmlns="http://www.w3.org/2000/svg">
<path d="M0 28C0 12.536 12.536 0 28 0C43.464 0 56 12.536 56 28C56 43.464 43.464 56 28 56C12.536 56 0 43.464 0 28Z" fill="#DCFAE6"/>
<path d="M32.6668 24.5V21C32.6668 18.4227 30.5774 16.3333 28.0001 16.3333C25.4228 16.3333 23.3334 18.4227 23.3334 21V24.5M18.1908 26.0773L17.4908 33.544C17.2917 35.667 17.1922 36.7284 17.5445 37.5483C17.854 38.2686 18.3962 38.8641 19.0845 39.2394C19.8679 39.6667 20.934 39.6667 23.0663 39.6667H32.9339C35.0662 39.6667 36.1323 39.6667 36.9157 39.2394C37.604 38.8641 38.1463 38.2686 38.4557 37.5483C38.808 36.7284 38.7085 35.667 38.5094 33.544L37.8094 26.0773C37.6414 24.2846 37.5573 23.3882 37.1542 22.7105C36.7991 22.1137 36.2745 21.636 35.6471 21.3382C34.9348 21 34.0345 21 32.2339 21L23.7663 21C21.9657 21 21.0655 21 20.3531 21.3382C19.7257 21.636 19.2011 22.1137 18.846 22.7105C18.4429 23.3882 18.3588 24.2846 18.1908 26.0773Z" stroke="#079455" stroke-width="2" stroke-linecap="round" stroke-linejoin="round"/>
</svg>
