<svg width="56" height="56" viewBox="0 0 56 56" fill="none" xmlns="http://www.w3.org/2000/svg">
<path d="M0 28C0 12.536 12.536 0 28 0C43.464 0 56 12.536 56 28C56 43.464 43.464 56 28 56C12.536 56 0 43.464 0 28Z" fill="#E0F2FE"/>
<path d="M27.9999 23.3333V27.9999M27.9999 32.6666H28.0116M39.6666 27.9999C39.6666 34.4432 34.4432 39.6666 27.9999 39.6666C21.5566 39.6666 16.3333 34.4432 16.3333 27.9999C16.3333 21.5566 21.5566 16.3333 27.9999 16.3333C34.4432 16.3333 39.6666 21.5566 39.6666 27.9999Z" stroke="#0086C9" stroke-width="2" stroke-linecap="round" stroke-linejoin="round"/>
</svg>
