<svg width="56" height="56" viewBox="0 0 56 56" fill="none" xmlns="http://www.w3.org/2000/svg">
<path d="M0 28C0 12.536 12.536 0 28 0C43.464 0 56 12.536 56 28C56 43.464 43.464 56 28 56C12.536 56 0 43.464 0 28Z" fill="#DCFAE6"/>
<path d="M27.9997 31.5C24.1337 31.5 20.9997 28.366 20.9997 24.5V18.0185C20.9997 17.5357 20.9997 17.2943 21.07 17.101C21.188 16.7769 21.4433 16.5216 21.7673 16.4037C21.9606 16.3333 22.202 16.3333 22.6849 16.3333H33.3145C33.7973 16.3333 34.0387 16.3333 34.232 16.4037C34.5561 16.5216 34.8114 16.7769 34.9293 17.101C34.9997 17.2943 34.9997 17.5357 34.9997 18.0185V24.5C34.9997 28.366 31.8657 31.5 27.9997 31.5ZM27.9997 31.5V35M34.9997 18.6667H37.9163C38.4599 18.6667 38.7317 18.6667 38.9461 18.7555C39.232 18.8739 39.4591 19.101 39.5775 19.3869C39.6663 19.6013 39.6663 19.8731 39.6663 20.4167V21C39.6663 22.085 39.6663 22.6275 39.5471 23.0725C39.2234 24.2804 38.28 25.2238 37.0722 25.5474C36.6271 25.6667 36.0846 25.6667 34.9997 25.6667M20.9997 18.6667H18.083C17.5394 18.6667 17.2676 18.6667 17.0532 18.7555C16.7673 18.8739 16.5402 19.101 16.4218 19.3869C16.333 19.6013 16.333 19.8731 16.333 20.4167V21C16.333 22.085 16.333 22.6275 16.4523 23.0725C16.7759 24.2804 17.7193 25.2238 18.9271 25.5474C19.3722 25.6667 19.9147 25.6667 20.9997 25.6667M22.6849 39.6667H33.3145C33.6009 39.6667 33.833 39.4345 33.833 39.1481C33.833 36.8572 31.9758 35 29.6849 35H26.3145C24.0235 35 22.1663 36.8572 22.1663 39.1481C22.1663 39.4345 22.3985 39.6667 22.6849 39.6667Z" stroke="#079455" stroke-width="2" stroke-linecap="round" stroke-linejoin="round"/>
</svg>
