<svg width="23" height="23" viewBox="0 0 23 23" fill="none" xmlns="http://www.w3.org/2000/svg">
<g filter="url(#filter0_d_596_477173)">
<path d="M2.75 7.97222C2.75 5.79424 2.75 4.70525 3.17386 3.87337C3.5467 3.14163 4.14163 2.5467 4.87337 2.17386C5.70525 1.75 6.79424 1.75 8.97222 1.75H14.0278C16.2058 1.75 17.2948 1.75 18.1266 2.17386C18.8584 2.5467 19.4533 3.14163 19.8261 3.87337C20.25 4.70525 20.25 5.79424 20.25 7.97222V13.0278C20.25 15.2058 20.25 16.2948 19.8261 17.1266C19.4533 17.8584 18.8584 18.4533 18.1266 18.8261C17.2948 19.25 16.2058 19.25 14.0278 19.25H8.97222C6.79424 19.25 5.70525 19.25 4.87337 18.8261C4.14163 18.4533 3.5467 17.8584 3.17386 17.1266C2.75 16.2948 2.75 15.2058 2.75 13.0278V7.97222Z" fill="white"/>
<path fill-rule="evenodd" clip-rule="evenodd" d="M16.5 8.50725L16.4999 8.53381C16.4999 8.545 16.4998 8.55619 16.4996 8.56738C16.4999 8.58044 16.5 8.5936 16.5 8.60688C16.5 10.6921 14.8755 12.5378 13.7884 13.7729C13.4729 14.1313 13.2027 14.4383 13.0306 14.6848C12.4184 15.5616 12.0952 16.5115 12.0102 16.8768C12.0102 17.152 11.7818 17.375 11.5 17.375C11.2182 17.375 10.9898 17.152 10.9898 16.8768C10.9048 16.5115 10.5816 15.5616 9.96939 14.6848C9.79727 14.4383 9.52708 14.1313 9.21164 13.7729C8.12454 12.5378 6.5 10.6921 6.5 8.60688C6.5 8.5936 6.50012 8.58044 6.50037 8.56738C6.50012 8.54736 6.5 8.52731 6.5 8.50725C6.5 5.81085 8.73857 3.625 11.5 3.625C14.2614 3.625 16.5 5.81085 16.5 8.50725ZM11.5 10.3007C12.5708 10.3007 13.4388 9.45315 13.4388 8.40761C13.4388 7.36207 12.5708 6.51449 11.5 6.51449C10.4292 6.51449 9.56122 7.36207 9.56122 8.40761C9.56122 9.45315 10.4292 10.3007 11.5 10.3007Z" fill="#34A851"/>
<path d="M15.9411 6.2616C15.3289 5.10966 14.2603 4.22611 12.9692 3.83923L10.0977 7.10091C10.4507 6.7397 10.9486 6.51466 11.5004 6.51466C12.5711 6.51466 13.4391 7.36224 13.4391 8.40778C13.4391 8.8343 13.2947 9.22789 13.0509 9.54442L15.9411 6.2616Z" fill="#4285F5"/>
<path d="M9.26954 13.8389C9.25039 13.8171 9.23106 13.7952 9.21155 13.773C8.49498 12.9589 7.54488 11.8794 6.98047 10.641L9.96505 7.25098C9.71182 7.57088 9.56113 7.97211 9.56113 8.40773C9.56113 9.45327 10.4292 10.3008 11.4999 10.3008C12.0423 10.3008 12.5327 10.0834 12.8846 9.73282L9.26954 13.8389Z" fill="#F9BB0E"/>
<path d="M7.68305 5.35352C6.94505 6.20428 6.5 7.30504 6.5 8.50731C6.5 8.52737 6.50012 8.54742 6.50037 8.56744C6.50012 8.5805 6.5 8.59366 6.5 8.60694C6.5 9.31764 6.68872 10.0005 6.98056 10.6409L9.96011 7.25663L7.68305 5.35352Z" fill="#E74335"/>
<path d="M12.9684 3.83909C12.504 3.69992 12.0107 3.625 11.4996 3.625C9.96939 3.625 8.59978 4.29617 7.68262 5.35346L9.95968 7.25655L9.96463 7.25093C10.0061 7.1986 10.0502 7.14844 10.0969 7.10067L12.9684 3.83909Z" fill="#1A73E6"/>
</g>
<defs>
<filter id="filter0_d_596_477173" x="-0.5" y="-0.5" width="24" height="24" filterUnits="userSpaceOnUse" color-interpolation-filters="sRGB">
<feFlood flood-opacity="0" result="BackgroundImageFix"/>
<feColorMatrix in="SourceAlpha" type="matrix" values="0 0 0 0 0 0 0 0 0 0 0 0 0 0 0 0 0 0 127 0" result="hardAlpha"/>
<feOffset dy="1"/>
<feGaussianBlur stdDeviation="1"/>
<feComposite in2="hardAlpha" operator="out"/>
<feColorMatrix type="matrix" values="0 0 0 0 0.0627451 0 0 0 0 0.0941176 0 0 0 0 0.156863 0 0 0 0.05 0"/>
<feBlend mode="normal" in2="BackgroundImageFix" result="effect1_dropShadow_596_477173"/>
<feBlend mode="normal" in="SourceGraphic" in2="effect1_dropShadow_596_477173" result="shape"/>
</filter>
</defs>
</svg>
