<svg width="16" height="17" viewBox="0 0 16 17" fill="none" xmlns="http://www.w3.org/2000/svg">
<path d="M6.05992 6.49992C6.21665 6.05436 6.52602 5.67866 6.93322 5.43934C7.34042 5.20002 7.81918 5.11254 8.2847 5.19239C8.75022 5.27224 9.17246 5.51427 9.47664 5.8756C9.78081 6.23694 9.94729 6.69427 9.94659 7.16659C9.94659 8.49992 7.94659 9.16659 7.94659 9.16659M7.99992 11.8333H8.00659M14.6666 8.49992C14.6666 12.1818 11.6818 15.1666 7.99992 15.1666C4.31802 15.1666 1.33325 12.1818 1.33325 8.49992C1.33325 4.81802 4.31802 1.83325 7.99992 1.83325C11.6818 1.83325 14.6666 4.81802 14.6666 8.49992Z" stroke="#98A2B3" stroke-width="1.33333" stroke-linecap="round" stroke-linejoin="round"/>
</svg>
