<svg width="20" height="20" viewBox="0 0 20 20" fill="none" xmlns="http://www.w3.org/2000/svg">
<g clip-path="url(#clip0_596_156621)">
<path d="M7.57533 7.50002C7.77125 6.94308 8.15795 6.47344 8.66695 6.1743C9.17596 5.87515 9.77441 5.7658 10.3563 5.86561C10.9382 5.96543 11.466 6.26796 11.8462 6.71963C12.2264 7.1713 12.4345 7.74296 12.4337 8.33335C12.4337 10 9.93366 10.8334 9.93366 10.8334M10.0003 14.1667H10.0087M18.3337 10C18.3337 14.6024 14.6027 18.3334 10.0003 18.3334C5.39795 18.3334 1.66699 14.6024 1.66699 10C1.66699 5.39765 5.39795 1.66669 10.0003 1.66669C14.6027 1.66669 18.3337 5.39765 18.3337 10Z" stroke="#344054" stroke-width="1.66667" stroke-linecap="round" stroke-linejoin="round"/>
</g>
<defs>
<clipPath id="clip0_596_156621">
<rect width="20" height="20" fill="white"/>
</clipPath>
</defs>
</svg>
