<svg width="21" height="21" viewBox="0 0 21 21" fill="none" xmlns="http://www.w3.org/2000/svg">
<path d="M10.4997 10.5001L6.93894 7.5328C6.40989 7.09193 6.14537 6.8715 5.95521 6.60128C5.78671 6.36186 5.66158 6.0947 5.58552 5.81198C5.49967 5.4929 5.49967 5.14857 5.49967 4.45992V2.16675M10.4997 10.5001L14.0604 7.5328C14.5895 7.09193 14.854 6.8715 15.0441 6.60128C15.2126 6.36186 15.3378 6.0947 15.4138 5.81198C15.4997 5.4929 15.4997 5.14857 15.4997 4.45992V2.16675M10.4997 10.5001L6.93894 13.4674C6.40989 13.9082 6.14537 14.1287 5.95521 14.3989C5.78671 14.6383 5.66158 14.9055 5.58552 15.1882C5.49967 15.5073 5.49967 15.8516 5.49967 16.5402V18.8334M10.4997 10.5001L14.0604 13.4674C14.5895 13.9082 14.854 14.1287 15.0441 14.3989C15.2126 14.6383 15.3378 14.9055 15.4138 15.1882C15.4997 15.5073 15.4997 15.8516 15.4997 16.5402V18.8334M3.83301 2.16675H17.1663M3.83301 18.8334H17.1663" stroke="#026AA2" stroke-width="1.66667" stroke-linecap="round" stroke-linejoin="round"/>
</svg>
