<svg width="25" height="24" viewBox="0 0 25 24" fill="none" xmlns="http://www.w3.org/2000/svg">
<path fill-rule="evenodd" clip-rule="evenodd" d="M11.7737 2.42105C12.0507 2.19298 12.4504 2.19298 12.7273 2.42105L21.2273 9.42105C21.5219 9.66363 21.5873 10.0887 21.3794 10.4087C21.1885 10.7024 20.8232 10.8216 20.5005 10.7072V18C20.5005 19.5188 19.2693 20.75 17.7505 20.75H14.9068C14.4926 20.75 14.1568 20.4142 14.1568 20V16.5937C14.1568 15.541 13.3033 14.6875 12.2505 14.6875C11.1977 14.6875 10.3443 15.541 10.3443 16.5937V20C10.3443 20.4142 10.0085 20.75 9.59427 20.75H6.75052C5.23174 20.75 4.00052 19.5188 4.00052 18V10.7072C3.67787 10.8215 3.31252 10.7024 3.12166 10.4087C2.91372 10.0887 2.97918 9.66363 3.27374 9.42105L11.7737 2.42105ZM5.50052 9.53041V18C5.50052 18.6904 6.06017 19.25 6.75052 19.25H8.84427V16.5937C8.84427 14.7125 10.3693 13.1875 12.2505 13.1875C14.1317 13.1875 15.6568 14.7125 15.6568 16.5937V19.25H17.7505C18.4409 19.25 19.0005 18.6904 19.0005 18V9.53041L12.2505 3.97159L5.50052 9.53041Z" fill="#242424"/>
</svg>
