<svg width="25" height="24" viewBox="0 0 25 24" fill="none" xmlns="http://www.w3.org/2000/svg">
<path fill-rule="evenodd" clip-rule="evenodd" d="M12.312 4.39444C12.2416 4.35924 12.1588 4.35924 12.0884 4.39444L7.08839 6.89444C7.0037 6.93678 6.9502 7.02335 6.9502 7.11804V10.463C7.13458 12.2822 7.99742 14.2325 9.06969 15.925C10.1491 17.6288 11.3825 18.9806 12.2002 19.602C13.0179 18.9806 14.2513 17.6288 15.3307 15.925C16.403 14.2325 17.2658 12.2822 17.4502 10.463V7.11804C17.4502 7.02335 17.3967 6.93678 17.312 6.89444L12.312 4.39444ZM11.4176 3.05279C11.9102 2.80646 12.4901 2.80646 12.9828 3.05279L17.9828 5.55279C18.5757 5.84923 18.9502 6.45519 18.9502 7.11804V10.5C18.9502 10.5241 18.949 10.5482 18.9467 10.5721C18.7384 12.7281 17.7414 14.9228 16.5978 16.7278C15.4551 18.5314 14.108 20.0367 13.106 20.7977C12.5672 21.2069 11.8332 21.2068 11.2944 20.7977C10.2924 20.0367 8.94526 18.5314 7.80258 16.7278C6.65904 14.9228 5.662 12.7281 5.45367 10.5721C5.45136 10.5482 5.4502 10.5241 5.4502 10.5V7.11804C5.4502 6.45519 5.8247 5.84923 6.41757 5.55279L11.4176 3.05279Z" fill="#3D3D3D"/>
</svg>
