<svg width="25" height="25" viewBox="0 0 25 25" fill="none" xmlns="http://www.w3.org/2000/svg">
<path d="M16.3998 9.5V6.5C16.3998 4.29086 14.6089 2.5 12.3998 2.5C10.1906 2.5 8.39978 4.29086 8.39978 6.5V9.5M3.99179 10.852L3.39179 17.252C3.22119 19.0717 3.13589 19.9815 3.43783 20.6843C3.70308 21.3016 4.1679 21.8121 4.7578 22.1338C5.42931 22.5 6.34315 22.5 8.17083 22.5H16.6287C18.4564 22.5 19.3703 22.5 20.0418 22.1338C20.6317 21.8121 21.0965 21.3016 21.3617 20.6843C21.6637 19.9815 21.5784 19.0717 21.4078 17.252L20.8078 10.852C20.6637 9.31535 20.5917 8.54704 20.2461 7.96616C19.9418 7.45458 19.4921 7.04511 18.9544 6.78984C18.3438 6.5 17.5721 6.5 16.0287 6.5L8.77083 6.5C7.22747 6.5 6.45579 6.5 5.8452 6.78984C5.30745 7.04511 4.85779 7.45458 4.55344 7.96616C4.20787 8.54704 4.13584 9.31534 3.99179 10.852Z" stroke="black" stroke-width="2" stroke-linecap="round" stroke-linejoin="round"/>
</svg>
