<svg width="25" height="24" viewBox="0 0 25 24" fill="none" xmlns="http://www.w3.org/2000/svg">
<path fill-rule="evenodd" clip-rule="evenodd" d="M12.3618 4.39444C12.2914 4.35924 12.2086 4.35924 12.1382 4.39444L7.1382 6.89444C7.0535 6.93678 7 7.02335 7 7.11804V10.463C7.18438 12.2822 8.04722 14.2325 9.1195 15.925C10.1989 17.6288 11.4323 18.9806 12.25 19.602C13.0677 18.9806 14.3011 17.6288 15.3805 15.925C16.4528 14.2325 17.3156 12.2822 17.5 10.463V7.11804C17.5 7.02335 17.4465 6.93678 17.3618 6.89444L12.3618 4.39444ZM11.4674 3.05279C11.96 2.80646 12.54 2.80646 13.0326 3.05279L18.0326 5.55279C18.6255 5.84923 19 6.45519 19 7.11804V10.5C19 10.5241 18.9988 10.5482 18.9965 10.5721C18.7882 12.7281 17.7912 14.9228 16.6476 16.7278C15.5049 18.5314 14.1578 20.0367 13.1558 20.7977C12.617 21.2069 11.883 21.2068 11.3442 20.7977C10.3422 20.0367 8.99507 18.5314 7.85239 16.7278C6.70884 14.9228 5.7118 12.7281 5.50348 10.5721C5.50116 10.5482 5.5 10.5241 5.5 10.5V7.11804C5.5 6.45519 5.8745 5.84923 6.46738 5.55279L11.4674 3.05279Z" fill="#242424"/>
</svg>
