<svg width="25" height="24" viewBox="0 0 25 24" fill="none" xmlns="http://www.w3.org/2000/svg">
<path d="M14.25 11H8.25M10.25 15H8.25M16.25 7H8.25M20.25 10.5V6.8C20.25 5.11984 20.25 4.27976 19.923 3.63803C19.6354 3.07354 19.1765 2.6146 18.612 2.32698C17.9702 2 17.1302 2 15.45 2H9.05C7.36984 2 6.52976 2 5.88803 2.32698C5.32354 2.6146 4.8646 3.07354 4.57698 3.63803C4.25 4.27976 4.25 5.11984 4.25 6.8V17.2C4.25 18.8802 4.25 19.7202 4.57698 20.362C4.8646 20.9265 5.32354 21.3854 5.88803 21.673C6.52976 22 7.36984 22 9.05 22H11.75M22.25 22L20.75 20.5M21.75 18C21.75 19.933 20.183 21.5 18.25 21.5C16.317 21.5 14.75 19.933 14.75 18C14.75 16.067 16.317 14.5 18.25 14.5C20.183 14.5 21.75 16.067 21.75 18Z" stroke="#101828" stroke-width="2" stroke-linecap="round" stroke-linejoin="round"/>
</svg>
