<svg width="25" height="24" viewBox="0 0 25 24" fill="none" xmlns="http://www.w3.org/2000/svg">
<path d="M7.74458 21.808C10.4526 21.808 12.6486 19.612 12.6486 16.904C12.6486 14.196 10.4536 12 7.74458 12C5.03558 12 2.84058 14.196 2.84058 16.904" stroke="#323232" stroke-width="1.5" stroke-linecap="round" stroke-linejoin="round"/>
<path d="M7.7495 21.8131C7.0115 21.8131 6.3125 21.6501 5.6845 21.3591L2.6665 22.0001L3.2975 18.9761C3.0045 18.3461 2.8405 17.6441 2.8405 16.9041" stroke="#323232" stroke-width="1.5" stroke-linecap="round" stroke-linejoin="round"/>
<path d="M7.2235 12.0281C6.8655 11.2071 6.6665 10.3121 6.6665 9.37306C6.6665 5.35606 10.2645 2.13306 14.6665 2.13306C19.0685 2.13306 22.6665 5.35606 22.6665 9.37306C22.6665 11.7471 21.4045 13.8371 19.4675 15.1551C19.4685 15.9111 19.4665 16.9301 19.4665 18.0001L16.3275 16.4541C15.7905 16.5571 15.2355 16.6131 14.6665 16.6131C13.9595 16.6131 13.2735 16.5291 12.6195 16.3721" stroke="#323232" stroke-width="1.5" stroke-linecap="round" stroke-linejoin="round"/>
</svg>
