<svg width="25" height="24" viewBox="0 0 25 24" fill="none" xmlns="http://www.w3.org/2000/svg">
<path d="M9.75 21V13.6C9.75 13.0399 9.75 12.7599 9.85899 12.546C9.95487 12.3578 10.1078 12.2049 10.296 12.109C10.5099 12 10.7899 12 11.35 12H14.15C14.7101 12 14.9901 12 15.204 12.109C15.3922 12.2049 15.5451 12.3578 15.641 12.546C15.75 12.7599 15.75 13.0399 15.75 13.6V21M11.7677 2.764L4.98539 8.03912C4.53202 8.39175 4.30534 8.56806 4.14203 8.78886C3.99737 8.98444 3.8896 9.20478 3.82403 9.43905C3.75 9.70352 3.75 9.9907 3.75 10.5651V17.8C3.75 18.9201 3.75 19.4801 3.96799 19.908C4.15973 20.2843 4.46569 20.5903 4.84202 20.782C5.26984 21 5.82989 21 6.95 21H18.55C19.6701 21 20.2302 21 20.658 20.782C21.0343 20.5903 21.3403 20.2843 21.532 19.908C21.75 19.4801 21.75 18.9201 21.75 17.8V10.5651C21.75 9.9907 21.75 9.70352 21.676 9.43905C21.6104 9.20478 21.5026 8.98444 21.358 8.78886C21.1947 8.56806 20.968 8.39175 20.5146 8.03913L13.7323 2.764C13.381 2.49075 13.2053 2.35412 13.0113 2.3016C12.8402 2.25526 12.6598 2.25526 12.4887 2.3016C12.2947 2.35412 12.119 2.49075 11.7677 2.764Z" stroke="#101828" stroke-width="2" stroke-linecap="round" stroke-linejoin="round"/>
</svg>
