<svg width="25" height="24" viewBox="0 0 25 24" fill="none" xmlns="http://www.w3.org/2000/svg">
<path d="M12.75 20H5.95C4.82989 20 4.26984 20 3.84202 19.782C3.46569 19.5903 3.15973 19.2843 2.96799 18.908C2.75 18.4802 2.75 17.9201 2.75 16.8V7.2C2.75 6.07989 2.75 5.51984 2.96799 5.09202C3.15973 4.71569 3.46569 4.40973 3.84202 4.21799C4.26984 4 4.82989 4 5.95 4H6.35C8.59021 4 9.71031 4 10.566 4.43597C11.3186 4.81947 11.9305 5.43139 12.314 6.18404C12.75 7.03968 12.75 8.15979 12.75 10.4M12.75 20V10.4M12.75 20H19.55C20.6701 20 21.2302 20 21.658 19.782C22.0343 19.5903 22.3403 19.2843 22.532 18.908C22.75 18.4802 22.75 17.9201 22.75 16.8V7.2C22.75 6.07989 22.75 5.51984 22.532 5.09202C22.3403 4.71569 22.0343 4.40973 21.658 4.21799C21.2302 4 20.6701 4 19.55 4H19.15C16.9098 4 15.7897 4 14.934 4.43597C14.1814 4.81947 13.5695 5.43139 13.186 6.18404C12.75 7.03968 12.75 8.15979 12.75 10.4" stroke="black" stroke-width="2" stroke-linecap="round" stroke-linejoin="round"/>
</svg>
