<svg width="25" height="24" viewBox="0 0 25 24" fill="none" xmlns="http://www.w3.org/2000/svg">
<path d="M12.25 20H5.45C4.32989 20 3.76984 20 3.34202 19.782C2.96569 19.5903 2.65973 19.2843 2.46799 18.908C2.25 18.4802 2.25 17.9201 2.25 16.8V7.2C2.25 6.07989 2.25 5.51984 2.46799 5.09202C2.65973 4.71569 2.96569 4.40973 3.34202 4.21799C3.76984 4 4.32989 4 5.45 4H5.85C8.09021 4 9.21031 4 10.066 4.43597C10.8186 4.81947 11.4305 5.43139 11.814 6.18404C12.25 7.03968 12.25 8.15979 12.25 10.4M12.25 20V10.4M12.25 20H19.05C20.1701 20 20.7302 20 21.158 19.782C21.5343 19.5903 21.8403 19.2843 22.032 18.908C22.25 18.4802 22.25 17.9201 22.25 16.8V7.2C22.25 6.07989 22.25 5.51984 22.032 5.09202C21.8403 4.71569 21.5343 4.40973 21.158 4.21799C20.7302 4 20.1701 4 19.05 4H18.65C16.4098 4 15.2897 4 14.434 4.43597C13.6814 4.81947 13.0695 5.43139 12.686 6.18404C12.25 7.03968 12.25 8.15979 12.25 10.4" stroke="#101828" stroke-width="2" stroke-linecap="round" stroke-linejoin="round"/>
</svg>
