<svg width="25" height="24" viewBox="0 0 25 24" fill="none" xmlns="http://www.w3.org/2000/svg">
<path fill-rule="evenodd" clip-rule="evenodd" d="M20.2454 12H4.25581C3.96553 11.9998 3.68927 12.1248 3.49789 12.343C3.30651 12.5613 3.21863 12.8515 3.25679 13.1393C3.61217 15.5949 5.08653 17.7468 7.24821 18.9649V20.0033C7.24821 20.5558 7.69611 21.0038 8.24862 21.0038H16.2526C16.8051 21.0038 17.253 20.5558 17.253 20.0033V18.9649C19.4147 17.7468 20.889 15.5949 21.2444 13.1392C21.2826 12.8515 21.1947 12.5613 21.0033 12.343C20.8119 12.1248 20.5357 11.9998 20.2454 12Z" stroke="#323232" stroke-width="2" stroke-linecap="round" stroke-linejoin="round"/>
<path d="M18.9326 12C19.7894 10.9961 20.2579 9.71831 20.2532 8.39851V7.99834C20.2532 7.44583 19.8053 6.99792 19.2528 6.99792H18.8526C15.9906 6.99842 13.5885 9.15468 13.2803 12" stroke="#323232" stroke-width="2" stroke-linecap="round" stroke-linejoin="round"/>
<path d="M13.2807 12H6.76344C6.23279 12 5.72387 11.7892 5.34864 11.414L4.93354 10.9989C4.01927 10.0836 4.01959 8.60062 4.93424 7.68572C5.84889 6.77082 7.33188 6.7701 8.24742 7.68411V7.49867H8.24856C8.24837 6.06901 9.0109 4.74785 10.2489 4.03285C11.4869 3.31786 13.0124 3.31765 14.2506 4.03231C15.4888 4.74697 16.2517 6.06793 16.2519 7.49759V7.63728" stroke="#323232" stroke-width="2" stroke-linecap="round" stroke-linejoin="round"/>
</svg>
