<svg width="25" height="24" viewBox="0 0 25 24" fill="none" xmlns="http://www.w3.org/2000/svg">
<path d="M16.3998 9V6C16.3998 3.79086 14.6089 2 12.3998 2C10.1906 2 8.39978 3.79086 8.39978 6V9M3.99179 10.352L3.39179 16.752C3.22119 18.5717 3.13589 19.4815 3.43783 20.1843C3.70308 20.8016 4.1679 21.3121 4.7578 21.6338C5.42931 22 6.34315 22 8.17083 22H16.6287C18.4564 22 19.3703 22 20.0418 21.6338C20.6317 21.3121 21.0965 20.8016 21.3617 20.1843C21.6637 19.4815 21.5784 18.5717 21.4078 16.752L20.8078 10.352C20.6637 8.81535 20.5917 8.04704 20.2461 7.46616C19.9418 6.95458 19.4921 6.54511 18.9544 6.28984C18.3438 6 17.5721 6 16.0287 6L8.77083 6C7.22747 6 6.45579 6 5.8452 6.28984C5.30745 6.54511 4.85779 6.95458 4.55344 7.46616C4.20787 8.04704 4.13584 8.81534 3.99179 10.352Z" stroke="black" stroke-width="2" stroke-linecap="round" stroke-linejoin="round"/>
</svg>
