<svg width="25" height="24" viewBox="0 0 25 24" fill="none" xmlns="http://www.w3.org/2000/svg">
<path d="M9.33334 21.0002V13.6002C9.33334 13.0402 9.33334 12.7601 9.44234 12.5462C9.53821 12.3581 9.69119 12.2051 9.87935 12.1092C10.0933 12.0002 10.3733 12.0002 10.9333 12.0002H13.7333C14.2934 12.0002 14.5734 12.0002 14.7873 12.1092C14.9755 12.2051 15.1285 12.3581 15.2243 12.5462C15.3333 12.7601 15.3333 13.0402 15.3333 13.6002V21.0002M11.351 2.76424L4.56873 8.03937C4.11536 8.39199 3.88868 8.5683 3.72537 8.7891C3.58071 8.98469 3.47294 9.20503 3.40737 9.4393C3.33334 9.70376 3.33334 9.99094 3.33334 10.5653V17.8002C3.33334 18.9203 3.33334 19.4804 3.55133 19.9082C3.74308 20.2845 4.04904 20.5905 4.42536 20.7822C4.85319 21.0002 5.41324 21.0002 6.53334 21.0002H18.1333C19.2534 21.0002 19.8135 21.0002 20.2413 20.7822C20.6176 20.5905 20.9236 20.2845 21.1154 19.9082C21.3333 19.4804 21.3333 18.9203 21.3333 17.8002V10.5653C21.3333 9.99094 21.3333 9.70376 21.2593 9.4393C21.1937 9.20503 21.086 8.98469 20.9413 8.7891C20.778 8.5683 20.5513 8.39199 20.098 8.03937L13.3156 2.76424C12.9643 2.49099 12.7887 2.35436 12.5947 2.30184C12.4235 2.2555 12.2431 2.2555 12.072 2.30184C11.878 2.35436 11.7024 2.49099 11.351 2.76424Z" stroke="black" stroke-width="2" stroke-linecap="round" stroke-linejoin="round"/>
</svg>
