<svg width="25" height="24" viewBox="0 0 25 24" fill="none" xmlns="http://www.w3.org/2000/svg">
<path d="M12.6666 20H5.86663C4.74652 20 4.18647 20 3.75864 19.782C3.38232 19.5903 3.07636 19.2843 2.88461 18.908C2.66663 18.4802 2.66663 17.9201 2.66663 16.8V7.2C2.66663 6.07989 2.66663 5.51984 2.88461 5.09202C3.07636 4.71569 3.38232 4.40973 3.75864 4.21799C4.18647 4 4.74652 4 5.86663 4H6.26663C8.50684 4 9.62694 4 10.4826 4.43597C11.2352 4.81947 11.8472 5.43139 12.2307 6.18404C12.6666 7.03968 12.6666 8.15979 12.6666 10.4M12.6666 20V10.4M12.6666 20H19.4666C20.5867 20 21.1468 20 21.5746 19.782C21.9509 19.5903 22.2569 19.2843 22.4486 18.908C22.6666 18.4802 22.6666 17.9201 22.6666 16.8V7.2C22.6666 6.07989 22.6666 5.51984 22.4486 5.09202C22.2569 4.71569 21.9509 4.40973 21.5746 4.21799C21.1468 4 20.5867 4 19.4666 4H19.0666C16.8264 4 15.7063 4 14.8507 4.43597C14.098 4.81947 13.4861 5.43139 13.1026 6.18404C12.6666 7.03968 12.6666 8.15979 12.6666 10.4" stroke="#101828" stroke-width="2" stroke-linecap="round" stroke-linejoin="round"/>
</svg>
