<svg width="24" height="24" viewBox="0 0 24 24" fill="none" xmlns="http://www.w3.org/2000/svg">
<path d="M9.34706 16.267V6.42003C9.34706 5.08803 8.26806 4.00903 6.93606 4.00903V4.00903C5.83706 4.00903 4.87806 4.75203 4.60206 5.81503L2.11206 15.425" stroke="#323232" stroke-width="1.5" stroke-linecap="round" stroke-linejoin="round"/>
<path d="M8.27191 13.7281C9.7067 15.1629 9.7067 17.4891 8.27191 18.9239C6.83712 20.3587 4.51088 20.3587 3.07609 18.9239C1.6413 17.4891 1.6413 15.1629 3.07609 13.7281C4.51088 12.2933 6.83712 12.2933 8.27191 13.7281" stroke="#323232" stroke-width="1.5"/>
<path d="M14.6528 16.267V6.42003C14.6528 5.08803 15.7318 4.00903 17.0638 4.00903V4.00903C18.1628 4.00903 19.1218 4.75203 19.3978 5.81503L21.8878 15.425" stroke="#323232" stroke-width="1.5" stroke-linecap="round" stroke-linejoin="round"/>
<path d="M14.6529 10C14.6529 8.53204 13.4649 7.34204 11.9999 7.34204C10.5349 7.34204 9.34692 8.53204 9.34692 10" stroke="#323232" stroke-width="1.5" stroke-linecap="round" stroke-linejoin="round"/>
<path d="M9.34692 16C9.34692 14.532 10.5349 13.342 11.9999 13.342C13.4649 13.342 14.6529 14.532 14.6529 16" stroke="#323232" stroke-width="1.5" stroke-linecap="round" stroke-linejoin="round"/>
<path d="M20.924 13.7281C22.3588 15.1629 22.3588 17.4891 20.924 18.9239C19.4892 20.3587 17.163 20.3587 15.7282 18.9239C14.2934 17.4891 14.2934 15.1629 15.7282 13.7281C17.163 12.2933 19.4892 12.2933 20.924 13.7281" stroke="#323232" stroke-width="1.5"/>
</svg>
