<svg width="20" height="21" viewBox="0 0 20 21" fill="none" xmlns="http://www.w3.org/2000/svg">
<path d="M1.66663 6.33325L8.47073 11.0961C9.0217 11.4818 9.29719 11.6746 9.59685 11.7493C9.86154 11.8153 10.1384 11.8153 10.4031 11.7493C10.7027 11.6746 10.9782 11.4818 11.5292 11.0961L18.3333 6.33325M5.66663 17.1666H14.3333C15.7334 17.1666 16.4335 17.1666 16.9683 16.8941C17.4387 16.6544 17.8211 16.272 18.0608 15.8016C18.3333 15.2668 18.3333 14.5667 18.3333 13.1666V7.83325C18.3333 6.43312 18.3333 5.73306 18.0608 5.19828C17.8211 4.72787 17.4387 4.34542 16.9683 4.10574C16.4335 3.83325 15.7334 3.83325 14.3333 3.83325H5.66663C4.26649 3.83325 3.56643 3.83325 3.03165 4.10574C2.56124 4.34542 2.17879 4.72787 1.93911 5.19828C1.66663 5.73306 1.66663 6.43312 1.66663 7.83325V13.1666C1.66663 14.5667 1.66663 15.2668 1.93911 15.8016C2.17879 16.272 2.56124 16.6544 3.03165 16.8941C3.56643 17.1666 4.26649 17.1666 5.66663 17.1666Z" stroke="#667085" stroke-width="1.66667" stroke-linecap="round" stroke-linejoin="round"/>
</svg>
