<svg width="64" height="56" viewBox="0 0 64 56" fill="none" xmlns="http://www.w3.org/2000/svg">
<g clip-path="url(#clip0_486_39432)">
<path d="M32.4348 19.8562C32.3988 19.8587 32.3622 19.86 32.3262 19.86" stroke="#F9FAFB" stroke-width="0.0316553" stroke-miterlimit="10"/>
<path d="M32.4348 19.8562C32.3988 19.8587 32.3622 19.86 32.3262 19.86" stroke="#F9FAFB" stroke-width="0.0316553" stroke-miterlimit="10"/>
<path d="M33.0311 6.01135C30.5025 8.56973 26.9913 10.1544 23.1097 10.1544C21.8264 10.1544 20.5836 9.98092 19.4035 9.65677C19.0768 9.5675 18.7564 9.46684 18.4405 9.35415C16.9451 8.8236 15.5669 8.04425 14.3551 7.0661C13.3681 6.27155 12.4919 5.34405 11.7537 4.31082C13.7131 2.3292 16.262 0.931937 19.1167 0.403927C19.4275 0.345048 19.7422 0.298198 20.0606 0.262111C20.5899 0.201333 21.1287 0.169678 21.6751 0.169678C26.3569 0.169678 30.5012 2.47545 33.0311 6.01261V6.01135Z" fill="#F9FAFB"/>
<path d="M32.3263 19.8612C32.3263 19.8612 32.3225 19.8568 32.3225 19.8542" stroke="#F9FAFB" stroke-width="0.0316553" stroke-miterlimit="10"/>
<path d="M53.3298 4.24367L45.2988 12.2961L42.5081 15.0938C40.4676 17.4218 37.6655 19.0666 34.4911 19.6408C33.8194 19.7617 33.1305 19.8358 32.4284 19.8554C32.3911 19.8554 32.3531 19.8542 32.3157 19.8516H32.3145C27.9612 19.6826 24.1177 17.5237 21.6701 14.2575L19.4441 12.0701L14.3501 7.06415C15.5619 8.0423 16.9401 8.82166 18.4355 9.3522C18.7514 9.46489 19.0718 9.56556 19.3985 9.65482C20.5786 9.97897 21.8214 10.1524 23.1047 10.1524C26.9856 10.1524 30.4975 8.56778 33.0261 6.0094C33.0565 6.05182 32.9976 5.96571 33.0261 6.0094C35.4148 2.55074 39.4958 0.412109 44.0168 0.412109C44.3068 0.412109 44.5955 0.421606 44.881 0.441232C45.1899 0.460225 45.4951 0.490615 45.7977 0.531766C48.7176 0.923659 51.3368 2.26838 53.3298 4.24367Z" fill="#F9FAFB"/>
<path d="M53.3349 4.24194L53.334 4.24288" stroke="#F9FAFB" stroke-width="0.0316553" stroke-miterlimit="10"/>
<path d="M40.3702 27.5803C40.3677 27.5443 40.3665 27.5077 40.3665 27.4717" stroke="#F9FAFB" stroke-width="0.0316553" stroke-miterlimit="10"/>
<path d="M40.3702 27.5803C40.3677 27.5443 40.3665 27.5077 40.3665 27.4717" stroke="#F9FAFB" stroke-width="0.0316553" stroke-miterlimit="10"/>
<path d="M54.2134 28.1761C51.655 25.6475 50.0703 22.1363 50.0703 18.2547C50.0703 16.9714 50.2438 15.7286 50.5679 14.5485C50.6572 14.2218 50.7579 13.9015 50.8706 13.5855C51.4011 12.0901 52.1805 10.7119 53.1586 9.50011C53.9532 8.5131 54.8807 7.63688 55.9139 6.89868C57.8955 8.85814 59.2928 11.407 59.8208 14.2617C59.8797 14.5726 59.9265 14.8872 59.9626 15.2057C60.0234 15.7349 60.055 16.2737 60.055 16.8201C60.055 21.5019 57.7493 25.6462 54.2121 28.1761H54.2134Z" fill="#F9FAFB"/>
<path d="M40.3665 27.4694C40.3665 27.4694 40.3709 27.4656 40.3734 27.4656" stroke="#F9FAFB" stroke-width="0.0316553" stroke-miterlimit="10"/>
<path d="M55.9816 48.4812L47.9292 40.4502L45.1315 37.6595C42.8035 35.619 41.1587 32.8169 40.5845 29.6425C40.4636 28.9707 40.3895 28.2819 40.3699 27.5798C40.3699 27.5425 40.3711 27.5045 40.3737 27.4671V27.4658C40.5427 23.1126 42.7016 19.269 45.9678 16.8214L48.1552 14.5954L53.1611 9.50146C52.183 10.7132 51.4036 12.0915 50.8731 13.5869C50.7604 13.9028 50.6597 14.2232 50.5705 14.5499C50.2463 15.73 50.0729 16.9727 50.0729 18.2561C50.0729 22.137 51.6575 25.6488 54.2159 28.1775C54.2596 28.149 54.1735 28.2078 54.2159 28.1775C57.6758 30.5668 59.8145 34.6472 59.8145 39.1682C59.8145 39.4581 59.805 39.7468 59.7853 40.0324C59.7663 40.3413 59.7359 40.6465 59.6948 40.9491C59.3029 43.869 57.9582 46.4881 55.9829 48.4812H55.9816Z" fill="#F9FAFB"/>
<path d="M55.9812 48.4819L55.9802 48.481" stroke="#F9FAFB" stroke-width="0.0316553" stroke-miterlimit="10"/>
<path d="M24.6843 27.9158C24.6869 27.9518 24.6881 27.9884 24.6881 28.0244" stroke="#F9FAFB" stroke-width="0.0316553" stroke-miterlimit="10"/>
<path d="M24.6843 27.9158C24.6869 27.9518 24.6881 27.9884 24.6881 28.0244" stroke="#F9FAFB" stroke-width="0.0316553" stroke-miterlimit="10"/>
<path d="M10.8397 27.3206C13.3981 29.8492 14.9828 33.3604 14.9828 37.242C14.9828 38.5253 14.8093 39.768 14.4851 40.9482C14.3959 41.2748 14.2952 41.5952 14.1825 41.9111C13.652 43.4065 12.8726 44.7848 11.8945 45.9965C11.0999 46.9836 10.1724 47.8598 9.13919 48.598C7.15757 46.6385 5.76031 44.0896 5.2323 41.235C5.17342 40.9241 5.12657 40.6094 5.09048 40.291C5.0297 39.7617 4.99805 39.2229 4.99805 38.6766C4.99805 33.9948 7.30382 29.8504 10.841 27.3206H10.8397Z" fill="#F9FAFB"/>
<path d="M24.6869 28.0259C24.6869 28.0259 24.6825 28.0297 24.6799 28.0297" stroke="#F9FAFB" stroke-width="0.0316553" stroke-miterlimit="10"/>
<path d="M9.0733 7.01392L17.1258 15.0449L19.9235 17.8356C22.2514 19.8761 23.8962 22.6782 24.4704 25.8526C24.5914 26.5243 24.6654 27.2132 24.6851 27.9153C24.6851 27.9526 24.6838 27.9906 24.6813 28.028V28.0292C24.5122 32.3825 22.3533 36.2261 19.0871 38.6736L16.8998 40.8996L11.8938 45.9936C12.8719 44.7819 13.6513 43.4036 14.1818 41.9082C14.2945 41.5923 14.3952 41.2719 14.4845 40.9452C14.8086 39.7651 14.9821 38.5223 14.9821 37.239C14.9821 33.3581 13.3974 29.8462 10.839 27.3176C10.8815 27.2872 10.7953 27.3461 10.839 27.3176C7.37911 24.9283 5.24048 20.8479 5.24048 16.3269C5.24048 16.0369 5.24998 15.7482 5.2696 15.4627C5.28859 15.1538 5.31898 14.8486 5.36014 14.546C5.75203 11.6261 7.09675 9.00693 9.07204 7.01392H9.0733Z" fill="#F9FAFB"/>
<path d="M9.07007 7.01392L9.07101 7.01486" stroke="#F9FAFB" stroke-width="0.0316553" stroke-miterlimit="10"/>
<path d="M32.7888 35.7106C32.8248 35.7081 32.8615 35.7068 32.8975 35.7068" stroke="#F9FAFB" stroke-width="0.0316553" stroke-miterlimit="10"/>
<path d="M32.7888 35.7106C32.8248 35.7081 32.8615 35.7068 32.8975 35.7068" stroke="#F9FAFB" stroke-width="0.0316553" stroke-miterlimit="10"/>
<path d="M32.1951 49.5564C34.7237 46.998 38.2349 45.4133 42.1165 45.4133C43.3998 45.4133 44.6426 45.5868 45.8227 45.911C46.1494 46.0002 46.4697 46.1009 46.7856 46.2136C48.281 46.7441 49.6593 47.5235 50.8711 48.5016C51.8581 49.2962 52.7343 50.2237 53.4725 51.2569C51.513 53.2385 48.9641 54.6358 46.1095 55.1638C45.7986 55.2227 45.484 55.2695 45.1655 55.3056C44.6362 55.3664 44.0975 55.398 43.5511 55.398C38.8693 55.398 34.725 53.0923 32.1951 49.5551V49.5564Z" fill="#F9FAFB"/>
<path d="M32.8999 35.7068C32.8999 35.7068 32.9037 35.7112 32.9037 35.7137" stroke="#F9FAFB" stroke-width="0.0316553" stroke-miterlimit="10"/>
<path d="M11.8887 51.3205L19.9196 43.268L22.7103 40.4703C24.7509 38.1424 27.553 36.4976 30.7274 35.9234C31.3991 35.8024 32.0879 35.7284 32.79 35.7087C32.8274 35.7087 32.8654 35.71 32.9027 35.7125H32.904C37.2572 35.8816 41.1008 38.0405 43.5484 41.3067L45.7744 43.494L50.8684 48.5C49.6566 47.5219 48.2783 46.7425 46.7829 46.212C46.467 46.0993 46.1467 45.9986 45.82 45.9093C44.6399 45.5852 43.3971 45.4117 42.1138 45.4117C38.2328 45.4117 34.721 46.9964 32.1924 49.5548C32.2209 49.5985 32.162 49.5123 32.1924 49.5548C29.803 53.0147 25.7227 55.1533 21.2017 55.1533C20.9117 55.1533 20.623 55.1438 20.3375 55.1242C20.0285 55.1052 19.7234 55.0748 19.4207 55.0337C16.5008 54.6418 13.8817 53.2971 11.8887 51.3218V51.3205Z" fill="#F9FAFB"/>
<path d="M11.8882 51.3222L11.8891 51.3213" stroke="#F9FAFB" stroke-width="0.0316553" stroke-miterlimit="10"/>
</g>
<defs>
<clipPath id="clip0_486_39432">
<rect width="63.3106" height="55.2296" fill="white" transform="translate(0.637207 0.17041)"/>
</clipPath>
</defs>
</svg>
