<svg width="65" height="56" viewBox="0 0 65 56" fill="none" xmlns="http://www.w3.org/2000/svg">
<g clip-path="url(#clip0_486_39492)">
<path d="M32.5086 20.0862C32.4726 20.0887 32.4359 20.09 32.3999 20.09" stroke="#F9FAFB" stroke-width="0.0316553" stroke-miterlimit="10"/>
<path d="M32.5086 20.0862C32.4726 20.0887 32.4359 20.09 32.3999 20.09" stroke="#F9FAFB" stroke-width="0.0316553" stroke-miterlimit="10"/>
<path d="M33.1051 6.24157C30.5764 8.79995 27.0652 10.3846 23.1837 10.3846C21.9003 10.3846 20.6576 10.2111 19.4775 9.88699C19.1508 9.79773 18.8304 9.69706 18.5145 9.58437C17.0191 9.05383 15.6408 8.27447 14.4291 7.29633C13.4421 6.50178 12.5658 5.57428 11.8276 4.54105C13.7871 2.55943 16.336 1.16216 19.1907 0.634152C19.5015 0.575273 19.8162 0.528423 20.1346 0.492336C20.6639 0.431558 21.2027 0.399902 21.749 0.399902C26.4309 0.399902 30.5752 2.70567 33.1051 6.24284V6.24157Z" fill="#F9FAFB"/>
<path d="M32.4003 20.0912C32.4003 20.0912 32.3965 20.0868 32.3965 20.0842" stroke="#F9FAFB" stroke-width="0.0316553" stroke-miterlimit="10"/>
<path d="M53.4035 4.47414L45.3726 12.5266L42.5818 15.3243C40.5413 17.6522 37.7392 19.297 34.5648 19.8713C33.8931 19.9922 33.2043 20.0663 32.5022 20.0859C32.4648 20.0859 32.4268 20.0846 32.3895 20.0821H32.3882C28.035 19.9131 24.1914 17.7542 21.7438 14.488L19.5178 12.3006L14.4238 7.29462C15.6356 8.27277 17.0139 9.05212 18.5093 9.58267C18.8252 9.69536 19.1455 9.79602 19.4722 9.88529C20.6523 10.2094 21.8951 10.3829 23.1784 10.3829C27.0594 10.3829 30.5712 8.79825 33.0998 6.23987C33.1302 6.28229 33.0713 6.19618 33.0998 6.23987C35.4885 2.78121 39.5695 0.642578 44.0905 0.642578C44.3805 0.642578 44.6692 0.652075 44.9547 0.671701C45.2637 0.690694 45.5688 0.721083 45.8715 0.762235C48.7913 1.15413 51.4105 2.49884 53.4035 4.47414Z" fill="#F9FAFB"/>
<path d="M53.4087 4.47217L53.4077 4.47311" stroke="#F9FAFB" stroke-width="0.0316553" stroke-miterlimit="10"/>
<path d="M40.4432 27.8093C40.4407 27.7733 40.4395 27.7367 40.4395 27.7007" stroke="#F9FAFB" stroke-width="0.0316553" stroke-miterlimit="10"/>
<path d="M40.4432 27.8093C40.4407 27.7733 40.4395 27.7367 40.4395 27.7007" stroke="#F9FAFB" stroke-width="0.0316553" stroke-miterlimit="10"/>
<path d="M54.2871 28.4056C51.7287 25.877 50.144 22.3658 50.144 18.4842C50.144 17.2009 50.3175 15.9581 50.6417 14.778C50.7309 14.4513 50.8316 14.131 50.9443 13.815C51.4748 12.3196 52.2542 10.9414 53.2323 9.72961C54.0269 8.74259 54.9544 7.86638 55.9876 7.12817C57.9692 9.08764 59.3665 11.6365 59.8945 14.4912C59.9534 14.802 60.0002 15.1167 60.0363 15.4352C60.0971 15.9644 60.1288 16.5032 60.1288 17.0496C60.1288 21.7314 57.823 25.8757 54.2858 28.4056H54.2871Z" fill="#F9FAFB"/>
<path d="M40.4395 27.6986C40.4395 27.6986 40.4439 27.6948 40.4464 27.6948" stroke="#F9FAFB" stroke-width="0.0316553" stroke-miterlimit="10"/>
<path d="M56.0551 48.7102L48.0026 40.6792L45.205 37.8885C42.877 35.848 41.2322 33.0459 40.658 29.8715C40.5371 29.1997 40.463 28.5109 40.4434 27.8088C40.4434 27.7715 40.4446 27.7335 40.4472 27.6961V27.6948C40.6162 23.3416 42.7751 19.498 46.0413 17.0504L48.2287 14.8244L53.2346 9.73047C52.2565 10.9422 51.4771 12.3205 50.9466 13.8159C50.8339 14.1318 50.7332 14.4522 50.644 14.7789C50.3198 15.959 50.1463 17.2018 50.1463 18.4851C50.1463 22.366 51.731 25.8778 54.2894 28.4065C54.3331 28.378 54.247 28.4368 54.2894 28.4065C57.7493 30.7958 59.8879 34.8762 59.8879 39.3972C59.8879 39.6871 59.8784 39.9758 59.8588 40.2614C59.8398 40.5703 59.8094 40.8755 59.7683 41.1781C59.3764 44.098 58.0317 46.7172 56.0564 48.7102H56.0551Z" fill="#F9FAFB"/>
<path d="M56.0547 48.7111L56.0537 48.7102" stroke="#F9FAFB" stroke-width="0.0316553" stroke-miterlimit="10"/>
<path d="M24.7578 28.145C24.7603 28.181 24.7616 28.2177 24.7616 28.2537" stroke="#F9FAFB" stroke-width="0.0316553" stroke-miterlimit="10"/>
<path d="M24.7578 28.145C24.7603 28.181 24.7616 28.2177 24.7616 28.2537" stroke="#F9FAFB" stroke-width="0.0316553" stroke-miterlimit="10"/>
<path d="M10.913 27.5496C13.4713 30.0782 15.056 33.5894 15.056 37.471C15.056 38.7543 14.8825 39.9971 14.5584 41.1772C14.4691 41.5038 14.3685 41.8242 14.2558 42.1401C13.7252 43.6355 12.9459 45.0138 11.9677 46.2256C11.1732 47.2126 10.2457 48.0888 9.21243 48.827C7.23081 46.8675 5.83355 44.3186 5.30554 41.464C5.24666 41.1531 5.19981 40.8385 5.16372 40.52C5.10294 39.9907 5.07129 39.4519 5.07129 38.9056C5.07129 34.2238 7.37706 30.0795 10.9142 27.5496H10.913Z" fill="#F9FAFB"/>
<path d="M24.7608 28.2546C24.7608 28.2546 24.7564 28.2584 24.7539 28.2584" stroke="#F9FAFB" stroke-width="0.0316553" stroke-miterlimit="10"/>
<path d="M9.14679 7.24292L17.1993 15.2739L19.997 18.0646C22.3249 20.1051 23.9697 22.9072 24.5439 26.0816C24.6648 26.7533 24.7389 27.4422 24.7585 28.1443C24.7585 28.1816 24.7573 28.2196 24.7547 28.257V28.2582C24.5857 32.6115 22.4268 36.4551 19.1606 38.9026L16.9732 41.1286L11.9673 46.2226C12.9454 45.0109 13.7248 43.6326 14.2553 42.1372C14.368 41.8213 14.4687 41.5009 14.5579 41.1742C14.8821 39.9941 15.0556 38.7513 15.0556 37.468C15.0556 33.5871 13.4709 30.0753 10.9125 27.5466C10.9549 27.5162 10.8688 27.5751 10.9125 27.5466C7.4526 25.1573 5.31396 21.0769 5.31396 16.5559C5.31396 16.2659 5.32346 15.9772 5.34309 15.6917C5.36208 15.3828 5.39247 15.0776 5.43362 14.775C5.82551 11.8551 7.17023 9.23594 9.14552 7.24292H9.14679Z" fill="#F9FAFB"/>
<path d="M9.14355 7.24292L9.1445 7.24386" stroke="#F9FAFB" stroke-width="0.0316553" stroke-miterlimit="10"/>
<path d="M32.8618 35.941C32.8978 35.9385 32.9345 35.9373 32.9705 35.9373" stroke="#F9FAFB" stroke-width="0.0316553" stroke-miterlimit="10"/>
<path d="M32.8618 35.941C32.8978 35.9385 32.9345 35.9373 32.9705 35.9373" stroke="#F9FAFB" stroke-width="0.0316553" stroke-miterlimit="10"/>
<path d="M32.2686 49.7861C34.7972 47.2277 38.3084 45.6431 42.19 45.6431C43.4733 45.6431 44.716 45.8165 45.8962 46.1407C46.2228 46.23 46.5432 46.3306 46.8591 46.4433C48.3545 46.9739 49.7328 47.7532 50.9445 48.7314C51.9316 49.5259 52.8078 50.4534 53.546 51.4866C51.5865 53.4683 49.0376 54.8655 46.183 55.3935C45.8721 55.4524 45.5574 55.4993 45.239 55.5353C44.7097 55.5961 44.1709 55.6278 43.6246 55.6278C38.9428 55.6278 34.7984 53.322 32.2686 49.7848V49.7861Z" fill="#F9FAFB"/>
<path d="M32.9736 35.9373C32.9736 35.9373 32.9774 35.9417 32.9774 35.9442" stroke="#F9FAFB" stroke-width="0.0316553" stroke-miterlimit="10"/>
<path d="M11.9619 51.551L19.9929 43.4985L22.7836 40.7008C24.8241 38.3729 27.6262 36.7281 30.8006 36.1538C31.4723 36.0329 32.1612 35.9588 32.8633 35.9392C32.9006 35.9392 32.9386 35.9405 32.976 35.943H32.9772C37.3305 36.112 41.1741 38.2709 43.6216 41.5371L45.8476 43.7245L50.9416 48.7305C49.7298 47.7523 48.3516 46.973 46.8562 46.4424C46.5403 46.3297 46.2199 46.2291 45.8932 46.1398C44.7131 45.8157 43.4703 45.6422 42.187 45.6422C38.3061 45.6422 34.7942 47.2269 32.2656 49.7852C32.2941 49.8289 32.2352 49.7428 32.2656 49.7852C29.8763 53.2452 25.7959 55.3838 21.2749 55.3838C20.9849 55.3838 20.6962 55.3743 20.4107 55.3547C20.1018 55.3357 19.7966 55.3053 19.494 55.2641C16.5741 54.8722 13.9549 53.5275 11.9619 51.5522V51.551Z" fill="#F9FAFB"/>
<path d="M11.9619 51.5517L11.9629 51.5508" stroke="#F9FAFB" stroke-width="0.0316553" stroke-miterlimit="10"/>
</g>
<defs>
<clipPath id="clip0_486_39492">
<rect width="63.3106" height="55.2296" fill="white" transform="translate(0.710938 0.399902)"/>
</clipPath>
</defs>
</svg>
