<svg width="64" height="57" viewBox="0 0 64 57" fill="none" xmlns="http://www.w3.org/2000/svg">
<g clip-path="url(#clip0_486_39102)">
<path d="M32.1265 20.6267C32.0905 20.6292 32.0538 20.6305 32.0178 20.6305" stroke="#F9FAFB" stroke-width="0.0316553" stroke-miterlimit="10"/>
<path d="M32.1265 20.6267C32.0905 20.6292 32.0538 20.6305 32.0178 20.6305" stroke="#F9FAFB" stroke-width="0.0316553" stroke-miterlimit="10"/>
<path d="M32.723 6.78185C30.1944 9.34024 26.6831 10.9249 22.8016 10.9249C21.5183 10.9249 20.2755 10.7514 19.0954 10.4273C18.7687 10.338 18.4483 10.2373 18.1324 10.1247C16.637 9.59411 15.2588 8.81476 14.047 7.83661C13.06 7.04206 12.1838 6.11456 11.4456 5.08133C13.405 3.09971 15.9539 1.70245 18.8086 1.17443C19.1194 1.11556 19.4341 1.06871 19.7525 1.03262C20.2818 0.971841 20.8206 0.940186 21.367 0.940186C26.0488 0.940186 30.1931 3.24596 32.723 6.78312V6.78185Z" fill="#F9FAFB"/>
<path d="M32.0177 20.6317C32.0177 20.6317 32.0139 20.6273 32.0139 20.6248" stroke="#F9FAFB" stroke-width="0.0316553" stroke-miterlimit="10"/>
<path d="M53.0214 5.01466L44.9905 13.0671L42.1998 15.8648C40.1593 18.1928 37.3571 19.8376 34.1827 20.4118C33.511 20.5327 32.8222 20.6068 32.1201 20.6264C32.0827 20.6264 32.0447 20.6252 32.0074 20.6226H32.0061C27.6529 20.4536 23.8093 18.2947 21.3617 15.0285L19.1357 12.8411L14.0417 7.83515C15.2535 8.8133 16.6318 9.59265 18.1272 10.1232C18.4431 10.2359 18.7635 10.3366 19.0901 10.4258C20.2702 10.75 21.513 10.9234 22.7963 10.9234C26.6773 10.9234 30.1891 9.33878 32.7177 6.78039C32.7481 6.82281 32.6892 6.73671 32.7177 6.78039C35.1064 3.32174 39.1874 1.18311 43.7085 1.18311C43.9984 1.18311 44.2871 1.1926 44.5726 1.21223C44.8816 1.23122 45.1868 1.26161 45.4894 1.30276C48.4093 1.69466 51.0284 3.03937 53.0214 5.01466Z" fill="#F9FAFB"/>
<path d="M53.0266 5.0127L53.0256 5.01364" stroke="#F9FAFB" stroke-width="0.0316553" stroke-miterlimit="10"/>
<path d="M40.0621 28.3506C40.0596 28.3146 40.0583 28.278 40.0583 28.2419" stroke="#F9FAFB" stroke-width="0.0316553" stroke-miterlimit="10"/>
<path d="M40.0621 28.3506C40.0596 28.3146 40.0583 28.278 40.0583 28.2419" stroke="#F9FAFB" stroke-width="0.0316553" stroke-miterlimit="10"/>
<path d="M53.9057 28.9471C51.3474 26.4185 49.7627 22.9073 49.7627 19.0257C49.7627 17.7424 49.9362 16.4996 50.2603 15.3195C50.3496 14.9928 50.4502 14.6725 50.5629 14.3565C51.0935 12.8611 51.8728 11.4829 52.851 10.2711C53.6455 9.2841 54.573 8.40788 55.6063 7.66968C57.5879 9.62914 58.9852 12.178 59.5132 15.0327C59.572 15.3436 59.6189 15.6582 59.655 15.9767C59.7158 16.5059 59.7474 17.0447 59.7474 17.5911C59.7474 22.2729 57.4416 26.4172 53.9045 28.9471H53.9057Z" fill="#F9FAFB"/>
<path d="M40.0583 28.2399C40.0583 28.2399 40.0628 28.2361 40.0653 28.2361" stroke="#F9FAFB" stroke-width="0.0316553" stroke-miterlimit="10"/>
<path d="M55.674 49.2512L47.6215 41.2202L44.8238 38.4295C42.4959 36.389 40.8511 33.5869 40.2769 30.4125C40.156 29.7408 40.0819 29.0519 40.0623 28.3498C40.0623 28.3125 40.0635 28.2745 40.0661 28.2371V28.2359C40.2351 23.8826 42.394 20.039 45.6602 17.5915L47.8476 15.3655L52.8535 10.2715C51.8754 11.4832 51.096 12.8615 50.5655 14.3569C50.4528 14.6728 50.3521 14.9932 50.2629 15.3199C49.9387 16.5 49.7652 17.7428 49.7652 19.0261C49.7652 22.907 51.3499 26.4189 53.9083 28.9475C53.952 28.919 53.8659 28.9779 53.9083 28.9475C57.3682 31.3368 59.5068 35.4172 59.5068 39.9382C59.5068 40.2282 59.4973 40.5169 59.4777 40.8024C59.4587 41.1113 59.4283 41.4165 59.3872 41.7191C58.9953 44.639 57.6506 47.2582 55.6753 49.2512H55.674Z" fill="#F9FAFB"/>
<path d="M55.6733 49.2522L55.6724 49.2512" stroke="#F9FAFB" stroke-width="0.0316553" stroke-miterlimit="10"/>
<path d="M24.376 28.6863C24.3785 28.7223 24.3798 28.7589 24.3798 28.7949" stroke="#F9FAFB" stroke-width="0.0316553" stroke-miterlimit="10"/>
<path d="M24.376 28.6863C24.3785 28.7223 24.3798 28.7589 24.3798 28.7949" stroke="#F9FAFB" stroke-width="0.0316553" stroke-miterlimit="10"/>
<path d="M10.5314 28.0908C13.0897 30.6194 14.6744 34.1306 14.6744 38.0122C14.6744 39.2955 14.5009 40.5383 14.1768 41.7184C14.0875 42.0451 13.9869 42.3655 13.8742 42.6814C13.3436 44.1768 12.5643 45.555 11.5861 46.7668C10.7916 47.7538 9.86407 48.63 8.83084 49.3682C6.84922 47.4088 5.45196 44.8599 4.92395 42.0052C4.86507 41.6944 4.81822 41.3797 4.78213 41.0613C4.72135 40.532 4.6897 39.9932 4.6897 39.4468C4.6897 34.765 6.99547 30.6207 10.5326 28.0908H10.5314Z" fill="#F9FAFB"/>
<path d="M24.379 28.7959C24.379 28.7959 24.3746 28.7997 24.3721 28.7997" stroke="#F9FAFB" stroke-width="0.0316553" stroke-miterlimit="10"/>
<path d="M8.7652 7.78418L16.8177 15.8151L19.6154 18.6059C21.9433 20.6464 23.5881 23.4485 24.1623 26.6229C24.2833 27.2946 24.3573 27.9834 24.377 28.6855C24.377 28.7229 24.3757 28.7609 24.3732 28.7982V28.7995C24.2041 33.1527 22.0452 36.9963 18.779 39.4439L16.5917 41.6699L11.5857 46.7639C12.5638 45.5521 13.3432 44.1738 13.8737 42.6784C13.9864 42.3625 14.0871 42.0422 14.1764 41.7155C14.5005 40.5354 14.674 39.2926 14.674 38.0093C14.674 34.1283 13.0893 30.6165 10.5309 28.0879C10.5733 28.0575 10.4872 28.1164 10.5309 28.0879C7.071 25.6985 4.93237 21.6182 4.93237 17.0972C4.93237 16.8072 4.94187 16.5185 4.9615 16.233C4.98049 15.924 5.01088 15.6189 5.05203 15.3162C5.44392 12.3964 6.78864 9.7772 8.76393 7.78418H8.7652Z" fill="#F9FAFB"/>
<path d="M8.76172 7.78418L8.76266 7.78512" stroke="#F9FAFB" stroke-width="0.0316553" stroke-miterlimit="10"/>
<path d="M32.4805 36.4808C32.5165 36.4783 32.5531 36.4771 32.5891 36.4771" stroke="#F9FAFB" stroke-width="0.0316553" stroke-miterlimit="10"/>
<path d="M32.4805 36.4808C32.5165 36.4783 32.5531 36.4771 32.5891 36.4771" stroke="#F9FAFB" stroke-width="0.0316553" stroke-miterlimit="10"/>
<path d="M31.8872 50.3264C34.4158 47.768 37.927 46.1833 41.8086 46.1833C43.0919 46.1833 44.3347 46.3568 45.5148 46.681C45.8415 46.7702 46.1618 46.8709 46.4778 46.9836C47.9732 47.5141 49.3514 48.2935 50.5632 49.2716C51.5502 50.0662 52.4264 50.9937 53.1646 52.0269C51.2052 54.0085 48.6563 55.4058 45.8016 55.9338C45.4908 55.9927 45.1761 56.0395 44.8576 56.0756C44.3284 56.1364 43.7896 56.1681 43.2432 56.1681C38.5614 56.1681 34.4171 53.8623 31.8872 50.3251V50.3264Z" fill="#F9FAFB"/>
<path d="M32.5923 36.4771C32.5923 36.4771 32.5961 36.4815 32.5961 36.484" stroke="#F9FAFB" stroke-width="0.0316553" stroke-miterlimit="10"/>
<path d="M11.5803 52.091L19.6113 44.0385L22.402 41.2408C24.4425 38.9129 27.2446 37.2681 30.419 36.6939C31.0907 36.5729 31.7796 36.4989 32.4817 36.4792C32.519 36.4792 32.557 36.4805 32.5944 36.483H32.5956C36.9489 36.6521 40.7925 38.811 43.24 42.0772L45.466 44.2645L50.56 49.2705C49.3482 48.2924 47.97 47.513 46.4746 46.9825C46.1587 46.8698 45.8383 46.7691 45.5116 46.6799C44.3315 46.3557 43.0887 46.1822 41.8054 46.1822C37.9245 46.1822 34.4127 47.7669 31.884 50.3253C31.9125 50.369 31.8536 50.2829 31.884 50.3253C29.4947 53.7852 25.4143 55.9238 20.8933 55.9238C20.6033 55.9238 20.3147 55.9143 20.0291 55.8947C19.7202 55.8757 19.415 55.8453 19.1124 55.8042C16.1925 55.4123 13.5733 54.0676 11.5803 52.0923V52.091Z" fill="#F9FAFB"/>
<path d="M11.5806 52.0923L11.5815 52.0913" stroke="#F9FAFB" stroke-width="0.0316553" stroke-miterlimit="10"/>
</g>
<defs>
<clipPath id="clip0_486_39102">
<rect width="63.3106" height="55.2296" fill="white" transform="translate(0.329834 0.940674)"/>
</clipPath>
</defs>
</svg>
