<svg width="65" height="56" viewBox="0 0 65 56" fill="none" xmlns="http://www.w3.org/2000/svg">
<g clip-path="url(#clip0_486_39132)">
<path d="M32.5086 19.8562C32.4726 19.8587 32.4359 19.86 32.3999 19.86" stroke="#F9FAFB" stroke-width="0.0316553" stroke-miterlimit="10"/>
<path d="M32.5086 19.8562C32.4726 19.8587 32.4359 19.86 32.3999 19.86" stroke="#F9FAFB" stroke-width="0.0316553" stroke-miterlimit="10"/>
<path d="M33.1051 6.01183C30.5764 8.57022 27.0652 10.1549 23.1837 10.1549C21.9003 10.1549 20.6576 9.98141 19.4775 9.65726C19.1508 9.56799 18.8304 9.46733 18.5145 9.35463C17.0191 8.82409 15.6408 8.04474 14.4291 7.06659C13.4421 6.27204 12.5658 5.34454 11.8276 4.31131C13.7871 2.32969 16.336 0.932426 19.1907 0.404415C19.5015 0.345536 19.8162 0.298687 20.1346 0.262599C20.6639 0.201821 21.2027 0.170166 21.749 0.170166C26.4309 0.170166 30.5752 2.47594 33.1051 6.0131V6.01183Z" fill="#F9FAFB"/>
<path d="M32.3998 19.8614C32.3998 19.8614 32.396 19.857 32.396 19.8545" stroke="#F9FAFB" stroke-width="0.0316553" stroke-miterlimit="10"/>
<path d="M53.404 4.2444L45.3731 12.2969L42.5823 15.0946C40.5418 17.4225 37.7397 19.0673 34.5653 19.6415C33.8936 19.7625 33.2048 19.8365 32.5027 19.8562C32.4653 19.8562 32.4273 19.8549 32.39 19.8524H32.3887C28.0355 19.6833 24.1919 17.5244 21.7443 14.2582L19.5183 12.0709L14.4243 7.06489C15.6361 8.04303 17.0144 8.82239 18.5097 9.35293C18.8257 9.46562 19.146 9.56629 19.4727 9.65556C20.6528 9.97971 21.8956 10.1532 23.1789 10.1532C27.0598 10.1532 30.5717 8.56851 33.1003 6.01013C33.1307 6.05255 33.0718 5.96645 33.1003 6.01013C35.489 2.55147 39.57 0.412842 44.091 0.412842C44.381 0.412842 44.6697 0.422338 44.9552 0.441965C45.2642 0.460958 45.5693 0.491347 45.872 0.532499C48.7918 0.924391 51.411 2.26911 53.404 4.2444Z" fill="#F9FAFB"/>
<path d="M53.4087 4.24219L53.4077 4.24313" stroke="#F9FAFB" stroke-width="0.0316553" stroke-miterlimit="10"/>
<path d="M40.4437 27.5798C40.4412 27.5438 40.4399 27.5072 40.4399 27.4712" stroke="#F9FAFB" stroke-width="0.0316553" stroke-miterlimit="10"/>
<path d="M40.4437 27.5798C40.4412 27.5438 40.4399 27.5072 40.4399 27.4712" stroke="#F9FAFB" stroke-width="0.0316553" stroke-miterlimit="10"/>
<path d="M54.2876 28.1761C51.7292 25.6475 50.1445 22.1363 50.1445 18.2547C50.1445 16.9714 50.318 15.7286 50.6422 14.5485C50.7314 14.2218 50.8321 13.9015 50.9448 13.5855C51.4753 12.0901 52.2547 10.7119 53.2328 9.50011C54.0274 8.5131 54.9549 7.63688 55.9881 6.89868C57.9697 8.85814 59.367 11.407 59.895 14.2617C59.9539 14.5726 60.0007 14.8872 60.0368 15.2057C60.0976 15.7349 60.1292 16.2737 60.1292 16.8201C60.1292 21.5019 57.8235 25.6462 54.2863 28.1761H54.2876Z" fill="#F9FAFB"/>
<path d="M40.4399 27.4691C40.4399 27.4691 40.4444 27.4653 40.4469 27.4653" stroke="#F9FAFB" stroke-width="0.0316553" stroke-miterlimit="10"/>
<path d="M56.0556 48.4807L48.0031 40.4497L45.2054 37.659C42.8775 35.6185 41.2327 32.8164 40.6585 29.642C40.5375 28.9703 40.4635 28.2814 40.4438 27.5793C40.4438 27.542 40.4451 27.504 40.4476 27.4666V27.4654C40.6167 23.1121 42.7756 19.2685 46.0418 16.8209L48.2291 14.5949L53.2351 9.50098C52.257 10.7127 51.4776 12.091 50.9471 13.5864C50.8344 13.9023 50.7337 14.2227 50.6445 14.5494C50.3203 15.7295 50.1468 16.9723 50.1468 18.2556C50.1468 22.1365 51.7315 25.6483 54.2899 28.177C54.3336 28.1485 54.2475 28.2074 54.2899 28.177C57.7498 30.5663 59.8884 34.6467 59.8884 39.1677C59.8884 39.4576 59.8789 39.7463 59.8593 40.0319C59.8403 40.3408 59.8099 40.646 59.7688 40.9486C59.3769 43.8685 58.0322 46.4877 56.0569 48.4807H56.0556Z" fill="#F9FAFB"/>
<path d="M56.0551 48.4817L56.0542 48.4807" stroke="#F9FAFB" stroke-width="0.0316553" stroke-miterlimit="10"/>
<path d="M24.7578 27.916C24.7603 27.952 24.7616 27.9887 24.7616 28.0247" stroke="#F9FAFB" stroke-width="0.0316553" stroke-miterlimit="10"/>
<path d="M24.7578 27.916C24.7603 27.952 24.7616 27.9887 24.7616 28.0247" stroke="#F9FAFB" stroke-width="0.0316553" stroke-miterlimit="10"/>
<path d="M10.913 27.321C13.4713 29.8497 15.056 33.3609 15.056 37.2424C15.056 38.5258 14.8825 39.7685 14.5584 40.9486C14.4691 41.2753 14.3685 41.5957 14.2558 41.9116C13.7252 43.407 12.9459 44.7853 11.9677 45.997C11.1732 46.984 10.2457 47.8603 9.21243 48.5985C7.23081 46.639 5.83355 44.0901 5.30554 41.2354C5.24666 40.9246 5.19981 40.6099 5.16372 40.2915C5.10294 39.7622 5.07129 39.2234 5.07129 38.6771C5.07129 33.9952 7.37706 29.8509 10.9142 27.321H10.913Z" fill="#F9FAFB"/>
<path d="M24.7608 28.0261C24.7608 28.0261 24.7564 28.0299 24.7539 28.0299" stroke="#F9FAFB" stroke-width="0.0316553" stroke-miterlimit="10"/>
<path d="M9.14679 7.01416L17.1993 15.0451L19.997 17.8358C22.3249 19.8763 23.9697 22.6785 24.5439 25.8529C24.6648 26.5246 24.7389 27.2134 24.7585 27.9155C24.7585 27.9529 24.7573 27.9909 24.7547 28.0282V28.0295C24.5857 32.3827 22.4268 36.2263 19.1606 38.6739L16.9732 40.8999L11.9673 45.9939C12.9454 44.7821 13.7248 43.4038 14.2553 41.9084C14.368 41.5925 14.4687 41.2722 14.5579 40.9455C14.8821 39.7654 15.0556 38.5226 15.0556 37.2393C15.0556 33.3583 13.4709 29.8465 10.9125 27.3179C10.9549 27.2875 10.8688 27.3464 10.9125 27.3179C7.4526 24.9285 5.31396 20.8482 5.31396 16.3271C5.31396 16.0372 5.32346 15.7485 5.34309 15.463C5.36208 15.154 5.39247 14.8488 5.43362 14.5462C5.82551 11.6263 7.17023 9.00718 9.14552 7.01416H9.14679Z" fill="#F9FAFB"/>
<path d="M9.14307 7.01416L9.14401 7.0151" stroke="#F9FAFB" stroke-width="0.0316553" stroke-miterlimit="10"/>
<path d="M32.8618 35.7108C32.8978 35.7083 32.9345 35.707 32.9705 35.707" stroke="#F9FAFB" stroke-width="0.0316553" stroke-miterlimit="10"/>
<path d="M32.8618 35.7108C32.8978 35.7083 32.9345 35.707 32.9705 35.707" stroke="#F9FAFB" stroke-width="0.0316553" stroke-miterlimit="10"/>
<path d="M32.2686 49.5564C34.7972 46.998 38.3084 45.4133 42.19 45.4133C43.4733 45.4133 44.716 45.5868 45.8962 45.911C46.2228 46.0002 46.5432 46.1009 46.8591 46.2136C48.3545 46.7441 49.7328 47.5235 50.9445 48.5016C51.9316 49.2962 52.8078 50.2237 53.546 51.2569C51.5865 53.2385 49.0376 54.6358 46.183 55.1638C45.8721 55.2227 45.5574 55.2695 45.239 55.3056C44.7097 55.3664 44.1709 55.398 43.6246 55.398C38.9428 55.398 34.7984 53.0923 32.2686 49.5551V49.5564Z" fill="#F9FAFB"/>
<path d="M32.9736 35.707C32.9736 35.707 32.9774 35.7114 32.9774 35.714" stroke="#F9FAFB" stroke-width="0.0316553" stroke-miterlimit="10"/>
<path d="M11.9619 51.3205L19.9929 43.268L22.7836 40.4703C24.8241 38.1424 27.6262 36.4976 30.8006 35.9234C31.4723 35.8024 32.1612 35.7284 32.8633 35.7087C32.9006 35.7087 32.9386 35.71 32.976 35.7125H32.9772C37.3305 35.8816 41.1741 38.0405 43.6216 41.3067L45.8476 43.494L50.9416 48.5C49.7298 47.5219 48.3516 46.7425 46.8562 46.212C46.5403 46.0993 46.2199 45.9986 45.8932 45.9093C44.7131 45.5852 43.4703 45.4117 42.187 45.4117C38.3061 45.4117 34.7942 46.9964 32.2656 49.5548C32.2941 49.5985 32.2352 49.5123 32.2656 49.5548C29.8763 53.0147 25.7959 55.1533 21.2749 55.1533C20.9849 55.1533 20.6962 55.1438 20.4107 55.1242C20.1018 55.1052 19.7966 55.0748 19.494 55.0337C16.5741 54.6418 13.9549 53.2971 11.9619 51.3218V51.3205Z" fill="#F9FAFB"/>
<path d="M11.9619 51.3222L11.9629 51.3213" stroke="#F9FAFB" stroke-width="0.0316553" stroke-miterlimit="10"/>
</g>
<defs>
<clipPath id="clip0_486_39132">
<rect width="63.3106" height="55.2296" fill="white" transform="translate(0.710938 0.17041)"/>
</clipPath>
</defs>
</svg>
