<svg width="65" height="57" viewBox="0 0 65 57" fill="none" xmlns="http://www.w3.org/2000/svg">
<g clip-path="url(#clip0_486_38772)">
<path d="M32.5086 20.6272C32.4726 20.6297 32.4359 20.631 32.3999 20.631" stroke="#F9FAFB" stroke-width="0.0316553" stroke-miterlimit="10"/>
<path d="M32.5086 20.6272C32.4726 20.6297 32.4359 20.631 32.3999 20.631" stroke="#F9FAFB" stroke-width="0.0316553" stroke-miterlimit="10"/>
<path d="M33.1051 6.78234C30.5764 9.34072 27.0652 10.9254 23.1837 10.9254C21.9003 10.9254 20.6576 10.7519 19.4775 10.4278C19.1508 10.3385 18.8304 10.2378 18.5145 10.1251C17.0191 9.5946 15.6408 8.81525 14.4291 7.8371C13.4421 7.04255 12.5658 6.11505 11.8276 5.08182C13.7871 3.1002 16.336 1.70293 19.1907 1.17492C19.5015 1.11604 19.8162 1.06919 20.1346 1.03311C20.6639 0.972329 21.2027 0.940674 21.749 0.940674C26.4309 0.940674 30.5752 3.24645 33.1051 6.78361V6.78234Z" fill="#F9FAFB"/>
<path d="M32.3998 20.6322C32.3998 20.6322 32.396 20.6278 32.396 20.6252" stroke="#F9FAFB" stroke-width="0.0316553" stroke-miterlimit="10"/>
<path d="M53.404 5.01539L45.3731 13.0679L42.5823 15.8656C40.5418 18.1935 37.7397 19.8383 34.5653 20.4125C33.8936 20.5335 33.2048 20.6075 32.5027 20.6272C32.4653 20.6272 32.4273 20.6259 32.39 20.6234H32.3887C28.0355 20.4543 24.1919 18.2954 21.7443 15.0292L19.5183 12.8419L14.4243 7.83588C15.6361 8.81403 17.0144 9.59338 18.5097 10.1239C18.8257 10.2366 19.146 10.3373 19.4727 10.4266C20.6528 10.7507 21.8956 10.9242 23.1789 10.9242C27.0598 10.9242 30.5717 9.33951 33.1003 6.78113C33.1307 6.82355 33.0718 6.73744 33.1003 6.78113C35.489 3.32247 39.57 1.18384 44.091 1.18384C44.381 1.18384 44.6697 1.19333 44.9552 1.21296C45.2642 1.23195 45.5693 1.26234 45.872 1.30349C48.7918 1.69539 51.411 3.0401 53.404 5.01539Z" fill="#F9FAFB"/>
<path d="M53.4087 5.01318L53.4077 5.01412" stroke="#F9FAFB" stroke-width="0.0316553" stroke-miterlimit="10"/>
<path d="M40.4432 28.3504C40.4407 28.3143 40.4395 28.2777 40.4395 28.2417" stroke="#F9FAFB" stroke-width="0.0316553" stroke-miterlimit="10"/>
<path d="M40.4432 28.3504C40.4407 28.3143 40.4395 28.2777 40.4395 28.2417" stroke="#F9FAFB" stroke-width="0.0316553" stroke-miterlimit="10"/>
<path d="M54.2876 28.9469C51.7292 26.4182 50.1445 22.907 50.1445 19.0255C50.1445 17.7421 50.318 16.4994 50.6422 15.3193C50.7314 14.9926 50.8321 14.6722 50.9448 14.3563C51.4753 12.8609 52.2547 11.4826 53.2328 10.2709C54.0274 9.28385 54.9549 8.40763 55.9881 7.66943C57.9697 9.6289 59.367 12.1778 59.895 15.0325C59.9539 15.3433 60.0007 15.658 60.0368 15.9764C60.0976 16.5057 60.1292 17.0445 60.1292 17.5908C60.1292 22.2727 57.8235 26.417 54.2863 28.9469H54.2876Z" fill="#F9FAFB"/>
<path d="M40.4395 28.2396C40.4395 28.2396 40.4439 28.2358 40.4464 28.2358" stroke="#F9FAFB" stroke-width="0.0316553" stroke-miterlimit="10"/>
<path d="M56.0551 49.2509L48.0026 41.22L45.205 38.4293C42.877 36.3888 41.2322 33.5866 40.658 30.4122C40.5371 29.7405 40.463 29.0517 40.4434 28.3496C40.4434 28.3122 40.4446 28.2742 40.4472 28.2369V28.2356C40.6162 23.8824 42.7751 20.0388 46.0413 17.5912L48.2287 15.3652L53.2346 10.2712C52.2565 11.483 51.4771 12.8613 50.9466 14.3567C50.8339 14.6726 50.7332 14.9929 50.644 15.3196C50.3198 16.4997 50.1463 17.7425 50.1463 19.0258C50.1463 22.9068 51.731 26.4186 54.2894 28.9472C54.3331 28.9187 54.247 28.9776 54.2894 28.9472C57.7493 31.3366 59.8879 35.4169 59.8879 39.9379C59.8879 40.2279 59.8784 40.5166 59.8588 40.8021C59.8398 41.1111 59.8094 41.4163 59.7683 41.7189C59.3764 44.6388 58.0317 47.2579 56.0564 49.2509H56.0551Z" fill="#F9FAFB"/>
<path d="M56.0547 49.2519L56.0537 49.251" stroke="#F9FAFB" stroke-width="0.0316553" stroke-miterlimit="10"/>
<path d="M24.7578 28.6858C24.7603 28.7218 24.7616 28.7584 24.7616 28.7944" stroke="#F9FAFB" stroke-width="0.0316553" stroke-miterlimit="10"/>
<path d="M24.7578 28.6858C24.7603 28.7218 24.7616 28.7584 24.7616 28.7944" stroke="#F9FAFB" stroke-width="0.0316553" stroke-miterlimit="10"/>
<path d="M10.913 28.0906C13.4713 30.6192 15.056 34.1304 15.056 38.012C15.056 39.2953 14.8825 40.5381 14.5584 41.7182C14.4691 42.0449 14.3685 42.3652 14.2558 42.6811C13.7252 44.1765 12.9459 45.5548 11.9677 46.7666C11.1732 47.7536 10.2457 48.6298 9.21243 49.368C7.23081 47.4085 5.83355 44.8597 5.30554 42.005C5.24666 41.6941 5.19981 41.3795 5.16372 41.061C5.10294 40.5317 5.07129 39.993 5.07129 39.4466C5.07129 34.7648 7.37706 30.6205 10.9142 28.0906H10.913Z" fill="#F9FAFB"/>
<path d="M24.7608 28.7957C24.7608 28.7957 24.7564 28.7994 24.7539 28.7994" stroke="#F9FAFB" stroke-width="0.0316553" stroke-miterlimit="10"/>
<path d="M9.14679 7.78394L17.1993 15.8149L19.997 18.6056C22.3249 20.6461 23.9697 23.4482 24.5439 26.6226C24.6648 27.2944 24.7389 27.9832 24.7585 28.6853C24.7585 28.7226 24.7573 28.7606 24.7547 28.798V28.7993C24.5857 33.1525 22.4268 36.9961 19.1606 39.4437L16.9732 41.6697L11.9673 46.7636C12.9454 45.5519 13.7248 44.1736 14.2553 42.6782C14.368 42.3623 14.4687 42.0419 14.5579 41.7152C14.8821 40.5351 15.0556 39.2923 15.0556 38.009C15.0556 34.1281 13.4709 30.6163 10.9125 28.0876C10.9549 28.0573 10.8688 28.1161 10.9125 28.0876C7.4526 25.6983 5.31396 21.6179 5.31396 17.0969C5.31396 16.807 5.32346 16.5183 5.34309 16.2327C5.36208 15.9238 5.39247 15.6186 5.43362 15.316C5.82551 12.3961 7.17023 9.77695 9.14552 7.78394H9.14679Z" fill="#F9FAFB"/>
<path d="M9.14355 7.78394L9.1445 7.78488" stroke="#F9FAFB" stroke-width="0.0316553" stroke-miterlimit="10"/>
<path d="M32.8618 36.4813C32.8978 36.4788 32.9345 36.4775 32.9705 36.4775" stroke="#F9FAFB" stroke-width="0.0316553" stroke-miterlimit="10"/>
<path d="M32.8618 36.4813C32.8978 36.4788 32.9345 36.4775 32.9705 36.4775" stroke="#F9FAFB" stroke-width="0.0316553" stroke-miterlimit="10"/>
<path d="M32.2686 50.3266C34.7972 47.7683 38.3084 46.1836 42.19 46.1836C43.4733 46.1836 44.716 46.3571 45.8962 46.6812C46.2228 46.7705 46.5432 46.8711 46.8591 46.9838C48.3545 47.5144 49.7328 48.2937 50.9445 49.2719C51.9316 50.0664 52.8078 50.9939 53.546 52.0272C51.5865 54.0088 49.0376 55.406 46.183 55.9341C45.8721 55.9929 45.5574 56.0398 45.239 56.0759C44.7097 56.1367 44.1709 56.1683 43.6246 56.1683C38.9428 56.1683 34.7984 53.8625 32.2686 50.3254V50.3266Z" fill="#F9FAFB"/>
<path d="M32.9736 36.4775C32.9736 36.4775 32.9774 36.482 32.9774 36.4845" stroke="#F9FAFB" stroke-width="0.0316553" stroke-miterlimit="10"/>
<path d="M11.9619 52.0917L19.9929 44.0393L22.7836 41.2416C24.8241 38.9136 27.6262 37.2688 30.8006 36.6946C31.4723 36.5737 32.1612 36.4996 32.8633 36.48C32.9006 36.48 32.9386 36.4812 32.976 36.4838H32.9772C37.3305 36.6528 41.1741 38.8117 43.6216 42.0779L45.8476 44.2653L50.9416 49.2713C49.7298 48.2931 48.3516 47.5137 46.8562 46.9832C46.5403 46.8705 46.2199 46.7699 45.8932 46.6806C44.7131 46.3564 43.4703 46.183 42.187 46.183C38.3061 46.183 34.7942 47.7676 32.2656 50.326C32.2941 50.3697 32.2352 50.2836 32.2656 50.326C29.8763 53.7859 25.7959 55.9246 21.2749 55.9246C20.9849 55.9246 20.6962 55.9151 20.4107 55.8954C20.1018 55.8764 19.7966 55.8461 19.494 55.8049C16.5741 55.413 13.9549 54.0683 11.9619 52.093V52.0917Z" fill="#F9FAFB"/>
<path d="M11.9619 52.0927L11.9629 52.0918" stroke="#F9FAFB" stroke-width="0.0316553" stroke-miterlimit="10"/>
</g>
<defs>
<clipPath id="clip0_486_38772">
<rect width="63.3106" height="55.2296" fill="white" transform="translate(0.710938 0.940674)"/>
</clipPath>
</defs>
</svg>
