<svg width="65" height="57" viewBox="0 0 65 57" fill="none" xmlns="http://www.w3.org/2000/svg">
<g clip-path="url(#clip0_486_38952)">
<path d="M32.6646 20.6267C32.6286 20.6292 32.5919 20.6305 32.5559 20.6305" stroke="#F9FAFB" stroke-width="0.0316553" stroke-miterlimit="10"/>
<path d="M32.6646 20.6267C32.6286 20.6292 32.5919 20.6305 32.5559 20.6305" stroke="#F9FAFB" stroke-width="0.0316553" stroke-miterlimit="10"/>
<path d="M33.2608 6.78185C30.7322 9.34024 27.221 10.9249 23.3394 10.9249C22.0561 10.9249 20.8133 10.7514 19.6332 10.4273C19.3065 10.338 18.9862 10.2373 18.6703 10.1247C17.1749 9.59411 15.7966 8.81476 14.5848 7.83661C13.5978 7.04206 12.7216 6.11456 11.9834 5.08133C13.9429 3.09971 16.4917 1.70245 19.3464 1.17443C19.6573 1.11556 19.9719 1.06871 20.2904 1.03262C20.8197 0.971841 21.3584 0.940186 21.9048 0.940186C26.5866 0.940186 30.7309 3.24596 33.2608 6.78312V6.78185Z" fill="#F9FAFB"/>
<path d="M32.5558 20.6317C32.5558 20.6317 32.552 20.6273 32.552 20.6248" stroke="#F9FAFB" stroke-width="0.0316553" stroke-miterlimit="10"/>
<path d="M53.5598 5.01491L45.5288 13.0674L42.7381 15.8651C40.6976 18.193 37.8955 19.8378 34.7211 20.412C34.0493 20.533 33.3605 20.607 32.6584 20.6267C32.6211 20.6267 32.5831 20.6254 32.5457 20.6229H32.5445C28.1912 20.4538 24.3476 18.2949 21.9 15.0287L19.674 12.8414L14.5801 7.83539C15.7918 8.81354 17.1701 9.5929 18.6655 10.1234C18.9814 10.2361 19.3018 10.3368 19.6285 10.4261C20.8086 10.7502 22.0514 10.9237 23.3347 10.9237C27.2156 10.9237 30.7274 9.33902 33.2561 6.78064C33.2865 6.82306 33.2276 6.73695 33.2561 6.78064C35.6448 3.32198 39.7258 1.18335 44.2468 1.18335C44.5367 1.18335 44.8254 1.19285 45.111 1.21247C45.4199 1.23147 45.7251 1.26185 46.0277 1.30301C48.9476 1.6949 51.5668 3.03962 53.5598 5.01491Z" fill="#F9FAFB"/>
<path d="M53.5647 5.0127L53.5637 5.01364" stroke="#F9FAFB" stroke-width="0.0316553" stroke-miterlimit="10"/>
<path d="M40.601 28.3494C40.5984 28.3134 40.5972 28.2767 40.5972 28.2407" stroke="#F9FAFB" stroke-width="0.0316553" stroke-miterlimit="10"/>
<path d="M40.601 28.3494C40.5984 28.3134 40.5972 28.2767 40.5972 28.2407" stroke="#F9FAFB" stroke-width="0.0316553" stroke-miterlimit="10"/>
<path d="M54.4453 28.9461C51.8869 26.4175 50.3022 22.9063 50.3022 19.0247C50.3022 17.7414 50.4757 16.4986 50.7999 15.3185C50.8891 14.9918 50.9898 14.6715 51.1025 14.3556C51.633 12.8602 52.4124 11.4819 53.3905 10.2701C54.1851 9.28312 55.1126 8.4069 56.1458 7.6687C58.1274 9.62816 59.5247 12.177 60.0527 15.0317C60.1116 15.3426 60.1584 15.6572 60.1945 15.9757C60.2553 16.505 60.287 17.0437 60.287 17.5901C60.287 22.2719 57.9812 26.4162 54.444 28.9461H54.4453Z" fill="#F9FAFB"/>
<path d="M40.5972 28.2389C40.5972 28.2389 40.6016 28.2351 40.6041 28.2351" stroke="#F9FAFB" stroke-width="0.0316553" stroke-miterlimit="10"/>
<path d="M56.2131 49.2502L48.1606 41.2193L45.3629 38.4285C43.035 36.388 41.3902 33.5859 40.8159 30.4115C40.695 29.7398 40.6209 29.051 40.6013 28.3488C40.6013 28.3115 40.6026 28.2735 40.6051 28.2362V28.2349C40.7742 23.8817 42.933 20.0381 46.1992 17.5905L48.3866 15.3645L53.3926 10.2705C52.4144 11.4823 51.6351 12.8605 51.1045 14.3559C50.9919 14.6719 50.8912 14.9922 50.8019 15.3189C50.4778 16.499 50.3043 17.7418 50.3043 19.0251C50.3043 22.906 51.889 26.4179 54.4473 28.9465C54.491 28.918 54.4049 28.9769 54.4473 28.9465C57.9073 31.3358 60.0459 35.4162 60.0459 39.9372C60.0459 40.2272 60.0364 40.5159 60.0168 40.8014C59.9978 41.1104 59.9674 41.4155 59.9262 41.7181C59.5344 44.638 58.1896 47.2572 56.2143 49.2502H56.2131Z" fill="#F9FAFB"/>
<path d="M56.2126 49.2512L56.2117 49.2502" stroke="#F9FAFB" stroke-width="0.0316553" stroke-miterlimit="10"/>
<path d="M24.9136 28.6858C24.9161 28.7218 24.9174 28.7584 24.9174 28.7944" stroke="#F9FAFB" stroke-width="0.0316553" stroke-miterlimit="10"/>
<path d="M24.9136 28.6858C24.9161 28.7218 24.9174 28.7584 24.9174 28.7944" stroke="#F9FAFB" stroke-width="0.0316553" stroke-miterlimit="10"/>
<path d="M11.069 28.0906C13.6273 30.6192 15.212 34.1304 15.212 38.012C15.212 39.2953 15.0385 40.5381 14.7144 41.7182C14.6251 42.0449 14.5245 42.3652 14.4118 42.6811C13.8812 44.1765 13.1019 45.5548 12.1237 46.7666C11.3292 47.7536 10.4017 48.6298 9.36844 49.368C7.38682 47.4085 5.98955 44.8597 5.46154 42.005C5.40267 41.6941 5.35582 41.3795 5.31973 41.061C5.25895 40.5317 5.22729 39.993 5.22729 39.4466C5.22729 34.7648 7.53307 30.6205 11.0702 28.0906H11.069Z" fill="#F9FAFB"/>
<path d="M24.9166 28.7954C24.9166 28.7954 24.9122 28.7992 24.9097 28.7992" stroke="#F9FAFB" stroke-width="0.0316553" stroke-miterlimit="10"/>
<path d="M9.30279 7.78394L17.3553 15.8149L20.153 18.6056C22.4809 20.6461 24.1257 23.4482 24.6999 26.6226C24.8209 27.2944 24.8949 27.9832 24.9146 28.6853C24.9146 28.7226 24.9133 28.7606 24.9108 28.798V28.7993C24.7417 33.1525 22.5828 36.9961 19.3166 39.4437L17.1292 41.6697L12.1233 46.7636C13.1014 45.5519 13.8808 44.1736 14.4113 42.6782C14.524 42.3623 14.6247 42.0419 14.714 41.7152C15.0381 40.5351 15.2116 39.2923 15.2116 38.009C15.2116 34.1281 13.6269 30.6163 11.0685 28.0876C11.1109 28.0573 11.0248 28.1161 11.0685 28.0876C7.6086 25.6983 5.46997 21.6179 5.46997 17.0969C5.46997 16.807 5.47947 16.5183 5.49909 16.2327C5.51809 15.9238 5.54848 15.6186 5.58963 15.316C5.98152 12.3961 7.32624 9.77695 9.30153 7.78394H9.30279Z" fill="#F9FAFB"/>
<path d="M9.29932 7.78394L9.30026 7.78488" stroke="#F9FAFB" stroke-width="0.0316553" stroke-miterlimit="10"/>
<path d="M33.0186 36.4813C33.0546 36.4788 33.0912 36.4775 33.1272 36.4775" stroke="#F9FAFB" stroke-width="0.0316553" stroke-miterlimit="10"/>
<path d="M33.0186 36.4813C33.0546 36.4788 33.0912 36.4775 33.1272 36.4775" stroke="#F9FAFB" stroke-width="0.0316553" stroke-miterlimit="10"/>
<path d="M32.4253 50.3269C34.9539 47.7685 38.4651 46.1838 42.3467 46.1838C43.63 46.1838 44.8728 46.3573 46.0529 46.6815C46.3796 46.7707 46.6999 46.8714 47.0158 46.9841C48.5112 47.5146 49.8895 48.294 51.1013 49.2721C52.0883 50.0667 52.9645 50.9942 53.7027 52.0274C51.7432 54.009 49.1944 55.4063 46.3397 55.9343C46.0288 55.9932 45.7142 56.04 45.3957 56.0761C44.8665 56.1369 44.3277 56.1686 43.7813 56.1686C39.0995 56.1686 34.9552 53.8628 32.4253 50.3256V50.3269Z" fill="#F9FAFB"/>
<path d="M33.1304 36.4775C33.1304 36.4775 33.1342 36.482 33.1342 36.4845" stroke="#F9FAFB" stroke-width="0.0316553" stroke-miterlimit="10"/>
<path d="M12.1187 52.0915L20.1496 44.039L22.9403 41.2413C24.9808 38.9134 27.783 37.2686 30.9574 36.6944C31.6291 36.5734 32.3179 36.4994 33.02 36.4797C33.0574 36.4797 33.0953 36.481 33.1327 36.4835H33.134C37.4872 36.6526 41.3308 38.8115 43.7784 42.0777L46.0044 44.265L51.0983 49.271C49.8866 48.2929 48.5083 47.5135 47.0129 46.983C46.697 46.8703 46.3766 46.7696 46.05 46.6803C44.8698 46.3562 43.6271 46.1827 42.3438 46.1827C38.4628 46.1827 34.951 47.7674 32.4224 50.3258C32.4508 50.3694 32.392 50.2833 32.4224 50.3258C30.033 53.7857 25.9526 55.9243 21.4316 55.9243C21.1417 55.9243 20.853 55.9148 20.5675 55.8952C20.2585 55.8762 19.9533 55.8458 19.6507 55.8047C16.7308 55.4128 14.1117 54.0681 12.1187 52.0928V52.0915Z" fill="#F9FAFB"/>
<path d="M12.1187 52.0927L12.1196 52.0918" stroke="#F9FAFB" stroke-width="0.0316553" stroke-miterlimit="10"/>
</g>
<defs>
<clipPath id="clip0_486_38952">
<rect width="63.3106" height="55.2296" fill="white" transform="translate(0.866699 0.940674)"/>
</clipPath>
</defs>
</svg>
