<svg width="65" height="56" viewBox="0 0 65 56" fill="none" xmlns="http://www.w3.org/2000/svg">
<g clip-path="url(#clip0_486_38502)">
<path d="M32.5857 20.3977C32.5497 20.4002 32.5131 20.4015 32.4771 20.4015" stroke="#F9FAFB" stroke-width="0.0316553" stroke-miterlimit="10"/>
<path d="M32.5857 20.3977C32.5497 20.4002 32.5131 20.4015 32.4771 20.4015" stroke="#F9FAFB" stroke-width="0.0316553" stroke-miterlimit="10"/>
<path d="M33.1822 6.55212C30.6536 9.1105 27.1424 10.6952 23.2608 10.6952C21.9775 10.6952 20.7347 10.5217 19.5546 10.1975C19.2279 10.1083 18.9076 10.0076 18.5916 9.89492C17.0963 9.36437 15.718 8.58502 14.5062 7.60687C13.5192 6.81232 12.643 5.88482 11.9048 4.8516C13.8642 2.86997 16.4131 1.47271 19.2678 0.944698C19.5787 0.88582 19.8933 0.83897 20.2118 0.802883C20.741 0.742105 21.2798 0.710449 21.8262 0.710449C26.508 0.710449 30.6523 3.01622 33.1822 6.55338V6.55212Z" fill="#F9FAFB"/>
<path d="M32.4774 20.4022C32.4774 20.4022 32.4736 20.3978 32.4736 20.3953" stroke="#F9FAFB" stroke-width="0.0316553" stroke-miterlimit="10"/>
<path d="M53.4807 4.78541L45.4497 12.8379L42.659 15.6356C40.6185 17.9635 37.8164 19.6083 34.642 20.1826C33.9702 20.3035 33.2814 20.3775 32.5793 20.3972C32.542 20.3972 32.504 20.3959 32.4666 20.3934H32.4654C28.1121 20.2243 24.2685 18.0654 21.8209 14.7993L19.5949 12.6119L14.501 7.6059C15.7127 8.58405 17.091 9.3634 18.5864 9.89395C18.9023 10.0066 19.2227 10.1073 19.5494 10.1966C20.7295 10.5207 21.9723 10.6942 23.2556 10.6942C27.1365 10.6942 30.6483 9.10953 33.177 6.55115C33.2074 6.59356 33.1485 6.50746 33.177 6.55115C35.5657 3.09249 39.6467 0.953857 44.1677 0.953857C44.4576 0.953857 44.7463 0.963354 45.0319 0.98298C45.3408 1.00197 45.646 1.03236 45.9486 1.07351C48.8685 1.46541 51.4877 2.81012 53.4807 4.78541Z" fill="#F9FAFB"/>
<path d="M53.486 4.7832L53.4851 4.78414" stroke="#F9FAFB" stroke-width="0.0316553" stroke-miterlimit="10"/>
<path d="M40.5209 28.1206C40.5184 28.0846 40.5171 28.048 40.5171 28.012" stroke="#F9FAFB" stroke-width="0.0316553" stroke-miterlimit="10"/>
<path d="M40.5209 28.1206C40.5184 28.0846 40.5171 28.048 40.5171 28.012" stroke="#F9FAFB" stroke-width="0.0316553" stroke-miterlimit="10"/>
<path d="M54.365 28.7171C51.8066 26.1885 50.2219 22.6773 50.2219 18.7957C50.2219 17.5124 50.3954 16.2696 50.7195 15.0895C50.8088 14.7628 50.9095 14.4425 51.0222 14.1266C51.5527 12.6312 52.3321 11.2529 53.3102 10.0411C54.1048 9.05412 55.0323 8.1779 56.0655 7.4397C58.0471 9.39916 59.4444 11.948 59.9724 14.8027C60.0313 15.1136 60.0781 15.4282 60.1142 15.7467C60.175 16.276 60.2066 16.8147 60.2066 17.3611C60.2066 22.0429 57.9009 26.1872 54.3637 28.7171H54.365Z" fill="#F9FAFB"/>
<path d="M40.5171 28.0099C40.5171 28.0099 40.5215 28.0061 40.524 28.0061" stroke="#F9FAFB" stroke-width="0.0316553" stroke-miterlimit="10"/>
<path d="M56.1328 49.0217L48.0803 40.9907L45.2826 38.2C42.9547 36.1595 41.3098 33.3574 40.7356 30.183C40.6147 29.5113 40.5406 28.8224 40.521 28.1203C40.521 28.083 40.5223 28.045 40.5248 28.0076V28.0064C40.6938 23.6531 42.8527 19.8096 46.1189 17.362L48.3063 15.136L53.3123 10.042C52.3341 11.2538 51.5548 12.632 51.0242 14.1274C50.9115 14.4433 50.8109 14.7637 50.7216 15.0904C50.3974 16.2705 50.224 17.5133 50.224 18.7966C50.224 22.6775 51.8086 26.1894 54.367 28.718C54.4107 28.6895 54.3246 28.7484 54.367 28.718C57.8269 31.1073 59.9656 35.1877 59.9656 39.7087C59.9656 39.9987 59.9561 40.2874 59.9365 40.5729C59.9175 40.8818 59.8871 41.187 59.8459 41.4896C59.454 44.4095 58.1093 47.0287 56.134 49.0217H56.1328Z" fill="#F9FAFB"/>
<path d="M56.1325 49.0227L56.1316 49.0217" stroke="#F9FAFB" stroke-width="0.0316553" stroke-miterlimit="10"/>
<path d="M24.835 28.4565C24.8375 28.4926 24.8388 28.5292 24.8388 28.5652" stroke="#F9FAFB" stroke-width="0.0316553" stroke-miterlimit="10"/>
<path d="M24.835 28.4565C24.8375 28.4926 24.8388 28.5292 24.8388 28.5652" stroke="#F9FAFB" stroke-width="0.0316553" stroke-miterlimit="10"/>
<path d="M10.9906 27.8611C13.549 30.3897 15.1336 33.9009 15.1336 37.7825C15.1336 39.0658 14.9602 40.3086 14.636 41.4887C14.5468 41.8154 14.4461 42.1357 14.3334 42.4516C13.8029 43.947 13.0235 45.3253 12.0453 46.5371C11.2508 47.5241 10.3233 48.4003 9.29007 49.1385C7.30845 47.179 5.91119 44.6302 5.38317 41.7755C5.3243 41.4646 5.27745 41.15 5.24136 40.8315C5.18058 40.3022 5.14893 39.7635 5.14893 39.2171C5.14893 34.5353 7.4547 30.391 10.9919 27.8611H10.9906Z" fill="#F9FAFB"/>
<path d="M24.8385 28.5662C24.8385 28.5662 24.8341 28.5699 24.8315 28.5699" stroke="#F9FAFB" stroke-width="0.0316553" stroke-miterlimit="10"/>
<path d="M9.22442 7.55469L17.2769 15.5856L20.0746 18.3764C22.4025 20.4169 24.0473 23.219 24.6216 26.3934C24.7425 27.0651 24.8166 27.7539 24.8362 28.456C24.8362 28.4934 24.8349 28.5314 24.8324 28.5687V28.57C24.6633 32.9232 22.5045 36.7668 19.2383 39.2144L17.0509 41.4404L12.0449 46.5344C13.0231 45.3226 13.8024 43.9443 14.333 42.449C14.4456 42.133 14.5463 41.8127 14.6356 41.486C14.9597 40.3059 15.1332 39.0631 15.1332 37.7798C15.1332 33.8989 13.5485 30.387 10.9902 27.8584C11.0326 27.828 10.9465 27.8869 10.9902 27.8584C7.53023 25.4691 5.3916 21.3887 5.3916 16.8677C5.3916 16.5777 5.4011 16.289 5.42072 16.0035C5.43972 15.6945 5.47011 15.3894 5.51126 15.0867C5.90315 12.1669 7.24787 9.5477 9.22316 7.55469H9.22442Z" fill="#F9FAFB"/>
<path d="M9.22119 7.55469L9.22213 7.55563" stroke="#F9FAFB" stroke-width="0.0316553" stroke-miterlimit="10"/>
<path d="M32.9395 36.2523C32.9755 36.2498 33.0121 36.2485 33.0481 36.2485" stroke="#F9FAFB" stroke-width="0.0316553" stroke-miterlimit="10"/>
<path d="M32.9395 36.2523C32.9755 36.2498 33.0121 36.2485 33.0481 36.2485" stroke="#F9FAFB" stroke-width="0.0316553" stroke-miterlimit="10"/>
<path d="M32.3462 50.0979C34.8748 47.5395 38.386 45.9548 42.2676 45.9548C43.5509 45.9548 44.7937 46.1283 45.9738 46.4525C46.3005 46.5417 46.6208 46.6424 46.9367 46.7551C48.4321 47.2856 49.8104 48.065 51.0222 49.0431C52.0092 49.8377 52.8854 50.7652 53.6236 51.7984C51.6641 53.78 49.1153 55.1773 46.2606 55.7053C45.9497 55.7642 45.6351 55.811 45.3166 55.8471C44.7874 55.9079 44.2486 55.9395 43.7022 55.9395C39.0204 55.9395 34.8761 53.6338 32.3462 50.0966V50.0979Z" fill="#F9FAFB"/>
<path d="M33.0513 36.2485C33.0513 36.2485 33.0551 36.253 33.0551 36.2555" stroke="#F9FAFB" stroke-width="0.0316553" stroke-miterlimit="10"/>
<path d="M12.0396 51.8622L20.0705 43.8098L22.8612 41.0121C24.9017 38.6841 27.7039 37.0393 30.8782 36.4651C31.55 36.3442 32.2388 36.2701 32.9409 36.2505C32.9783 36.2505 33.0162 36.2518 33.0536 36.2543H33.0549C37.4081 36.4233 41.2517 38.5822 43.6993 41.8484L45.9253 44.0358L51.0192 49.0418C49.8075 48.0636 48.4292 47.2843 46.9338 46.7537C46.6179 46.641 46.2975 46.5404 45.9709 46.4511C44.7907 46.1269 43.548 45.9535 42.2647 45.9535C38.3837 45.9535 34.8719 47.5381 32.3433 50.0965C32.3717 50.1402 32.3129 50.0541 32.3433 50.0965C29.9539 53.5564 25.8735 55.6951 21.3525 55.6951C21.0626 55.6951 20.7739 55.6856 20.4883 55.6659C20.1794 55.647 19.8742 55.6166 19.5716 55.5754C16.6517 55.1835 14.0326 53.8388 12.0396 51.8635V51.8622Z" fill="#F9FAFB"/>
<path d="M12.0396 51.8635L12.0405 51.8625" stroke="#F9FAFB" stroke-width="0.0316553" stroke-miterlimit="10"/>
</g>
<defs>
<clipPath id="clip0_486_38502">
<rect width="63.3106" height="55.2296" fill="white" transform="translate(0.789062 0.710938)"/>
</clipPath>
</defs>
</svg>
