<svg width="64" height="56" viewBox="0 0 64 56" fill="none" xmlns="http://www.w3.org/2000/svg">
<g clip-path="url(#clip0_486_38442)">
<path d="M32.2014 20.3977C32.1654 20.4002 32.1288 20.4015 32.0928 20.4015" stroke="#F9FAFB" stroke-width="0.0316553" stroke-miterlimit="10"/>
<path d="M32.2014 20.3977C32.1654 20.4002 32.1288 20.4015 32.0928 20.4015" stroke="#F9FAFB" stroke-width="0.0316553" stroke-miterlimit="10"/>
<path d="M32.7979 6.55261C30.2693 9.11099 26.7581 10.6957 22.8765 10.6957C21.5932 10.6957 20.3504 10.5222 19.1703 10.198C18.8436 10.1088 18.5233 10.0081 18.2074 9.8954C16.712 9.36486 15.3337 8.58551 14.1219 7.60736C13.1349 6.81281 12.2587 5.88531 11.5205 4.85208C13.48 2.87046 16.0289 1.4732 18.8835 0.945187C19.1944 0.886308 19.509 0.839458 19.8275 0.803371C20.3568 0.742593 20.8955 0.710938 21.4419 0.710938C26.1237 0.710938 30.268 3.01671 32.7979 6.55387V6.55261Z" fill="#F9FAFB"/>
<path d="M32.0927 20.4027C32.0927 20.4027 32.0889 20.3983 32.0889 20.3958" stroke="#F9FAFB" stroke-width="0.0316553" stroke-miterlimit="10"/>
<path d="M53.0964 4.78566L45.0654 12.8381L42.2747 15.6358C40.2342 17.9638 37.4321 19.6086 34.2577 20.1828C33.586 20.3037 32.8972 20.3778 32.195 20.3974C32.1577 20.3974 32.1197 20.3962 32.0823 20.3936H32.0811C27.7278 20.2246 23.8843 18.0657 21.4367 14.7995L19.2107 12.6121L14.1167 7.60615C15.3285 8.58429 16.7067 9.36365 18.2021 9.89419C18.5181 10.0069 18.8384 10.1075 19.1651 10.1968C20.3452 10.521 21.588 10.6944 22.8713 10.6944C26.7522 10.6944 30.2641 9.10977 32.7927 6.55139C32.8231 6.59381 32.7642 6.50771 32.7927 6.55139C35.1814 3.09273 39.2624 0.954102 43.7834 0.954102C44.0734 0.954102 44.3621 0.963598 44.6476 0.983224C44.9566 1.00222 45.2617 1.03261 45.5643 1.07376C48.4842 1.46565 51.1034 2.81037 53.0964 4.78566Z" fill="#F9FAFB"/>
<path d="M53.1015 4.7832L53.1006 4.78414" stroke="#F9FAFB" stroke-width="0.0316553" stroke-miterlimit="10"/>
<path d="M40.1366 28.1204C40.1341 28.0844 40.1328 28.0477 40.1328 28.0117" stroke="#F9FAFB" stroke-width="0.0316553" stroke-miterlimit="10"/>
<path d="M40.1366 28.1204C40.1341 28.0844 40.1328 28.0477 40.1328 28.0117" stroke="#F9FAFB" stroke-width="0.0316553" stroke-miterlimit="10"/>
<path d="M53.9804 28.7169C51.4221 26.1882 49.8374 22.677 49.8374 18.7955C49.8374 17.5122 50.0109 16.2694 50.335 15.0893C50.4243 14.7626 50.525 14.4422 50.6376 14.1263C51.1682 12.6309 51.9475 11.2526 52.9257 10.0409C53.7202 9.05387 54.6477 8.17765 55.681 7.43945C57.6626 9.39892 59.0599 11.9478 59.5879 14.8025C59.6467 15.1133 59.6936 15.428 59.7297 15.7464C59.7905 16.2757 59.8221 16.8145 59.8221 17.3609C59.8221 22.0427 57.5163 26.187 53.9792 28.7169H53.9804Z" fill="#F9FAFB"/>
<path d="M40.1328 28.0096C40.1328 28.0096 40.1372 28.0059 40.1398 28.0059" stroke="#F9FAFB" stroke-width="0.0316553" stroke-miterlimit="10"/>
<path d="M55.7485 49.0214L47.696 40.9905L44.8983 38.1998C42.5704 36.1593 40.9256 33.3571 40.3513 30.1827C40.2304 29.511 40.1563 28.8222 40.1367 28.1201C40.1367 28.0827 40.138 28.0447 40.1405 28.0074V28.0061C40.3096 23.6529 42.4684 19.8093 45.7346 17.3617L47.922 15.1357L52.928 10.0417C51.9498 11.2535 51.1705 12.6318 50.6399 14.1272C50.5273 14.4431 50.4266 14.7635 50.3373 15.0901C50.0132 16.2702 49.8397 17.513 49.8397 18.7963C49.8397 22.6773 51.4244 26.1891 53.9827 28.7177C54.0264 28.6892 53.9403 28.7481 53.9827 28.7177C57.4427 31.1071 59.5813 35.1874 59.5813 39.7085C59.5813 39.9984 59.5718 40.2871 59.5522 40.5726C59.5332 40.8816 59.5028 41.1868 59.4616 41.4894C59.0698 44.4093 57.725 47.0284 55.7497 49.0214H55.7485Z" fill="#F9FAFB"/>
<path d="M55.748 49.0224L55.7471 49.0215" stroke="#F9FAFB" stroke-width="0.0316553" stroke-miterlimit="10"/>
<path d="M24.4507 28.4565C24.4532 28.4926 24.4545 28.5292 24.4545 28.5652" stroke="#F9FAFB" stroke-width="0.0316553" stroke-miterlimit="10"/>
<path d="M24.4507 28.4565C24.4532 28.4926 24.4545 28.5292 24.4545 28.5652" stroke="#F9FAFB" stroke-width="0.0316553" stroke-miterlimit="10"/>
<path d="M10.6058 27.8613C13.1642 30.39 14.7489 33.9012 14.7489 37.7827C14.7489 39.066 14.5754 40.3088 14.2513 41.4889C14.162 41.8156 14.0613 42.136 13.9486 42.4519C13.4181 43.9473 12.6387 45.3256 11.6606 46.5373C10.866 47.5243 9.93853 48.4005 8.90531 49.1387C6.92368 47.1793 5.52642 44.6304 4.99841 41.7757C4.93953 41.4649 4.89268 41.1502 4.85659 40.8318C4.79582 40.3025 4.76416 39.7637 4.76416 39.2173C4.76416 34.5355 7.06993 30.3912 10.6071 27.8613H10.6058Z" fill="#F9FAFB"/>
<path d="M24.4537 28.5664C24.4537 28.5664 24.4493 28.5702 24.4468 28.5702" stroke="#F9FAFB" stroke-width="0.0316553" stroke-miterlimit="10"/>
<path d="M8.83966 7.55469L16.8921 15.5856L19.6898 18.3764C22.0178 20.4169 23.6626 23.219 24.2368 26.3934C24.3577 27.0651 24.4318 27.7539 24.4514 28.456C24.4514 28.4934 24.4502 28.5314 24.4476 28.5687V28.57C24.2786 32.9232 22.1197 36.7668 18.8535 39.2144L16.6661 41.4404L11.6601 46.5344C12.6383 45.3226 13.4176 43.9443 13.9482 42.449C14.0609 42.133 14.1615 41.8127 14.2508 41.486C14.575 40.3059 14.7484 39.0631 14.7484 37.7798C14.7484 33.8989 13.1638 30.387 10.6054 27.8584C10.6478 27.828 10.5617 27.8869 10.6054 27.8584C7.14547 25.4691 5.00684 21.3887 5.00684 16.8677C5.00684 16.5777 5.01633 16.289 5.03596 16.0035C5.05495 15.6945 5.08534 15.3894 5.12649 15.0867C5.51839 12.1669 6.8631 9.5477 8.83839 7.55469H8.83966Z" fill="#F9FAFB"/>
<path d="M8.83643 7.55444L8.83737 7.55538" stroke="#F9FAFB" stroke-width="0.0316553" stroke-miterlimit="10"/>
<path d="M32.5552 36.2521C32.5912 36.2496 32.6278 36.2483 32.6638 36.2483" stroke="#F9FAFB" stroke-width="0.0316553" stroke-miterlimit="10"/>
<path d="M32.5552 36.2521C32.5912 36.2496 32.6278 36.2483 32.6638 36.2483" stroke="#F9FAFB" stroke-width="0.0316553" stroke-miterlimit="10"/>
<path d="M31.9619 50.0976C34.4905 47.5393 38.0017 45.9546 41.8833 45.9546C43.1666 45.9546 44.4094 46.1281 45.5895 46.4522C45.9162 46.5415 46.2365 46.6421 46.5525 46.7548C48.0479 47.2854 49.4261 48.0647 50.6379 49.0429C51.6249 49.8374 52.5011 50.7649 53.2393 51.7982C51.2799 53.7798 48.731 55.177 45.8763 55.7051C45.5655 55.7639 45.2508 55.8108 44.9324 55.8469C44.4031 55.9076 43.8643 55.9393 43.3179 55.9393C38.6361 55.9393 34.4918 53.6335 31.9619 50.0964V50.0976Z" fill="#F9FAFB"/>
<path d="M32.6665 36.2483C32.6665 36.2483 32.6703 36.2527 32.6703 36.2552" stroke="#F9FAFB" stroke-width="0.0316553" stroke-miterlimit="10"/>
<path d="M11.6553 51.862L19.6862 43.8095L22.477 41.0118C24.5175 38.6839 27.3196 37.0391 30.494 36.4649C31.1657 36.3439 31.8545 36.2699 32.5566 36.2502C32.594 36.2502 32.632 36.2515 32.6693 36.254H32.6706C37.0238 36.4231 40.8674 38.582 43.315 41.8482L45.541 44.0355L50.635 49.0415C49.4232 48.0634 48.0449 47.284 46.5495 46.7535C46.2336 46.6408 45.9133 46.5401 45.5866 46.4508C44.4065 46.1267 43.1637 45.9532 41.8804 45.9532C37.9994 45.9532 34.4876 47.5379 31.959 50.0963C31.9875 50.14 31.9286 50.0539 31.959 50.0963C29.5696 53.5562 25.4893 55.6948 20.9683 55.6948C20.6783 55.6948 20.3896 55.6853 20.1041 55.6657C19.7951 55.6467 19.49 55.6163 19.1873 55.5752C16.2674 55.1833 13.6483 53.8386 11.6553 51.8633V51.862Z" fill="#F9FAFB"/>
<path d="M11.6553 51.8632L11.6562 51.8623" stroke="#F9FAFB" stroke-width="0.0316553" stroke-miterlimit="10"/>
</g>
<defs>
<clipPath id="clip0_486_38442">
<rect width="63.3106" height="55.2296" fill="white" transform="translate(0.403809 0.710938)"/>
</clipPath>
</defs>
</svg>
