<svg width="65" height="56" viewBox="0 0 65 56" fill="none" xmlns="http://www.w3.org/2000/svg">
<g clip-path="url(#clip0_486_39852)">
<path d="M32.5086 20.3159C32.4726 20.3184 32.4359 20.3197 32.3999 20.3197" stroke="#F9FAFB" stroke-width="0.0316553" stroke-miterlimit="10"/>
<path d="M32.5086 20.3159C32.4726 20.3184 32.4359 20.3197 32.3999 20.3197" stroke="#F9FAFB" stroke-width="0.0316553" stroke-miterlimit="10"/>
<path d="M33.1051 6.47106C30.5764 9.02944 27.0652 10.6141 23.1837 10.6141C21.9003 10.6141 20.6576 10.4406 19.4775 10.1165C19.1508 10.0272 18.8304 9.92655 18.5145 9.81386C17.0191 9.28332 15.6408 8.50397 14.4291 7.52582C13.4421 6.73127 12.5658 5.80377 11.8276 4.77054C13.7871 2.78892 16.336 1.39165 19.1907 0.863644C19.5015 0.804765 19.8162 0.757915 20.1346 0.721828C20.6639 0.66105 21.2027 0.629395 21.749 0.629395C26.4309 0.629395 30.5752 2.93517 33.1051 6.47233V6.47106Z" fill="#F9FAFB"/>
<path d="M32.3998 20.3207C32.3998 20.3207 32.396 20.3162 32.396 20.3137" stroke="#F9FAFB" stroke-width="0.0316553" stroke-miterlimit="10"/>
<path d="M53.4035 4.70363L45.3726 12.7561L42.5818 15.5538C40.5413 17.8817 37.7392 19.5265 34.5648 20.1008C33.8931 20.2217 33.2043 20.2958 32.5022 20.3154C32.4648 20.3154 32.4268 20.3141 32.3895 20.3116H32.3882C28.035 20.1425 24.1914 17.9837 21.7438 14.7175L19.5178 12.5301L14.4238 7.52411C15.6356 8.50226 17.0139 9.28162 18.5093 9.81216C18.8252 9.92485 19.1455 10.0255 19.4722 10.1148C20.6523 10.4389 21.8951 10.6124 23.1784 10.6124C27.0594 10.6124 30.5712 9.02774 33.0998 6.46936C33.1302 6.51178 33.0713 6.42568 33.0998 6.46936C35.4885 3.0107 39.5695 0.87207 44.0905 0.87207C44.3805 0.87207 44.6692 0.881567 44.9547 0.901193C45.2637 0.920186 45.5688 0.950575 45.8715 0.991727C48.7913 1.38362 51.4105 2.72834 53.4035 4.70363Z" fill="#F9FAFB"/>
<path d="M53.4087 4.70093L53.4077 4.70187" stroke="#F9FAFB" stroke-width="0.0316553" stroke-miterlimit="10"/>
<path d="M40.4432 28.0383C40.4407 28.0023 40.4395 27.9657 40.4395 27.9297" stroke="#F9FAFB" stroke-width="0.0316553" stroke-miterlimit="10"/>
<path d="M40.4432 28.0383C40.4407 28.0023 40.4395 27.9657 40.4395 27.9297" stroke="#F9FAFB" stroke-width="0.0316553" stroke-miterlimit="10"/>
<path d="M54.2871 28.6348C51.7287 26.1062 50.144 22.595 50.144 18.7134C50.144 17.4301 50.3175 16.1873 50.6417 15.0072C50.7309 14.6806 50.8316 14.3602 50.9443 14.0443C51.4748 12.5489 52.2542 11.1706 53.2323 9.95885C54.0269 8.97184 54.9544 8.09562 55.9876 7.35742C57.9692 9.31688 59.3665 11.8658 59.8945 14.7204C59.9534 15.0313 60.0002 15.346 60.0363 15.6644C60.0971 16.1937 60.1288 16.7325 60.1288 17.2788C60.1288 21.9606 57.823 26.105 54.2858 28.6348H54.2871Z" fill="#F9FAFB"/>
<path d="M40.4395 27.9279C40.4395 27.9279 40.4439 27.9241 40.4464 27.9241" stroke="#F9FAFB" stroke-width="0.0316553" stroke-miterlimit="10"/>
<path d="M56.0551 48.9394L48.0026 40.9085L45.205 38.1177C42.877 36.0772 41.2322 33.2751 40.658 30.1007C40.5371 29.429 40.463 28.7402 40.4434 28.0381C40.4434 28.0007 40.4446 27.9627 40.4472 27.9254V27.9241C40.6162 23.5709 42.7751 19.7273 46.0413 17.2797L48.2287 15.0537L53.2346 9.95972C52.2565 11.1715 51.4771 12.5498 50.9466 14.0451C50.8339 14.3611 50.7332 14.6814 50.644 15.0081C50.3198 16.1882 50.1463 17.431 50.1463 18.7143C50.1463 22.5952 51.731 26.1071 54.2894 28.6357C54.3331 28.6072 54.247 28.6661 54.2894 28.6357C57.7493 31.0251 59.8879 35.1054 59.8879 39.6264C59.8879 39.9164 59.8784 40.2051 59.8588 40.4906C59.8398 40.7996 59.8094 41.1047 59.7683 41.4074C59.3764 44.3272 58.0317 46.9464 56.0564 48.9394H56.0551Z" fill="#F9FAFB"/>
<path d="M56.0547 48.9404L56.0537 48.9395" stroke="#F9FAFB" stroke-width="0.0316553" stroke-miterlimit="10"/>
<path d="M24.7578 28.3745C24.7603 28.4105 24.7616 28.4472 24.7616 28.4832" stroke="#F9FAFB" stroke-width="0.0316553" stroke-miterlimit="10"/>
<path d="M24.7578 28.3745C24.7603 28.4105 24.7616 28.4472 24.7616 28.4832" stroke="#F9FAFB" stroke-width="0.0316553" stroke-miterlimit="10"/>
<path d="M10.913 27.7791C13.4713 30.3077 15.056 33.8189 15.056 37.7005C15.056 38.9838 14.8825 40.2265 14.5584 41.4067C14.4691 41.7333 14.3685 42.0537 14.2558 42.3696C13.7252 43.865 12.9459 45.2433 11.9677 46.455C11.1732 47.4421 10.2457 48.3183 9.21243 49.0565C7.23081 47.097 5.83355 44.5481 5.30554 41.6935C5.24666 41.3826 5.19981 41.0679 5.16372 40.7495C5.10294 40.2202 5.07129 39.6814 5.07129 39.1351C5.07129 34.4533 7.37706 30.3089 10.9142 27.7791H10.913Z" fill="#F9FAFB"/>
<path d="M24.7608 28.4841C24.7608 28.4841 24.7564 28.4879 24.7539 28.4879" stroke="#F9FAFB" stroke-width="0.0316553" stroke-miterlimit="10"/>
<path d="M9.14679 7.47241L17.1993 15.5034L19.997 18.2941C22.3249 20.3346 23.9697 23.1367 24.5439 26.3111C24.6648 26.9828 24.7389 27.6717 24.7585 28.3738C24.7585 28.4111 24.7573 28.4491 24.7547 28.4865V28.4877C24.5857 32.841 22.4268 36.6846 19.1606 39.1321L16.9732 41.3581L11.9673 46.4521C12.9454 45.2403 13.7248 43.8621 14.2553 42.3667C14.368 42.0508 14.4687 41.7304 14.5579 41.4037C14.8821 40.2236 15.0556 38.9808 15.0556 37.6975C15.0556 33.8166 13.4709 30.3047 10.9125 27.7761C10.9549 27.7457 10.8688 27.8046 10.9125 27.7761C7.4526 25.3868 5.31396 21.3064 5.31396 16.7854C5.31396 16.4954 5.32346 16.2067 5.34309 15.9212C5.36208 15.6123 5.39247 15.3071 5.43362 15.0045C5.82551 12.0846 7.17023 9.46543 9.14552 7.47241H9.14679Z" fill="#F9FAFB"/>
<path d="M9.14307 7.47241L9.14401 7.47335" stroke="#F9FAFB" stroke-width="0.0316553" stroke-miterlimit="10"/>
<path d="M32.8618 36.1698C32.8978 36.1673 32.9345 36.166 32.9705 36.166" stroke="#F9FAFB" stroke-width="0.0316553" stroke-miterlimit="10"/>
<path d="M32.8618 36.1698C32.8978 36.1673 32.9345 36.166 32.9705 36.166" stroke="#F9FAFB" stroke-width="0.0316553" stroke-miterlimit="10"/>
<path d="M32.2686 50.0154C34.7972 47.457 38.3084 45.8723 42.19 45.8723C43.4733 45.8723 44.716 46.0458 45.8962 46.3699C46.2228 46.4592 46.5432 46.5599 46.8591 46.6726C48.3545 47.2031 49.7328 47.9825 50.9445 48.9606C51.9316 49.7552 52.8078 50.6827 53.546 51.7159C51.5865 53.6975 49.0376 55.0948 46.183 55.6228C45.8721 55.6817 45.5574 55.7285 45.239 55.7646C44.7097 55.8254 44.1709 55.857 43.6246 55.857C38.9428 55.857 34.7984 53.5513 32.2686 50.0141V50.0154Z" fill="#F9FAFB"/>
<path d="M32.9736 36.166C32.9736 36.166 32.9774 36.1704 32.9774 36.173" stroke="#F9FAFB" stroke-width="0.0316553" stroke-miterlimit="10"/>
<path d="M11.9619 51.7797L19.9929 43.7273L22.7836 40.9296C24.8241 38.6016 27.6262 36.9568 30.8006 36.3826C31.4723 36.2617 32.1612 36.1876 32.8633 36.168C32.9006 36.168 32.9386 36.1692 32.976 36.1718H32.9772C37.3305 36.3408 41.1741 38.4997 43.6216 41.7659L45.8476 43.9533L50.9416 48.9592C49.7298 47.9811 48.3516 47.2017 46.8562 46.6712C46.5403 46.5585 46.2199 46.4578 45.8932 46.3686C44.7131 46.0444 43.4703 45.871 42.187 45.871C38.3061 45.871 34.7942 47.4556 32.2656 50.014C32.2941 50.0577 32.2352 49.9716 32.2656 50.014C29.8763 53.4739 25.7959 55.6126 21.2749 55.6126C20.9849 55.6126 20.6962 55.6031 20.4107 55.5834C20.1018 55.5644 19.7966 55.534 19.494 55.4929C16.5741 55.101 13.9549 53.7563 11.9619 51.781V51.7797Z" fill="#F9FAFB"/>
<path d="M11.9619 51.781L11.9629 51.78" stroke="#F9FAFB" stroke-width="0.0316553" stroke-miterlimit="10"/>
</g>
<defs>
<clipPath id="clip0_486_39852">
<rect width="63.3106" height="55.2296" fill="white" transform="translate(0.710938 0.629639)"/>
</clipPath>
</defs>
</svg>
