<svg width="64" height="56" viewBox="0 0 64 56" fill="none" xmlns="http://www.w3.org/2000/svg">
<g clip-path="url(#clip0_486_38472)">
<path d="M31.8928 20.3984C31.8568 20.401 31.8202 20.4022 31.7842 20.4022" stroke="#F9FAFB" stroke-width="0.0316553" stroke-miterlimit="10"/>
<path d="M31.8928 20.3984C31.8568 20.401 31.8202 20.4022 31.7842 20.4022" stroke="#F9FAFB" stroke-width="0.0316553" stroke-miterlimit="10"/>
<path d="M32.4888 6.55334C29.9602 9.11172 26.449 10.6964 22.5674 10.6964C21.2841 10.6964 20.0414 10.5229 18.8612 10.1988C18.5346 10.1095 18.2142 10.0088 17.8983 9.89614C16.4029 9.36559 15.0246 8.58624 13.8129 7.60809C12.8258 6.81354 11.9496 5.88604 11.2114 4.85282C13.1709 2.87119 15.7198 1.47393 18.5744 0.945919C18.8853 0.88704 19.2 0.84019 19.5184 0.804103C20.0477 0.743325 20.5865 0.71167 21.1328 0.71167C25.8146 0.71167 29.959 3.01744 32.4888 6.5546V6.55334Z" fill="#F9FAFB"/>
<path d="M31.7845 20.4037C31.7845 20.4037 31.7808 20.3993 31.7808 20.3967" stroke="#F9FAFB" stroke-width="0.0316553" stroke-miterlimit="10"/>
<path d="M52.7878 4.78639L44.7569 12.8389L41.9661 15.6366C39.9256 17.9645 37.1235 19.6093 33.9491 20.1835C33.2774 20.3045 32.5886 20.3785 31.8864 20.3982C31.8491 20.3982 31.8111 20.3969 31.7738 20.3944H31.7725C27.4192 20.2253 23.5757 18.0664 21.1281 14.8002L18.9021 12.6128L13.8081 7.60688C15.0199 8.58503 16.3981 9.36438 17.8935 9.89492C18.2095 10.0076 18.5298 10.1083 18.8565 10.1975C20.0366 10.5217 21.2794 10.6952 22.5627 10.6952C26.4436 10.6952 29.9555 9.1105 32.4841 6.55212C32.5145 6.59454 32.4556 6.50844 32.4841 6.55212C34.8728 3.09347 38.9538 0.954834 43.4748 0.954834C43.7648 0.954834 44.0535 0.964331 44.339 0.983957C44.648 1.00295 44.9531 1.03334 45.2557 1.07449C48.1756 1.46638 50.7948 2.8111 52.7878 4.78639Z" fill="#F9FAFB"/>
<path d="M52.7929 4.78418L52.792 4.78512" stroke="#F9FAFB" stroke-width="0.0316553" stroke-miterlimit="10"/>
<path d="M39.8285 28.1214C39.826 28.0853 39.8247 28.0487 39.8247 28.0127" stroke="#F9FAFB" stroke-width="0.0316553" stroke-miterlimit="10"/>
<path d="M39.8285 28.1214C39.826 28.0853 39.8247 28.0487 39.8247 28.0127" stroke="#F9FAFB" stroke-width="0.0316553" stroke-miterlimit="10"/>
<path d="M53.6719 28.7174C51.1135 26.1887 49.5288 22.6775 49.5288 18.796C49.5288 17.5127 49.7023 16.2699 50.0264 15.0898C50.1157 14.7631 50.2164 14.4427 50.3291 14.1268C50.8596 12.6314 51.639 11.2531 52.6171 10.0414C53.4116 9.05436 54.3391 8.17814 55.3724 7.43994C57.354 9.3994 58.7513 11.9483 59.2793 14.803C59.3382 15.1138 59.385 15.4285 59.4211 15.7469C59.4819 16.2762 59.5135 16.815 59.5135 17.3613C59.5135 22.0432 57.2077 26.1875 53.6706 28.7174H53.6719Z" fill="#F9FAFB"/>
<path d="M39.8247 28.0106C39.8247 28.0106 39.8291 28.0068 39.8316 28.0068" stroke="#F9FAFB" stroke-width="0.0316553" stroke-miterlimit="10"/>
<path d="M55.4404 49.0224L47.3879 40.9915L44.5902 38.2007C42.2623 36.1602 40.6175 33.3581 40.0432 30.1837C39.9223 29.512 39.8482 28.8232 39.8286 28.1211C39.8286 28.0837 39.8299 28.0457 39.8324 28.0084V28.0071C40.0015 23.6539 42.1603 19.8103 45.4265 17.3627L47.6139 15.1367L52.6199 10.0427C51.6417 11.2545 50.8624 12.6328 50.3318 14.1282C50.2191 14.4441 50.1185 14.7644 50.0292 15.0911C49.7051 16.2712 49.5316 17.514 49.5316 18.7973C49.5316 22.6783 51.1163 26.1901 53.6746 28.7187C53.7183 28.6902 53.6322 28.7491 53.6746 28.7187C57.1346 31.1081 59.2732 35.1884 59.2732 39.7094C59.2732 39.9994 59.2637 40.2881 59.2441 40.5736C59.2251 40.8826 59.1947 41.1877 59.1535 41.4904C58.7616 44.4102 57.4169 47.0294 55.4416 49.0224H55.4404Z" fill="#F9FAFB"/>
<path d="M55.4394 49.0229L55.4385 49.022" stroke="#F9FAFB" stroke-width="0.0316553" stroke-miterlimit="10"/>
<path d="M24.1426 28.4575C24.1451 28.4935 24.1464 28.5302 24.1464 28.5662" stroke="#F9FAFB" stroke-width="0.0316553" stroke-miterlimit="10"/>
<path d="M24.1426 28.4575C24.1451 28.4935 24.1464 28.5302 24.1464 28.5662" stroke="#F9FAFB" stroke-width="0.0316553" stroke-miterlimit="10"/>
<path d="M10.2982 27.8618C12.8566 30.3904 14.4413 33.9016 14.4413 37.7832C14.4413 39.0665 14.2678 40.3093 13.9436 41.4894C13.8544 41.8161 13.7537 42.1365 13.641 42.4524C13.1105 43.9478 12.3311 45.326 11.353 46.5378C10.5584 47.5248 9.63092 48.401 8.59769 49.1392C6.61607 47.1798 5.2188 44.6309 4.69079 41.7762C4.63191 41.4654 4.58506 41.1507 4.54898 40.8323C4.4882 40.303 4.45654 39.7642 4.45654 39.2178C4.45654 34.536 6.76231 30.3917 10.2995 27.8618H10.2982Z" fill="#F9FAFB"/>
<path d="M24.1461 28.5669C24.1461 28.5669 24.1417 28.5707 24.1392 28.5707" stroke="#F9FAFB" stroke-width="0.0316553" stroke-miterlimit="10"/>
<path d="M8.53204 7.55566L16.5845 15.5866L19.3822 18.3773C21.7101 20.4178 23.355 23.22 23.9292 26.3944C24.0501 27.0661 24.1242 27.7549 24.1438 28.457C24.1438 28.4944 24.1425 28.5324 24.14 28.5697V28.571C23.971 32.9242 21.8121 36.7678 18.5459 39.2154L16.3585 41.4414L11.3525 46.5354C12.3307 45.3236 13.11 43.9453 13.6406 42.4499C13.7533 42.134 13.8539 41.8137 13.9432 41.487C14.2673 40.3069 14.4408 39.0641 14.4408 37.7808C14.4408 33.8998 12.8562 30.388 10.2978 27.8594C10.3402 27.829 10.2541 27.8879 10.2978 27.8594C6.83785 25.47 4.69922 21.3897 4.69922 16.8687C4.69922 16.5787 4.70872 16.29 4.72834 16.0045C4.74733 15.6955 4.77772 15.3904 4.81888 15.0877C5.21077 12.1678 6.55549 9.54868 8.53078 7.55566H8.53204Z" fill="#F9FAFB"/>
<path d="M8.52832 7.55566L8.52926 7.55661" stroke="#F9FAFB" stroke-width="0.0316553" stroke-miterlimit="10"/>
<path d="M32.2466 36.2526C32.2826 36.25 32.3192 36.2488 32.3552 36.2488" stroke="#F9FAFB" stroke-width="0.0316553" stroke-miterlimit="10"/>
<path d="M32.2466 36.2526C32.2826 36.25 32.3192 36.2488 32.3552 36.2488" stroke="#F9FAFB" stroke-width="0.0316553" stroke-miterlimit="10"/>
<path d="M31.6533 50.0981C34.1819 47.5397 37.6932 45.9551 41.5747 45.9551C42.858 45.9551 44.1008 46.1285 45.2809 46.4527C45.6076 46.542 45.928 46.6426 46.2439 46.7553C47.7393 47.2859 49.1175 48.0652 50.3293 49.0434C51.3163 49.8379 52.1925 50.7654 52.9307 51.7986C50.9713 53.7803 48.4224 55.1775 45.5677 55.7055C45.2569 55.7644 44.9422 55.8113 44.6238 55.8474C44.0945 55.9081 43.5557 55.9398 43.0093 55.9398C38.3275 55.9398 34.1832 53.634 31.6533 50.0969V50.0981Z" fill="#F9FAFB"/>
<path d="M32.3584 36.2488C32.3584 36.2488 32.3622 36.2532 32.3622 36.2557" stroke="#F9FAFB" stroke-width="0.0316553" stroke-miterlimit="10"/>
<path d="M11.3467 51.863L19.3776 43.8105L22.1684 41.0128C24.2089 38.6849 27.011 37.0401 30.1854 36.4658C30.8571 36.3449 31.5459 36.2708 32.248 36.2512C32.2854 36.2512 32.3234 36.2525 32.3607 36.255H32.362C36.7152 36.4241 40.5588 38.5829 43.0064 41.8491L45.2324 44.0365L50.3264 49.0425C49.1146 48.0643 47.7363 47.285 46.2409 46.7544C45.925 46.6418 45.6047 46.5411 45.278 46.4518C44.0979 46.1277 42.8551 45.9542 41.5718 45.9542C37.6908 45.9542 34.179 47.5389 31.6504 50.0972C31.6789 50.1409 31.62 50.0548 31.6504 50.0972C29.261 53.5572 25.1807 55.6958 20.6597 55.6958C20.3697 55.6958 20.081 55.6863 19.7955 55.6667C19.4865 55.6477 19.1814 55.6173 18.8787 55.5761C15.9589 55.1843 13.3397 53.8395 11.3467 51.8642V51.863Z" fill="#F9FAFB"/>
<path d="M11.3467 51.864L11.3476 51.863" stroke="#F9FAFB" stroke-width="0.0316553" stroke-miterlimit="10"/>
</g>
<defs>
<clipPath id="clip0_486_38472">
<rect width="63.3106" height="55.2296" fill="white" transform="translate(0.0961914 0.711182)"/>
</clipPath>
</defs>
</svg>
