<svg width="64" height="56" viewBox="0 0 64 56" fill="none" xmlns="http://www.w3.org/2000/svg">
<g clip-path="url(#clip0_486_40182)">
<path d="M32.126 20.3162C32.09 20.3187 32.0533 20.32 32.0173 20.32" stroke="#F9FAFB" stroke-width="0.0316553" stroke-miterlimit="10"/>
<path d="M32.126 20.3162C32.09 20.3187 32.0533 20.32 32.0173 20.32" stroke="#F9FAFB" stroke-width="0.0316553" stroke-miterlimit="10"/>
<path d="M32.723 6.47131C30.1944 9.02969 26.6831 10.6144 22.8016 10.6144C21.5183 10.6144 20.2755 10.4409 19.0954 10.1167C18.7687 10.0275 18.4483 9.9268 18.1324 9.81411C16.637 9.28356 15.2588 8.50421 14.047 7.52606C13.06 6.73151 12.1838 5.80401 11.4456 4.77078C13.405 2.78916 15.9539 1.3919 18.8086 0.863888C19.1194 0.805009 19.4341 0.758159 19.7525 0.722072C20.2818 0.661294 20.8206 0.629639 21.367 0.629639C26.0488 0.629639 30.1931 2.93541 32.723 6.47257V6.47131Z" fill="#F9FAFB"/>
<path d="M32.0177 20.3207C32.0177 20.3207 32.0139 20.3162 32.0139 20.3137" stroke="#F9FAFB" stroke-width="0.0316553" stroke-miterlimit="10"/>
<path d="M53.0212 4.70387L44.9903 12.7563L42.1995 15.554C40.159 17.882 37.3569 19.5268 34.1825 20.101C33.5108 20.2219 32.822 20.296 32.1198 20.3156C32.0825 20.3156 32.0445 20.3144 32.0072 20.3118H32.0059C27.6526 20.1428 23.8091 17.9839 21.3615 14.7177L19.1355 12.5303L14.0415 7.52436C15.2533 8.50251 16.6315 9.28186 18.1269 9.8124C18.4429 9.9251 18.7632 10.0258 19.0899 10.115C20.27 10.4392 21.5128 10.6126 22.7961 10.6126C26.677 10.6126 30.1889 9.02798 32.7175 6.4696C32.7479 6.51202 32.689 6.42592 32.7175 6.4696C35.1062 3.01095 39.1872 0.872314 43.7082 0.872314C43.9982 0.872314 44.2869 0.881811 44.5724 0.901437C44.8814 0.920431 45.1865 0.95082 45.4891 0.991971C48.409 1.38386 51.0282 2.72858 53.0212 4.70387Z" fill="#F9FAFB"/>
<path d="M53.0258 4.70117L53.0249 4.70211" stroke="#F9FAFB" stroke-width="0.0316553" stroke-miterlimit="10"/>
<path d="M40.0621 28.0386C40.0596 28.0026 40.0583 27.9659 40.0583 27.9299" stroke="#F9FAFB" stroke-width="0.0316553" stroke-miterlimit="10"/>
<path d="M40.0621 28.0386C40.0596 28.0026 40.0583 27.9659 40.0583 27.9299" stroke="#F9FAFB" stroke-width="0.0316553" stroke-miterlimit="10"/>
<path d="M53.9057 28.6348C51.3474 26.1062 49.7627 22.595 49.7627 18.7134C49.7627 17.4301 49.9362 16.1873 50.2603 15.0072C50.3496 14.6806 50.4502 14.3602 50.5629 14.0443C51.0935 12.5489 51.8728 11.1706 52.851 9.95885C53.6455 8.97184 54.573 8.09562 55.6063 7.35742C57.5879 9.31688 58.9852 11.8658 59.5132 14.7204C59.572 15.0313 59.6189 15.346 59.655 15.6644C59.7158 16.1937 59.7474 16.7325 59.7474 17.2788C59.7474 21.9606 57.4416 26.105 53.9045 28.6348H53.9057Z" fill="#F9FAFB"/>
<path d="M40.0583 27.9279C40.0583 27.9279 40.0628 27.9241 40.0653 27.9241" stroke="#F9FAFB" stroke-width="0.0316553" stroke-miterlimit="10"/>
<path d="M55.6738 48.9399L47.6213 40.909L44.8236 38.1182C42.4957 36.0777 40.8509 33.2756 40.2766 30.1012C40.1557 29.4295 40.0816 28.7407 40.062 28.0385C40.062 28.0012 40.0633 27.9632 40.0658 27.9259V27.9246C40.2348 23.5713 42.3937 19.7278 45.6599 17.2802L47.8473 15.0542L52.8533 9.96021C51.8751 11.172 51.0958 12.5502 50.5652 14.0456C50.4525 14.3616 50.3519 14.6819 50.2626 15.0086C49.9385 16.1887 49.765 17.4315 49.765 18.7148C49.765 22.5957 51.3497 26.1076 53.908 28.6362C53.9517 28.6077 53.8656 28.6666 53.908 28.6362C57.368 31.0255 59.5066 35.1059 59.5066 39.6269C59.5066 39.9169 59.4971 40.2056 59.4775 40.4911C59.4585 40.8001 59.4281 41.1052 59.3869 41.4078C58.995 44.3277 57.6503 46.9469 55.675 48.9399H55.6738Z" fill="#F9FAFB"/>
<path d="M55.6733 48.9406L55.6724 48.9397" stroke="#F9FAFB" stroke-width="0.0316553" stroke-miterlimit="10"/>
<path d="M24.376 28.374C24.3785 28.41 24.3798 28.4467 24.3798 28.4827" stroke="#F9FAFB" stroke-width="0.0316553" stroke-miterlimit="10"/>
<path d="M24.376 28.374C24.3785 28.41 24.3798 28.4467 24.3798 28.4827" stroke="#F9FAFB" stroke-width="0.0316553" stroke-miterlimit="10"/>
<path d="M10.5314 27.7788C13.0897 30.3074 14.6744 33.8186 14.6744 37.7002C14.6744 38.9835 14.5009 40.2263 14.1768 41.4064C14.0875 41.7331 13.9869 42.0534 13.8742 42.3694C13.3436 43.8648 12.5643 45.243 11.5861 46.4548C10.7916 47.4418 9.86407 48.318 8.83084 49.0562C6.84922 47.0968 5.45196 44.5479 4.92395 41.6932C4.86507 41.3824 4.81822 41.0677 4.78213 40.7492C4.72135 40.22 4.6897 39.6812 4.6897 39.1348C4.6897 34.453 6.99547 30.3087 10.5326 27.7788H10.5314Z" fill="#F9FAFB"/>
<path d="M24.379 28.4839C24.379 28.4839 24.3746 28.4877 24.3721 28.4877" stroke="#F9FAFB" stroke-width="0.0316553" stroke-miterlimit="10"/>
<path d="M8.7652 7.47217L16.8177 15.5031L19.6154 18.2938C21.9433 20.3343 23.5881 23.1365 24.1623 26.3109C24.2833 26.9826 24.3573 27.6714 24.377 28.3735C24.377 28.4109 24.3757 28.4489 24.3732 28.4862V28.4875C24.2041 32.8407 22.0452 36.6843 18.779 39.1319L16.5917 41.3579L11.5857 46.4519C12.5638 45.2401 13.3432 43.8618 13.8737 42.3664C13.9864 42.0505 14.0871 41.7302 14.1764 41.4035C14.5005 40.2234 14.674 38.9806 14.674 37.6973C14.674 33.8163 13.0893 30.3045 10.5309 27.7759C10.5733 27.7455 10.4872 27.8044 10.5309 27.7759C7.071 25.3865 4.93237 21.3062 4.93237 16.7852C4.93237 16.4952 4.94187 16.2065 4.9615 15.921C4.98049 15.612 5.01088 15.3069 5.05203 15.0042C5.44392 12.0843 6.78864 9.46519 8.76393 7.47217H8.7652Z" fill="#F9FAFB"/>
<path d="M8.76172 7.47217L8.76266 7.47311" stroke="#F9FAFB" stroke-width="0.0316553" stroke-miterlimit="10"/>
<path d="M32.4807 36.1698C32.5167 36.1673 32.5534 36.166 32.5894 36.166" stroke="#F9FAFB" stroke-width="0.0316553" stroke-miterlimit="10"/>
<path d="M32.4807 36.1698C32.5167 36.1673 32.5534 36.166 32.5894 36.166" stroke="#F9FAFB" stroke-width="0.0316553" stroke-miterlimit="10"/>
<path d="M31.8875 50.0154C34.4161 47.457 37.9273 45.8723 41.8089 45.8723C43.0922 45.8723 44.3349 46.0458 45.5151 46.3699C45.8417 46.4592 46.1621 46.5599 46.478 46.6726C47.9734 47.2031 49.3517 47.9825 50.5634 48.9606C51.5504 49.7552 52.4267 50.6827 53.1649 51.7159C51.2054 53.6975 48.6565 55.0948 45.8019 55.6228C45.491 55.6817 45.1763 55.7285 44.8579 55.7646C44.3286 55.8254 43.7898 55.857 43.2435 55.857C38.5617 55.857 34.4173 53.5513 31.8875 50.0141V50.0154Z" fill="#F9FAFB"/>
<path d="M32.5925 36.166C32.5925 36.166 32.5963 36.1704 32.5963 36.173" stroke="#F9FAFB" stroke-width="0.0316553" stroke-miterlimit="10"/>
<path d="M11.5808 51.7797L19.6118 43.7273L22.4025 40.9296C24.443 38.6016 27.2451 36.9568 30.4195 36.3826C31.0912 36.2617 31.7801 36.1876 32.4822 36.168C32.5195 36.168 32.5575 36.1692 32.5949 36.1718H32.5961C36.9494 36.3408 40.7929 38.4997 43.2405 41.7659L45.4665 43.9533L50.5605 48.9592C49.3487 47.9811 47.9705 47.2017 46.4751 46.6712C46.1592 46.5585 45.8388 46.4578 45.5121 46.3686C44.332 46.0444 43.0892 45.871 41.8059 45.871C37.925 45.871 34.4131 47.4556 31.8845 50.014C31.913 50.0577 31.8541 49.9716 31.8845 50.014C29.4952 53.4739 25.4148 55.6126 20.8938 55.6126C20.6038 55.6126 20.3151 55.6031 20.0296 55.5834C19.7207 55.5644 19.4155 55.534 19.1129 55.4929C16.193 55.101 13.5738 53.7563 11.5808 51.781V51.7797Z" fill="#F9FAFB"/>
<path d="M11.5808 51.781L11.5818 51.78" stroke="#F9FAFB" stroke-width="0.0316553" stroke-miterlimit="10"/>
</g>
<defs>
<clipPath id="clip0_486_40182">
<rect width="63.3106" height="55.2296" fill="white" transform="translate(0.329834 0.629639)"/>
</clipPath>
</defs>
</svg>
