<svg width="64" height="56" viewBox="0 0 64 56" fill="none" xmlns="http://www.w3.org/2000/svg">
<g clip-path="url(#clip0_486_38712)">
<path d="M32.4343 20.3979C32.3983 20.4005 32.3617 20.4017 32.3257 20.4017" stroke="#F9FAFB" stroke-width="0.0316553" stroke-miterlimit="10"/>
<path d="M32.4343 20.3979C32.3983 20.4005 32.3617 20.4017 32.3257 20.4017" stroke="#F9FAFB" stroke-width="0.0316553" stroke-miterlimit="10"/>
<path d="M33.0306 6.55309C30.502 9.11148 26.9908 10.6961 23.1092 10.6961C21.8259 10.6961 20.5831 10.5227 19.403 10.1985C19.0763 10.1092 18.756 10.0086 18.44 9.89589C16.9446 9.36535 15.5664 8.586 14.3546 7.60785C13.3676 6.8133 12.4914 5.8858 11.7532 4.85257C13.7126 2.87095 16.2615 1.47369 19.1162 0.945675C19.427 0.886796 19.7417 0.839946 20.0602 0.803859C20.5894 0.743081 21.1282 0.711426 21.6746 0.711426C26.3564 0.711426 30.5007 3.0172 33.0306 6.55436V6.55309Z" fill="#F9FAFB"/>
<path d="M32.3258 20.4032C32.3258 20.4032 32.322 20.3988 32.322 20.3962" stroke="#F9FAFB" stroke-width="0.0316553" stroke-miterlimit="10"/>
<path d="M53.3293 4.78615L45.2984 12.8386L42.5076 15.6363C40.4671 17.9642 37.665 19.6091 34.4906 20.1833C33.8189 20.3042 33.1301 20.3783 32.4279 20.3979C32.3906 20.3979 32.3526 20.3966 32.3153 20.3941H32.314C27.9608 20.2251 24.1172 18.0662 21.6696 14.8L19.4436 12.6126L14.3496 7.60663C15.5614 8.58478 16.9396 9.36414 18.435 9.89468C18.751 10.0074 19.0713 10.108 19.398 10.1973C20.5781 10.5215 21.8209 10.6949 23.1042 10.6949C26.9851 10.6949 30.497 9.11026 33.0256 6.55188C33.056 6.5943 32.9971 6.50819 33.0256 6.55188C35.4143 3.09322 39.4953 0.95459 44.0163 0.95459C44.3063 0.95459 44.595 0.964086 44.8805 0.983713C45.1895 1.00271 45.4946 1.03309 45.7972 1.07425C48.7171 1.46614 51.3363 2.81086 53.3293 4.78615Z" fill="#F9FAFB"/>
<path d="M53.3344 4.78369L53.3335 4.78463" stroke="#F9FAFB" stroke-width="0.0316553" stroke-miterlimit="10"/>
<path d="M40.3702 28.1204C40.3677 28.0844 40.3665 28.0477 40.3665 28.0117" stroke="#F9FAFB" stroke-width="0.0316553" stroke-miterlimit="10"/>
<path d="M40.3702 28.1204C40.3677 28.0844 40.3665 28.0477 40.3665 28.0117" stroke="#F9FAFB" stroke-width="0.0316553" stroke-miterlimit="10"/>
<path d="M54.2141 28.7169C51.6557 26.1882 50.071 22.677 50.071 18.7955C50.071 17.5122 50.2445 16.2694 50.5687 15.0893C50.6579 14.7626 50.7586 14.4422 50.8713 14.1263C51.4018 12.6309 52.1812 11.2526 53.1593 10.0409C53.9539 9.05387 54.8814 8.17765 55.9146 7.43945C57.8962 9.39892 59.2935 11.9478 59.8215 14.8025C59.8804 15.1133 59.9272 15.428 59.9633 15.7464C60.0241 16.2757 60.0558 16.8145 60.0558 17.3609C60.0558 22.0427 57.75 26.187 54.2128 28.7169H54.2141Z" fill="#F9FAFB"/>
<path d="M40.3665 28.0096C40.3665 28.0096 40.3709 28.0059 40.3734 28.0059" stroke="#F9FAFB" stroke-width="0.0316553" stroke-miterlimit="10"/>
<path d="M55.9819 49.0222L47.9294 40.9912L45.1317 38.2005C42.8038 36.16 41.159 33.3579 40.5847 30.1835C40.4638 29.5118 40.3897 28.8229 40.3701 28.1208C40.3701 28.0835 40.3714 28.0455 40.3739 28.0081V28.0069C40.543 23.6536 42.7018 19.81 45.968 17.3625L48.1554 15.1365L53.1614 10.0425C52.1832 11.2542 51.4039 12.6325 50.8733 14.1279C50.7607 14.4438 50.66 14.7642 50.5707 15.0909C50.2466 16.271 50.0731 17.5138 50.0731 18.7971C50.0731 22.678 51.6578 26.1898 54.2161 28.7185C54.2598 28.69 54.1737 28.7489 54.2161 28.7185C57.6761 31.1078 59.8147 35.1882 59.8147 39.7092C59.8147 39.9992 59.8052 40.2878 59.7856 40.5734C59.7666 40.8823 59.7362 41.1875 59.695 41.4901C59.3031 44.41 57.9584 47.0292 55.9831 49.0222H55.9819Z" fill="#F9FAFB"/>
<path d="M55.9814 49.0224L55.9805 49.0215" stroke="#F9FAFB" stroke-width="0.0316553" stroke-miterlimit="10"/>
<path d="M24.6841 28.4563C24.6866 28.4923 24.6879 28.5289 24.6879 28.565" stroke="#F9FAFB" stroke-width="0.0316553" stroke-miterlimit="10"/>
<path d="M24.6841 28.4563C24.6866 28.4923 24.6879 28.5289 24.6879 28.565" stroke="#F9FAFB" stroke-width="0.0316553" stroke-miterlimit="10"/>
<path d="M10.8392 27.8611C13.3976 30.3897 14.9823 33.9009 14.9823 37.7825C14.9823 39.0658 14.8088 40.3086 14.4847 41.4887C14.3954 41.8154 14.2947 42.1357 14.182 42.4516C13.6515 43.947 12.8721 45.3253 11.894 46.5371C11.0994 47.5241 10.1719 48.4003 9.1387 49.1385C7.15708 47.179 5.75982 44.6302 5.23181 41.7755C5.17293 41.4646 5.12608 41.15 5.08999 40.8315C5.02921 40.3022 4.99756 39.7635 4.99756 39.2171C4.99756 34.5353 7.30333 30.391 10.8405 27.8611H10.8392Z" fill="#F9FAFB"/>
<path d="M24.6866 28.5662C24.6866 28.5662 24.6822 28.5699 24.6797 28.5699" stroke="#F9FAFB" stroke-width="0.0316553" stroke-miterlimit="10"/>
<path d="M9.07306 7.55444L17.1255 15.5854L19.9232 18.3761C22.2512 20.4166 23.896 23.2188 24.4702 26.3931C24.5911 27.0649 24.6652 27.7537 24.6848 28.4558C24.6848 28.4932 24.6836 28.5311 24.681 28.5685V28.5698C24.512 32.923 22.3531 36.7666 19.0869 39.2142L16.8995 41.4402L11.8935 46.5341C12.8717 45.3224 13.651 43.9441 14.1816 42.4487C14.2943 42.1328 14.3949 41.8124 14.4842 41.4858C14.8084 40.3056 14.9818 39.0629 14.9818 37.7796C14.9818 33.8986 13.3972 30.3868 10.8388 27.8582C10.8812 27.8278 10.7951 27.8866 10.8388 27.8582C7.37887 25.4688 5.24023 21.3884 5.24023 16.8674C5.24023 16.5775 5.24973 16.2888 5.26936 16.0032C5.28835 15.6943 5.31874 15.3891 5.35989 15.0865C5.75178 12.1666 7.0965 9.54746 9.07179 7.55444H9.07306Z" fill="#F9FAFB"/>
<path d="M9.06934 7.5542L9.07028 7.55514" stroke="#F9FAFB" stroke-width="0.0316553" stroke-miterlimit="10"/>
<path d="M32.7886 36.2516C32.8246 36.2491 32.8612 36.2478 32.8972 36.2478" stroke="#F9FAFB" stroke-width="0.0316553" stroke-miterlimit="10"/>
<path d="M32.7886 36.2516C32.8246 36.2491 32.8612 36.2478 32.8972 36.2478" stroke="#F9FAFB" stroke-width="0.0316553" stroke-miterlimit="10"/>
<path d="M32.1953 50.0974C34.7239 47.539 38.2351 45.9543 42.1167 45.9543C43.4 45.9543 44.6428 46.1278 45.8229 46.452C46.1496 46.5412 46.4699 46.6419 46.7859 46.7546C48.2813 47.2851 49.6595 48.0645 50.8713 49.0426C51.8583 49.8372 52.7345 50.7647 53.4727 51.7979C51.5133 53.7795 48.9644 55.1768 46.1097 55.7048C45.7989 55.7637 45.4842 55.8105 45.1657 55.8466C44.6365 55.9074 44.0977 55.9391 43.5513 55.9391C38.8695 55.9391 34.7252 53.6333 32.1953 50.0961V50.0974Z" fill="#F9FAFB"/>
<path d="M32.8997 36.2478C32.8997 36.2478 32.9034 36.2522 32.9034 36.2547" stroke="#F9FAFB" stroke-width="0.0316553" stroke-miterlimit="10"/>
<path d="M11.8887 51.862L19.9196 43.8095L22.7103 41.0118C24.7509 38.6839 27.553 37.0391 30.7274 36.4649C31.3991 36.3439 32.0879 36.2699 32.79 36.2502C32.8274 36.2502 32.8654 36.2515 32.9027 36.254H32.904C37.2572 36.4231 41.1008 38.582 43.5484 41.8482L45.7744 44.0355L50.8684 49.0415C49.6566 48.0634 48.2783 47.284 46.7829 46.7535C46.467 46.6408 46.1467 46.5401 45.82 46.4508C44.6399 46.1267 43.3971 45.9532 42.1138 45.9532C38.2328 45.9532 34.721 47.5379 32.1924 50.0963C32.2209 50.14 32.162 50.0539 32.1924 50.0963C29.803 53.5562 25.7227 55.6948 21.2017 55.6948C20.9117 55.6948 20.623 55.6853 20.3375 55.6657C20.0285 55.6467 19.7234 55.6163 19.4207 55.5752C16.5008 55.1833 13.8817 53.8386 11.8887 51.8633V51.862Z" fill="#F9FAFB"/>
<path d="M11.8887 51.8632L11.8896 51.8623" stroke="#F9FAFB" stroke-width="0.0316553" stroke-miterlimit="10"/>
</g>
<defs>
<clipPath id="clip0_486_38712">
<rect width="63.3106" height="55.2296" fill="white" transform="translate(0.637207 0.710938)"/>
</clipPath>
</defs>
</svg>
