<svg width="64" height="56" viewBox="0 0 64 56" fill="none" xmlns="http://www.w3.org/2000/svg">
<g clip-path="url(#clip0_486_38742)">
<path d="M32.1265 20.3977C32.0905 20.4002 32.0538 20.4015 32.0178 20.4015" stroke="#F9FAFB" stroke-width="0.0316553" stroke-miterlimit="10"/>
<path d="M32.1265 20.3977C32.0905 20.4002 32.0538 20.4015 32.0178 20.4015" stroke="#F9FAFB" stroke-width="0.0316553" stroke-miterlimit="10"/>
<path d="M32.7227 6.55261C30.1941 9.11099 26.6829 10.6957 22.8013 10.6957C21.518 10.6957 20.2752 10.5222 19.0951 10.198C18.7684 10.1088 18.4481 10.0081 18.1322 9.8954C16.6368 9.36486 15.2585 8.58551 14.0467 7.60736C13.0597 6.81281 12.1835 5.88531 11.4453 4.85208C13.4048 2.87046 15.9537 1.4732 18.8083 0.945187C19.1192 0.886308 19.4338 0.839458 19.7523 0.803371C20.2816 0.742593 20.8203 0.710938 21.3667 0.710938C26.0485 0.710938 30.1928 3.01671 32.7227 6.55387V6.55261Z" fill="#F9FAFB"/>
<path d="M32.0179 20.4027C32.0179 20.4027 32.0142 20.3983 32.0142 20.3958" stroke="#F9FAFB" stroke-width="0.0316553" stroke-miterlimit="10"/>
<path d="M53.0214 4.78566L44.9905 12.8381L42.1998 15.6358C40.1593 17.9638 37.3571 19.6086 34.1827 20.1828C33.511 20.3037 32.8222 20.3778 32.1201 20.3974C32.0827 20.3974 32.0447 20.3962 32.0074 20.3936H32.0061C27.6529 20.2246 23.8093 18.0657 21.3617 14.7995L19.1357 12.6121L14.0417 7.60615C15.2535 8.58429 16.6318 9.36365 18.1272 9.89419C18.4431 10.0069 18.7635 10.1075 19.0901 10.1968C20.2702 10.521 21.513 10.6944 22.7963 10.6944C26.6773 10.6944 30.1891 9.10977 32.7177 6.55139C32.7481 6.59381 32.6892 6.50771 32.7177 6.55139C35.1064 3.09273 39.1874 0.954102 43.7085 0.954102C43.9984 0.954102 44.2871 0.963598 44.5726 0.983224C44.8816 1.00222 45.1868 1.03261 45.4894 1.07376C48.4093 1.46565 51.0284 2.81037 53.0214 4.78566Z" fill="#F9FAFB"/>
<path d="M53.0266 4.7832L53.0256 4.78414" stroke="#F9FAFB" stroke-width="0.0316553" stroke-miterlimit="10"/>
<path d="M40.0624 28.1201C40.0599 28.0841 40.0586 28.0475 40.0586 28.0115" stroke="#F9FAFB" stroke-width="0.0316553" stroke-miterlimit="10"/>
<path d="M40.0624 28.1201C40.0599 28.0841 40.0586 28.0475 40.0586 28.0115" stroke="#F9FAFB" stroke-width="0.0316553" stroke-miterlimit="10"/>
<path d="M53.9057 28.7169C51.3474 26.1882 49.7627 22.677 49.7627 18.7955C49.7627 17.5122 49.9362 16.2694 50.2603 15.0893C50.3496 14.7626 50.4502 14.4422 50.5629 14.1263C51.0935 12.6309 51.8728 11.2526 52.851 10.0409C53.6455 9.05387 54.573 8.17765 55.6063 7.43945C57.5879 9.39892 58.9852 11.9478 59.5132 14.8025C59.572 15.1133 59.6189 15.428 59.655 15.7464C59.7158 16.2757 59.7474 16.8145 59.7474 17.3609C59.7474 22.0427 57.4416 26.187 53.9045 28.7169H53.9057Z" fill="#F9FAFB"/>
<path d="M40.0586 28.0096C40.0586 28.0096 40.063 28.0059 40.0655 28.0059" stroke="#F9FAFB" stroke-width="0.0316553" stroke-miterlimit="10"/>
<path d="M55.6738 49.0217L47.6213 40.9907L44.8236 38.2C42.4957 36.1595 40.8509 33.3574 40.2766 30.183C40.1557 29.5113 40.0816 28.8224 40.062 28.1203C40.062 28.083 40.0633 28.045 40.0658 28.0076V28.0064C40.2348 23.6531 42.3937 19.8096 45.6599 17.362L47.8473 15.136L52.8533 10.042C51.8751 11.2538 51.0958 12.632 50.5652 14.1274C50.4525 14.4433 50.3519 14.7637 50.2626 15.0904C49.9385 16.2705 49.765 17.5133 49.765 18.7966C49.765 22.6775 51.3497 26.1894 53.908 28.718C53.9517 28.6895 53.8656 28.7484 53.908 28.718C57.368 31.1073 59.5066 35.1877 59.5066 39.7087C59.5066 39.9987 59.4971 40.2874 59.4775 40.5729C59.4585 40.8818 59.4281 41.187 59.3869 41.4896C58.995 44.4095 57.6503 47.0287 55.675 49.0217H55.6738Z" fill="#F9FAFB"/>
<path d="M55.6733 49.0222L55.6724 49.0212" stroke="#F9FAFB" stroke-width="0.0316553" stroke-miterlimit="10"/>
<path d="M24.376 28.4565C24.3785 28.4926 24.3798 28.5292 24.3798 28.5652" stroke="#F9FAFB" stroke-width="0.0316553" stroke-miterlimit="10"/>
<path d="M24.376 28.4565C24.3785 28.4926 24.3798 28.5292 24.3798 28.5652" stroke="#F9FAFB" stroke-width="0.0316553" stroke-miterlimit="10"/>
<path d="M10.5316 27.8608C13.09 30.3895 14.6747 33.9007 14.6747 37.7822C14.6747 39.0655 14.5012 40.3083 14.177 41.4884C14.0878 41.8151 13.9871 42.1355 13.8744 42.4514C13.3439 43.9468 12.5645 45.3251 11.5864 46.5368C10.7918 47.5238 9.86432 48.4001 8.83109 49.1383C6.84947 47.1788 5.4522 44.6299 4.92419 41.7752C4.86531 41.4644 4.81846 41.1497 4.78237 40.8313C4.7216 40.302 4.68994 39.7632 4.68994 39.2169C4.68994 34.535 6.99571 30.3907 10.5329 27.8608H10.5316Z" fill="#F9FAFB"/>
<path d="M24.3797 28.5662C24.3797 28.5662 24.3753 28.5699 24.3728 28.5699" stroke="#F9FAFB" stroke-width="0.0316553" stroke-miterlimit="10"/>
<path d="M8.76544 7.55469L16.8179 15.5856L19.6156 18.3764C21.9435 20.4169 23.5883 23.219 24.1626 26.3934C24.2835 27.0651 24.3576 27.7539 24.3772 28.456C24.3772 28.4934 24.3759 28.5314 24.3734 28.5687V28.57C24.2044 32.9232 22.0455 36.7668 18.7793 39.2144L16.5919 41.4404L11.5859 46.5344C12.5641 45.3226 13.3434 43.9443 13.874 42.449C13.9867 42.133 14.0873 41.8127 14.1766 41.486C14.5007 40.3059 14.6742 39.0631 14.6742 37.7798C14.6742 33.8989 13.0896 30.387 10.5312 27.8584C10.5736 27.828 10.4875 27.8869 10.5312 27.8584C7.07125 25.4691 4.93262 21.3887 4.93262 16.8677C4.93262 16.5777 4.94211 16.289 4.96174 16.0035C4.98073 15.6945 5.01112 15.3894 5.05227 15.0867C5.44417 12.1669 6.78888 9.5477 8.76417 7.55469H8.76544Z" fill="#F9FAFB"/>
<path d="M8.76221 7.55469L8.76315 7.55563" stroke="#F9FAFB" stroke-width="0.0316553" stroke-miterlimit="10"/>
<path d="M32.4807 36.2516C32.5167 36.2491 32.5534 36.2478 32.5894 36.2478" stroke="#F9FAFB" stroke-width="0.0316553" stroke-miterlimit="10"/>
<path d="M32.4807 36.2516C32.5167 36.2491 32.5534 36.2478 32.5894 36.2478" stroke="#F9FAFB" stroke-width="0.0316553" stroke-miterlimit="10"/>
<path d="M31.8875 50.0971C34.4161 47.5388 37.9273 45.9541 41.8089 45.9541C43.0922 45.9541 44.3349 46.1276 45.5151 46.4517C45.8417 46.541 46.1621 46.6417 46.478 46.7543C47.9734 47.2849 49.3517 48.0642 50.5634 49.0424C51.5504 49.8369 52.4267 50.7644 53.1649 51.7977C51.2054 53.7793 48.6565 55.1766 45.8019 55.7046C45.491 55.7634 45.1763 55.8103 44.8579 55.8464C44.3286 55.9072 43.7898 55.9388 43.2435 55.9388C38.5617 55.9388 34.4173 53.633 31.8875 50.0959V50.0971Z" fill="#F9FAFB"/>
<path d="M32.5925 36.2478C32.5925 36.2478 32.5963 36.2522 32.5963 36.2547" stroke="#F9FAFB" stroke-width="0.0316553" stroke-miterlimit="10"/>
<path d="M11.5808 51.8615L19.6118 43.809L22.4025 41.0113C24.443 38.6834 27.2451 37.0386 30.4195 36.4644C31.0912 36.3435 31.7801 36.2694 32.4822 36.2498C32.5195 36.2498 32.5575 36.251 32.5949 36.2536H32.5961C36.9494 36.4226 40.7929 38.5815 43.2405 41.8477L45.4665 44.0351L50.5605 49.041C49.3487 48.0629 47.9705 47.2835 46.4751 46.753C46.1592 46.6403 45.8388 46.5396 45.5121 46.4504C44.332 46.1262 43.0892 45.9527 41.8059 45.9527C37.925 45.9527 34.4131 47.5374 31.8845 50.0958C31.913 50.1395 31.8541 50.0534 31.8845 50.0958C29.4952 53.5557 25.4148 55.6943 20.8938 55.6943C20.6038 55.6943 20.3151 55.6848 20.0296 55.6652C19.7207 55.6462 19.4155 55.6158 19.1129 55.5747C16.193 55.1828 13.5738 53.8381 11.5808 51.8628V51.8615Z" fill="#F9FAFB"/>
<path d="M11.5808 51.8628L11.5818 51.8618" stroke="#F9FAFB" stroke-width="0.0316553" stroke-miterlimit="10"/>
</g>
<defs>
<clipPath id="clip0_486_38742">
<rect width="63.3106" height="55.2296" fill="white" transform="translate(0.329834 0.710938)"/>
</clipPath>
</defs>
</svg>
