<svg width="65" height="56" viewBox="0 0 65 56" fill="none" xmlns="http://www.w3.org/2000/svg">
<g clip-path="url(#clip0_486_38592)">
<path d="M32.6643 20.3977C32.6283 20.4002 32.5917 20.4015 32.5557 20.4015" stroke="#F9FAFB" stroke-width="0.0316553" stroke-miterlimit="10"/>
<path d="M32.6643 20.3977C32.6283 20.4002 32.5917 20.4015 32.5557 20.4015" stroke="#F9FAFB" stroke-width="0.0316553" stroke-miterlimit="10"/>
<path d="M33.2606 6.55261C30.7319 9.11099 27.2207 10.6957 23.3392 10.6957C22.0559 10.6957 20.8131 10.5222 19.633 10.198C19.3063 10.1088 18.9859 10.0081 18.67 9.8954C17.1746 9.36486 15.7964 8.58551 14.5846 7.60736C13.5976 6.81281 12.7214 5.88531 11.9832 4.85208C13.9426 2.87046 16.4915 1.4732 19.3462 0.945187C19.657 0.886308 19.9717 0.839458 20.2901 0.803371C20.8194 0.742593 21.3582 0.710938 21.9046 0.710938C26.5864 0.710938 30.7307 3.01671 33.2606 6.55387V6.55261Z" fill="#F9FAFB"/>
<path d="M32.5555 20.4027C32.5555 20.4027 32.5518 20.3983 32.5518 20.3958" stroke="#F9FAFB" stroke-width="0.0316553" stroke-miterlimit="10"/>
<path d="M53.5593 4.78566L45.5283 12.8381L42.7376 15.6358C40.6971 17.9638 37.895 19.6086 34.7206 20.1828C34.0489 20.3037 33.36 20.3778 32.6579 20.3974C32.6206 20.3974 32.5826 20.3962 32.5452 20.3936H32.544C28.1907 20.2246 24.3471 18.0657 21.8996 14.7995L19.6736 12.6121L14.5796 7.60615C15.7914 8.58429 17.1696 9.36365 18.665 9.89419C18.9809 10.0069 19.3013 10.1075 19.628 10.1968C20.8081 10.521 22.0509 10.6944 23.3342 10.6944C27.2151 10.6944 30.727 9.10977 33.2556 6.55139C33.286 6.59381 33.2271 6.50771 33.2556 6.55139C35.6443 3.09273 39.7253 0.954102 44.2463 0.954102C44.5363 0.954102 44.825 0.963598 45.1105 0.983224C45.4194 1.00222 45.7246 1.03261 46.0272 1.07376C48.9471 1.46565 51.5663 2.81037 53.5593 4.78566Z" fill="#F9FAFB"/>
<path d="M53.5644 4.7832L53.5635 4.78414" stroke="#F9FAFB" stroke-width="0.0316553" stroke-miterlimit="10"/>
<path d="M40.601 28.1199C40.5984 28.0839 40.5972 28.0472 40.5972 28.0112" stroke="#F9FAFB" stroke-width="0.0316553" stroke-miterlimit="10"/>
<path d="M40.601 28.1199C40.5984 28.0839 40.5972 28.0472 40.5972 28.0112" stroke="#F9FAFB" stroke-width="0.0316553" stroke-miterlimit="10"/>
<path d="M54.4453 28.7164C51.8869 26.1878 50.3022 22.6766 50.3022 18.795C50.3022 17.5117 50.4757 16.2689 50.7999 15.0888C50.8891 14.7621 50.9898 14.4417 51.1025 14.1258C51.633 12.6304 52.4124 11.2522 53.3905 10.0404C54.1851 9.05338 55.1126 8.17717 56.1458 7.43896C58.1274 9.39843 59.5247 11.9473 60.0527 14.802C60.1116 15.1128 60.1584 15.4275 60.1945 15.7459C60.2553 16.2752 60.287 16.814 60.287 17.3604C60.287 22.0422 57.9812 26.1865 54.444 28.7164H54.4453Z" fill="#F9FAFB"/>
<path d="M40.5972 28.0092C40.5972 28.0092 40.6016 28.0054 40.6041 28.0054" stroke="#F9FAFB" stroke-width="0.0316553" stroke-miterlimit="10"/>
<path d="M56.2131 49.0212L48.1606 40.9903L45.3629 38.1995C43.035 36.159 41.3902 33.3569 40.8159 30.1825C40.695 29.5108 40.6209 28.822 40.6013 28.1198C40.6013 28.0825 40.6026 28.0445 40.6051 28.0072V28.0059C40.7742 23.6526 42.933 19.8091 46.1992 17.3615L48.3866 15.1355L53.3926 10.0415C52.4144 11.2533 51.6351 12.6315 51.1045 14.1269C50.9919 14.4429 50.8912 14.7632 50.8019 15.0899C50.4778 16.27 50.3043 17.5128 50.3043 18.7961C50.3043 22.677 51.889 26.1889 54.4473 28.7175C54.491 28.689 54.4049 28.7479 54.4473 28.7175C57.9073 31.1068 60.0459 35.1872 60.0459 39.7082C60.0459 39.9982 60.0364 40.2869 60.0168 40.5724C59.9978 40.8814 59.9674 41.1865 59.9262 41.4891C59.5344 44.409 58.1896 47.0282 56.2143 49.0212H56.2131Z" fill="#F9FAFB"/>
<path d="M56.2129 49.0219L56.2119 49.021" stroke="#F9FAFB" stroke-width="0.0316553" stroke-miterlimit="10"/>
<path d="M24.9136 28.4563C24.9161 28.4923 24.9174 28.5289 24.9174 28.565" stroke="#F9FAFB" stroke-width="0.0316553" stroke-miterlimit="10"/>
<path d="M24.9136 28.4563C24.9161 28.4923 24.9174 28.5289 24.9174 28.565" stroke="#F9FAFB" stroke-width="0.0316553" stroke-miterlimit="10"/>
<path d="M11.0687 27.8611C13.6271 30.3897 15.2118 33.9009 15.2118 37.7825C15.2118 39.0658 15.0383 40.3086 14.7141 41.4887C14.6249 41.8154 14.5242 42.1357 14.4115 42.4516C13.881 43.947 13.1016 45.3253 12.1235 46.5371C11.3289 47.5241 10.4014 48.4003 9.3682 49.1385C7.38657 47.179 5.98931 44.6302 5.4613 41.7755C5.40242 41.4646 5.35557 41.15 5.31948 40.8315C5.25871 40.3022 5.22705 39.7635 5.22705 39.2171C5.22705 34.5353 7.53282 30.391 11.07 27.8611H11.0687Z" fill="#F9FAFB"/>
<path d="M24.9166 28.5662C24.9166 28.5662 24.9122 28.5699 24.9097 28.5699" stroke="#F9FAFB" stroke-width="0.0316553" stroke-miterlimit="10"/>
<path d="M9.30255 7.5542L17.355 15.5851L20.1527 18.3759C22.4807 20.4164 24.1255 23.2185 24.6997 26.3929C24.8206 27.0646 24.8947 27.7534 24.9143 28.4556C24.9143 28.4929 24.913 28.5309 24.9105 28.5683V28.5695C24.7415 32.9228 22.5826 36.7663 19.3164 39.2139L17.129 41.4399L12.123 46.5339C13.1012 45.3221 13.8805 43.9439 14.4111 42.4485C14.5238 42.1325 14.6244 41.8122 14.7137 41.4855C15.0379 40.3054 15.2113 39.0626 15.2113 37.7793C15.2113 33.8984 13.6267 30.3865 11.0683 27.8579C11.1107 27.8275 11.0246 27.8864 11.0683 27.8579C7.60836 25.4686 5.46973 21.3882 5.46973 16.8672C5.46973 16.5772 5.47922 16.2885 5.49885 16.003C5.51784 15.694 5.54823 15.3889 5.58938 15.0863C5.98128 12.1664 7.32599 9.54722 9.30128 7.5542H9.30255Z" fill="#F9FAFB"/>
<path d="M9.29932 7.5542L9.30026 7.55514" stroke="#F9FAFB" stroke-width="0.0316553" stroke-miterlimit="10"/>
<path d="M33.0178 36.2521C33.0538 36.2496 33.0905 36.2483 33.1265 36.2483" stroke="#F9FAFB" stroke-width="0.0316553" stroke-miterlimit="10"/>
<path d="M33.0178 36.2521C33.0538 36.2496 33.0905 36.2483 33.1265 36.2483" stroke="#F9FAFB" stroke-width="0.0316553" stroke-miterlimit="10"/>
<path d="M32.4246 50.0976C34.9532 47.5393 38.4644 45.9546 42.346 45.9546C43.6293 45.9546 44.8721 46.1281 46.0522 46.4522C46.3788 46.5415 46.6992 46.6421 47.0151 46.7548C48.5105 47.2854 49.8888 48.0647 51.1005 49.0429C52.0876 49.8374 52.9638 50.7649 53.702 51.7982C51.7425 53.7798 49.1936 55.177 46.339 55.7051C46.0281 55.7639 45.7134 55.8108 45.395 55.8469C44.8657 55.9076 44.3269 55.9393 43.7806 55.9393C39.0988 55.9393 34.9545 53.6335 32.4246 50.0964V50.0976Z" fill="#F9FAFB"/>
<path d="M33.1296 36.2483C33.1296 36.2483 33.1334 36.2527 33.1334 36.2552" stroke="#F9FAFB" stroke-width="0.0316553" stroke-miterlimit="10"/>
<path d="M12.1179 51.8622L20.1489 43.8098L22.9396 41.0121C24.9801 38.6841 27.7822 37.0393 30.9566 36.4651C31.6283 36.3442 32.3172 36.2701 33.0193 36.2505C33.0566 36.2505 33.0946 36.2518 33.132 36.2543H33.1332C37.4865 36.4233 41.3301 38.5822 43.7776 41.8484L46.0036 44.0358L51.0976 49.0418C49.8858 48.0636 48.5076 47.2843 47.0122 46.7537C46.6963 46.641 46.3759 46.5404 46.0492 46.4511C44.8691 46.1269 43.6263 45.9535 42.343 45.9535C38.4621 45.9535 34.9503 47.5381 32.4216 50.0965C32.4501 50.1402 32.3912 50.0541 32.4216 50.0965C30.0323 53.5564 25.9519 55.6951 21.4309 55.6951C21.1409 55.6951 20.8522 55.6856 20.5667 55.6659C20.2578 55.647 19.9526 55.6166 19.65 55.5754C16.7301 55.1835 14.1109 53.8388 12.1179 51.8635V51.8622Z" fill="#F9FAFB"/>
<path d="M12.1179 51.8635L12.1189 51.8625" stroke="#F9FAFB" stroke-width="0.0316553" stroke-miterlimit="10"/>
</g>
<defs>
<clipPath id="clip0_486_38592">
<rect width="63.3106" height="55.2296" fill="white" transform="translate(0.866699 0.710938)"/>
</clipPath>
</defs>
</svg>
