<svg width="65" height="56" viewBox="0 0 65 56" fill="none" xmlns="http://www.w3.org/2000/svg">
<g clip-path="url(#clip0_486_45792)">
<path d="M32.6643 19.9895C32.6283 19.992 32.5917 19.9933 32.5557 19.9933" stroke="#F9FAFB" stroke-width="0.0316553" stroke-miterlimit="10"/>
<path d="M32.6643 19.9895C32.6283 19.992 32.5917 19.9933 32.5557 19.9933" stroke="#F9FAFB" stroke-width="0.0316553" stroke-miterlimit="10"/>
<path d="M33.2608 6.14465C30.7322 8.70303 27.221 10.2877 23.3394 10.2877C22.0561 10.2877 20.8133 10.1142 19.6332 9.79007C19.3065 9.7008 18.9862 9.60014 18.6703 9.48745C17.1749 8.9569 15.7966 8.17755 14.5848 7.1994C13.5978 6.40485 12.7216 5.47735 11.9834 4.44412C13.9429 2.4625 16.4917 1.06524 19.3464 0.537228C19.6573 0.478349 19.9719 0.431499 20.2904 0.395412C20.8197 0.334634 21.3584 0.302979 21.9048 0.302979C26.5866 0.302979 30.7309 2.60875 33.2608 6.14591V6.14465Z" fill="#F9FAFB"/>
<path d="M32.5558 19.9947C32.5558 19.9947 32.552 19.9903 32.552 19.9878" stroke="#F9FAFB" stroke-width="0.0316553" stroke-miterlimit="10"/>
<path d="M53.5593 4.37746L45.5283 12.4299L42.7376 15.2276C40.6971 17.5556 37.895 19.2004 34.7206 19.7746C34.0489 19.8955 33.36 19.9696 32.6579 19.9892C32.6206 19.9892 32.5826 19.9879 32.5452 19.9854H32.544C28.1907 19.8164 24.3471 17.6575 21.8996 14.3913L19.6736 12.2039L14.5796 7.19794C15.7914 8.17609 17.1696 8.95544 18.665 9.48599C18.9809 9.59868 19.3013 9.69934 19.628 9.78861C20.8081 10.1128 22.0509 10.2862 23.3342 10.2862C27.2151 10.2862 30.727 8.70157 33.2556 6.14319C33.286 6.18561 33.2271 6.0995 33.2556 6.14319C35.6443 2.68453 39.7253 0.545898 44.2463 0.545898C44.5363 0.545898 44.825 0.555395 45.1105 0.575021C45.4194 0.594015 45.7246 0.624404 46.0272 0.665555C48.9471 1.05745 51.5663 2.40216 53.5593 4.37746Z" fill="#F9FAFB"/>
<path d="M53.5647 4.375L53.5637 4.37594" stroke="#F9FAFB" stroke-width="0.0316553" stroke-miterlimit="10"/>
<path d="M40.6012 27.7124C40.5987 27.6764 40.5974 27.6398 40.5974 27.6038" stroke="#F9FAFB" stroke-width="0.0316553" stroke-miterlimit="10"/>
<path d="M40.6012 27.7124C40.5987 27.6764 40.5974 27.6398 40.5974 27.6038" stroke="#F9FAFB" stroke-width="0.0316553" stroke-miterlimit="10"/>
<path d="M54.4453 28.3087C51.8869 25.78 50.3022 22.2688 50.3022 18.3873C50.3022 17.104 50.4757 15.8612 50.7999 14.6811C50.8891 14.3544 50.9898 14.034 51.1025 13.7181C51.633 12.2227 52.4124 10.8444 53.3905 9.63268C54.1851 8.64567 55.1126 7.76945 56.1458 7.03125C58.1274 8.99071 59.5247 11.5396 60.0527 14.3943C60.1116 14.7051 60.1584 15.0198 60.1945 15.3382C60.2553 15.8675 60.287 16.4063 60.287 16.9527C60.287 21.6345 57.9812 25.7788 54.444 28.3087H54.4453Z" fill="#F9FAFB"/>
<path d="M40.5972 27.6019C40.5972 27.6019 40.6016 27.5981 40.6041 27.5981" stroke="#F9FAFB" stroke-width="0.0316553" stroke-miterlimit="10"/>
<path d="M56.2131 48.6135L48.1606 40.5825L45.3629 37.7918C43.035 35.7513 41.3902 32.9492 40.8159 29.7748C40.695 29.1031 40.6209 28.4142 40.6013 27.7121C40.6013 27.6748 40.6026 27.6368 40.6051 27.5994V27.5982C40.7742 23.2449 42.933 19.4013 46.1992 16.9538L48.3866 14.7278L53.3926 9.63379C52.4144 10.8456 51.6351 12.2238 51.1045 13.7192C50.9919 14.0351 50.8912 14.3555 50.8019 14.6822C50.4778 15.8623 50.3043 17.1051 50.3043 18.3884C50.3043 22.2693 51.889 25.7812 54.4473 28.3098C54.491 28.2813 54.4049 28.3402 54.4473 28.3098C57.9073 30.6991 60.0459 34.7795 60.0459 39.3005C60.0459 39.5905 60.0364 39.8792 60.0168 40.1647C59.9978 40.4736 59.9674 40.7788 59.9262 41.0814C59.5344 44.0013 58.1896 46.6205 56.2143 48.6135H56.2131Z" fill="#F9FAFB"/>
<path d="M56.2129 48.6142L56.2119 48.6133" stroke="#F9FAFB" stroke-width="0.0316553" stroke-miterlimit="10"/>
<path d="M24.9138 28.0483C24.9163 28.0843 24.9176 28.121 24.9176 28.157" stroke="#F9FAFB" stroke-width="0.0316553" stroke-miterlimit="10"/>
<path d="M24.9138 28.0483C24.9163 28.0843 24.9176 28.121 24.9176 28.157" stroke="#F9FAFB" stroke-width="0.0316553" stroke-miterlimit="10"/>
<path d="M11.0692 27.4534C13.6276 29.982 15.2123 33.4932 15.2123 37.3748C15.2123 38.6581 15.0388 39.9009 14.7146 41.081C14.6254 41.4077 14.5247 41.728 14.412 42.0439C13.8815 43.5393 13.1021 44.9176 12.124 46.1294C11.3294 47.1164 10.4019 47.9926 9.36868 48.7308C7.38706 46.7713 5.9898 44.2224 5.46179 41.3678C5.40291 41.0569 5.35606 40.7423 5.31997 40.4238C5.25919 39.8945 5.22754 39.3558 5.22754 38.8094C5.22754 34.1276 7.53331 29.9833 11.0705 27.4534H11.0692Z" fill="#F9FAFB"/>
<path d="M24.9169 28.1575C24.9169 28.1575 24.9124 28.1613 24.9099 28.1613" stroke="#F9FAFB" stroke-width="0.0316553" stroke-miterlimit="10"/>
<path d="M9.30304 7.14648L17.3555 15.1774L20.1532 17.9682C22.4811 20.0087 24.1259 22.8108 24.7002 25.9852C24.8211 26.6569 24.8952 27.3457 24.9148 28.0478C24.9148 28.0852 24.9135 28.1232 24.911 28.1605V28.1618C24.742 32.515 22.5831 36.3586 19.3169 38.8062L17.1295 41.0322L12.1235 46.1262C13.1017 44.9144 13.881 43.5361 14.4116 42.0407C14.5243 41.7248 14.6249 41.4045 14.7142 41.0778C15.0383 39.8977 15.2118 38.6549 15.2118 37.3716C15.2118 33.4907 13.6272 29.9788 11.0688 27.4502C11.1112 27.4198 11.0251 27.4787 11.0688 27.4502C7.60885 25.0609 5.47021 20.9805 5.47021 16.4595C5.47021 16.1695 5.47971 15.8808 5.49934 15.5953C5.51833 15.2863 5.54872 14.9812 5.58987 14.6785C5.98176 11.7587 7.32648 9.1395 9.30177 7.14648H9.30304Z" fill="#F9FAFB"/>
<path d="M9.29932 7.14648L9.30026 7.14743" stroke="#F9FAFB" stroke-width="0.0316553" stroke-miterlimit="10"/>
<path d="M33.0183 35.8436C33.0543 35.8411 33.091 35.8398 33.127 35.8398" stroke="#F9FAFB" stroke-width="0.0316553" stroke-miterlimit="10"/>
<path d="M33.0183 35.8436C33.0543 35.8411 33.091 35.8398 33.127 35.8398" stroke="#F9FAFB" stroke-width="0.0316553" stroke-miterlimit="10"/>
<path d="M32.425 49.6894C34.9537 47.1311 38.4649 45.5464 42.3464 45.5464C43.6298 45.5464 44.8725 45.7199 46.0526 46.044C46.3793 46.1333 46.6997 46.2339 47.0156 46.3466C48.511 46.8772 49.8893 47.6565 51.101 48.6347C52.088 49.4292 52.9643 50.3567 53.7025 51.39C51.743 53.3716 49.1941 54.7688 46.3394 55.2969C46.0286 55.3557 45.7139 55.4026 45.3955 55.4387C44.8662 55.4994 44.3274 55.5311 43.7811 55.5311C39.0992 55.5311 34.9549 53.2253 32.425 49.6882V49.6894Z" fill="#F9FAFB"/>
<path d="M33.1301 35.8398C33.1301 35.8398 33.1339 35.8443 33.1339 35.8468" stroke="#F9FAFB" stroke-width="0.0316553" stroke-miterlimit="10"/>
<path d="M12.1187 51.4533L20.1496 43.4008L22.9403 40.6031C24.9808 38.2752 27.783 36.6304 30.9574 36.0562C31.6291 35.9353 32.3179 35.8612 33.02 35.8416C33.0574 35.8416 33.0953 35.8428 33.1327 35.8454H33.134C37.4872 36.0144 41.3308 38.1733 43.7784 41.4395L46.0044 43.6269L51.0983 48.6328C49.8866 47.6547 48.5083 46.8753 47.0129 46.3448C46.697 46.2321 46.3766 46.1314 46.05 46.0422C44.8698 45.718 43.6271 45.5445 42.3438 45.5445C38.4628 45.5445 34.951 47.1292 32.4224 49.6876C32.4508 49.7313 32.392 49.6452 32.4224 49.6876C30.033 53.1475 25.9526 55.2861 21.4316 55.2861C21.1417 55.2861 20.853 55.2766 20.5675 55.257C20.2585 55.238 19.9533 55.2076 19.6507 55.1665C16.7308 54.7746 14.1117 53.4299 12.1187 51.4546V51.4533Z" fill="#F9FAFB"/>
<path d="M12.1187 51.455L12.1196 51.4541" stroke="#F9FAFB" stroke-width="0.0316553" stroke-miterlimit="10"/>
</g>
<defs>
<clipPath id="clip0_486_45792">
<rect width="63.3106" height="55.2296" fill="white" transform="translate(0.866699 0.303467)"/>
</clipPath>
</defs>
</svg>
