<svg width="65" height="56" viewBox="0 0 65 56" fill="none" xmlns="http://www.w3.org/2000/svg">
<g clip-path="url(#clip0_486_40122)">
<path d="M32.7417 20.3157C32.7057 20.3182 32.6691 20.3195 32.6331 20.3195" stroke="#F9FAFB" stroke-width="0.0316553" stroke-miterlimit="10"/>
<path d="M32.7417 20.3157C32.7057 20.3182 32.6691 20.3195 32.6331 20.3195" stroke="#F9FAFB" stroke-width="0.0316553" stroke-miterlimit="10"/>
<path d="M33.338 6.47082C30.8093 9.0292 27.2981 10.6139 23.4166 10.6139C22.1333 10.6139 20.8905 10.4404 19.7104 10.1162C19.3837 10.027 19.0633 9.92631 18.7474 9.81362C17.252 9.28307 15.8737 8.50372 14.662 7.52557C13.675 6.73103 12.7987 5.80353 12.0605 4.7703C14.02 2.78868 16.5689 1.39141 19.4236 0.8634C19.7344 0.804521 20.0491 0.757671 20.3675 0.721584C20.8968 0.660806 21.4356 0.62915 21.9819 0.62915C26.6638 0.62915 30.8081 2.93492 33.338 6.47209V6.47082Z" fill="#F9FAFB"/>
<path d="M32.6329 20.3204C32.6329 20.3204 32.6292 20.316 32.6292 20.3135" stroke="#F9FAFB" stroke-width="0.0316553" stroke-miterlimit="10"/>
<path d="M53.6367 4.70363L45.6057 12.7561L42.815 15.5538C40.7745 17.8817 37.9724 19.5265 34.798 20.1008C34.1263 20.2217 33.4374 20.2958 32.7353 20.3154C32.698 20.3154 32.66 20.3141 32.6226 20.3116H32.6214C28.2681 20.1425 24.4245 17.9837 21.977 14.7175L19.751 12.5301L14.657 7.52411C15.8687 8.50226 17.247 9.28162 18.7424 9.81216C19.0583 9.92485 19.3787 10.0255 19.7054 10.1148C20.8855 10.4389 22.1283 10.6124 23.4116 10.6124C27.2925 10.6124 30.8043 9.02774 33.333 6.46936C33.3634 6.51178 33.3045 6.42568 33.333 6.46936C35.7217 3.0107 39.8027 0.87207 44.3237 0.87207C44.6137 0.87207 44.9023 0.881567 45.1879 0.901193C45.4968 0.920186 45.802 0.950575 46.1046 0.991727C49.0245 1.38362 51.6437 2.72834 53.6367 4.70363Z" fill="#F9FAFB"/>
<path d="M53.6418 4.70068L53.6409 4.70162" stroke="#F9FAFB" stroke-width="0.0316553" stroke-miterlimit="10"/>
<path d="M40.6779 28.0383C40.6753 28.0023 40.6741 27.9657 40.6741 27.9297" stroke="#F9FAFB" stroke-width="0.0316553" stroke-miterlimit="10"/>
<path d="M40.6779 28.0383C40.6753 28.0023 40.6741 27.9657 40.6741 27.9297" stroke="#F9FAFB" stroke-width="0.0316553" stroke-miterlimit="10"/>
<path d="M54.5215 28.6346C51.9631 26.106 50.3784 22.5948 50.3784 18.7132C50.3784 17.4299 50.5519 16.1871 50.876 15.007C50.9653 14.6803 51.066 14.36 51.1787 14.044C51.7092 12.5486 52.4886 11.1704 53.4667 9.95861C54.2613 8.9716 55.1888 8.09538 56.222 7.35718C58.2036 9.31664 59.6009 11.8655 60.1289 14.7202C60.1878 15.0311 60.2346 15.3457 60.2707 15.6642C60.3315 16.1934 60.3631 16.7322 60.3631 17.2786C60.3631 21.9604 58.0574 26.1047 54.5202 28.6346H54.5215Z" fill="#F9FAFB"/>
<path d="M40.6741 27.9274C40.6741 27.9274 40.6785 27.9236 40.681 27.9236" stroke="#F9FAFB" stroke-width="0.0316553" stroke-miterlimit="10"/>
<path d="M56.2895 48.9394L48.237 40.9085L45.4393 38.1177C43.1114 36.0772 41.4666 33.2751 40.8924 30.1007C40.7714 29.429 40.6974 28.7402 40.6777 28.0381C40.6777 28.0007 40.679 27.9627 40.6815 27.9254V27.9241C40.8506 23.5709 43.0095 19.7273 46.2757 17.2797L48.463 15.0537L53.469 9.95972C52.4909 11.1715 51.7115 12.5498 51.181 14.0451C51.0683 14.3611 50.9676 14.6814 50.8783 15.0081C50.5542 16.1882 50.3807 17.431 50.3807 18.7143C50.3807 22.5952 51.9654 26.1071 54.5238 28.6357C54.5674 28.6072 54.4813 28.6661 54.5238 28.6357C57.9837 31.0251 60.1223 35.1054 60.1223 39.6264C60.1223 39.9164 60.1128 40.2051 60.0932 40.4906C60.0742 40.7996 60.0438 41.1047 60.0027 41.4074C59.6108 44.3272 58.266 46.9464 56.2908 48.9394H56.2895Z" fill="#F9FAFB"/>
<path d="M56.289 48.9401L56.2881 48.9392" stroke="#F9FAFB" stroke-width="0.0316553" stroke-miterlimit="10"/>
<path d="M24.9919 28.374C24.9945 28.41 24.9957 28.4467 24.9957 28.4827" stroke="#F9FAFB" stroke-width="0.0316553" stroke-miterlimit="10"/>
<path d="M24.9919 28.374C24.9945 28.41 24.9957 28.4467 24.9957 28.4827" stroke="#F9FAFB" stroke-width="0.0316553" stroke-miterlimit="10"/>
<path d="M11.1466 27.7791C13.705 30.3077 15.2896 33.8189 15.2896 37.7005C15.2896 38.9838 15.1162 40.2265 14.792 41.4067C14.7028 41.7333 14.6021 42.0537 14.4894 42.3696C13.9589 43.865 13.1795 45.2433 12.2014 46.455C11.4068 47.4421 10.4793 48.3183 9.44608 49.0565C7.46446 47.097 6.06719 44.5481 5.53918 41.6935C5.4803 41.3826 5.43345 41.0679 5.39737 40.7495C5.33659 40.2202 5.30493 39.6814 5.30493 39.1351C5.30493 34.4533 7.6107 30.3089 11.1479 27.7791H11.1466Z" fill="#F9FAFB"/>
<path d="M24.9945 28.4841C24.9945 28.4841 24.9901 28.4879 24.9875 28.4879" stroke="#F9FAFB" stroke-width="0.0316553" stroke-miterlimit="10"/>
<path d="M9.38043 7.47241L17.4329 15.5034L20.2306 18.2941C22.5585 20.3346 24.2033 23.1367 24.7776 26.3111C24.8985 26.9828 24.9726 27.6717 24.9922 28.3738C24.9922 28.4111 24.9909 28.4491 24.9884 28.4865V28.4877C24.8194 32.841 22.6605 36.6846 19.3943 39.1321L17.2069 41.3581L12.2009 46.4521C13.1791 45.2403 13.9584 43.8621 14.489 42.3667C14.6017 42.0508 14.7023 41.7304 14.7916 41.4037C15.1157 40.2236 15.2892 38.9808 15.2892 37.6975C15.2892 33.8166 13.7045 30.3047 11.1462 27.7761C11.1886 27.7457 11.1025 27.8046 11.1462 27.7761C7.68624 25.3868 5.54761 21.3064 5.54761 16.7854C5.54761 16.4954 5.5571 16.2067 5.57673 15.9212C5.59572 15.6123 5.62611 15.3071 5.66726 15.0045C6.05916 12.0846 7.40387 9.46543 9.37916 7.47241H9.38043Z" fill="#F9FAFB"/>
<path d="M9.37695 7.47241L9.37789 7.47335" stroke="#F9FAFB" stroke-width="0.0316553" stroke-miterlimit="10"/>
<path d="M33.0955 36.1698C33.1315 36.1673 33.1681 36.166 33.2041 36.166" stroke="#F9FAFB" stroke-width="0.0316553" stroke-miterlimit="10"/>
<path d="M33.0955 36.1698C33.1315 36.1673 33.1681 36.166 33.2041 36.166" stroke="#F9FAFB" stroke-width="0.0316553" stroke-miterlimit="10"/>
<path d="M32.502 50.0154C35.0306 47.457 38.5418 45.8723 42.4234 45.8723C43.7067 45.8723 44.9494 46.0458 46.1296 46.3699C46.4562 46.4592 46.7766 46.5599 47.0925 46.6726C48.5879 47.2031 49.9662 47.9825 51.1779 48.9606C52.1649 49.7552 53.0412 50.6827 53.7794 51.7159C51.8199 53.6975 49.271 55.0948 46.4164 55.6228C46.1055 55.6817 45.7908 55.7285 45.4724 55.7646C44.9431 55.8254 44.4043 55.857 43.858 55.857C39.1762 55.857 35.0318 53.5513 32.502 50.0141V50.0154Z" fill="#F9FAFB"/>
<path d="M33.2073 36.166C33.2073 36.166 33.2111 36.1704 33.2111 36.173" stroke="#F9FAFB" stroke-width="0.0316553" stroke-miterlimit="10"/>
<path d="M12.1953 51.7797L20.2263 43.7273L23.017 40.9296C25.0575 38.6016 27.8596 36.9568 31.034 36.3826C31.7057 36.2617 32.3946 36.1876 33.0967 36.168C33.134 36.168 33.172 36.1692 33.2094 36.1718H33.2106C37.5639 36.3408 41.4074 38.4997 43.855 41.7659L46.081 43.9533L51.175 48.9592C49.9632 47.9811 48.585 47.2017 47.0896 46.6712C46.7737 46.5585 46.4533 46.4578 46.1266 46.3686C44.9465 46.0444 43.7037 45.871 42.4204 45.871C38.5395 45.871 35.0276 47.4556 32.499 50.014C32.5275 50.0577 32.4686 49.9716 32.499 50.014C30.1097 53.4739 26.0293 55.6126 21.5083 55.6126C21.2183 55.6126 20.9296 55.6031 20.6441 55.5834C20.3352 55.5644 20.03 55.534 19.7274 55.4929C16.8075 55.101 14.1883 53.7563 12.1953 51.781V51.7797Z" fill="#F9FAFB"/>
<path d="M12.1953 51.7812L12.1963 51.7803" stroke="#F9FAFB" stroke-width="0.0316553" stroke-miterlimit="10"/>
</g>
<defs>
<clipPath id="clip0_486_40122">
<rect width="63.3106" height="55.2296" fill="white" transform="translate(0.94458 0.629639)"/>
</clipPath>
</defs>
</svg>
