<svg width="65" height="56" viewBox="0 0 65 56" fill="none" xmlns="http://www.w3.org/2000/svg">
<g clip-path="url(#clip0_486_39312)">
<path d="M32.6646 19.8564C32.6286 19.859 32.5919 19.8602 32.5559 19.8602" stroke="#F9FAFB" stroke-width="0.0316553" stroke-miterlimit="10"/>
<path d="M32.6646 19.8564C32.6286 19.859 32.5919 19.8602 32.5559 19.8602" stroke="#F9FAFB" stroke-width="0.0316553" stroke-miterlimit="10"/>
<path d="M33.2608 6.01232C30.7322 8.5707 27.221 10.1554 23.3394 10.1554C22.0561 10.1554 20.8133 9.9819 19.6332 9.65775C19.3065 9.56848 18.9862 9.46781 18.6703 9.35512C17.1749 8.82458 15.7966 8.04523 14.5848 7.06708C13.5978 6.27253 12.7216 5.34503 11.9834 4.3118C13.9429 2.33018 16.4917 0.932914 19.3464 0.404903C19.6573 0.346025 19.9719 0.299175 20.2904 0.263088C20.8197 0.20231 21.3584 0.170654 21.9048 0.170654C26.5866 0.170654 30.7309 2.47643 33.2608 6.01359V6.01232Z" fill="#F9FAFB"/>
<path d="M32.5558 19.8617C32.5558 19.8617 32.552 19.8573 32.552 19.8547" stroke="#F9FAFB" stroke-width="0.0316553" stroke-miterlimit="10"/>
<path d="M53.5598 4.24464L45.5288 12.2971L42.7381 15.0948C40.6976 17.4227 37.8955 19.0676 34.7211 19.6418C34.0493 19.7627 33.3605 19.8368 32.6584 19.8564C32.6211 19.8564 32.5831 19.8551 32.5457 19.8526H32.5445C28.1912 19.6836 24.3476 17.5247 21.9 14.2585L19.674 12.0711L14.5801 7.06513C15.7918 8.04328 17.1701 8.82263 18.6655 9.35318C18.9814 9.46587 19.3018 9.56653 19.6285 9.6558C20.8086 9.97995 22.0514 10.1534 23.3347 10.1534C27.2156 10.1534 30.7274 8.56876 33.2561 6.01038C33.2865 6.05279 33.2276 5.96669 33.2561 6.01038C35.6448 2.55172 39.7258 0.413086 44.2468 0.413086C44.5367 0.413086 44.8254 0.422583 45.111 0.442209C45.4199 0.461202 45.7251 0.491591 46.0277 0.532743C48.9476 0.924636 51.5668 2.26935 53.5598 4.24464Z" fill="#F9FAFB"/>
<path d="M53.5647 4.24268L53.5637 4.24362" stroke="#F9FAFB" stroke-width="0.0316553" stroke-miterlimit="10"/>
<path d="M40.601 27.5808C40.5984 27.5448 40.5972 27.5082 40.5972 27.4722" stroke="#F9FAFB" stroke-width="0.0316553" stroke-miterlimit="10"/>
<path d="M40.601 27.5808C40.5984 27.5448 40.5972 27.5082 40.5972 27.4722" stroke="#F9FAFB" stroke-width="0.0316553" stroke-miterlimit="10"/>
<path d="M54.4448 28.1768C51.8864 25.6482 50.3018 22.137 50.3018 18.2554C50.3018 16.9721 50.4752 15.7293 50.7994 14.5492C50.8886 14.2225 50.9893 13.9022 51.102 13.5863C51.6325 12.0909 52.4119 10.7126 53.3901 9.50085C54.1846 8.51383 55.1121 7.63762 56.1453 6.89941C58.1269 8.85888 59.5242 11.4078 60.0522 14.2624C60.1111 14.5733 60.158 14.8879 60.194 15.2064C60.2548 15.7357 60.2865 16.2744 60.2865 16.8208C60.2865 21.5026 57.9807 25.6469 54.4435 28.1768H54.4448Z" fill="#F9FAFB"/>
<path d="M40.5972 27.4703C40.5972 27.4703 40.6016 27.4666 40.6041 27.4666" stroke="#F9FAFB" stroke-width="0.0316553" stroke-miterlimit="10"/>
<path d="M56.2131 48.4817L48.1606 40.4507L45.3629 37.66C43.035 35.6195 41.3902 32.8173 40.8159 29.643C40.695 28.9712 40.6209 28.2824 40.6013 27.5803C40.6013 27.5429 40.6026 27.505 40.6051 27.4676V27.4663C40.7742 23.1131 42.933 19.2695 46.1992 16.8219L48.3866 14.5959L53.3926 9.50195C52.4144 10.7137 51.6351 12.092 51.1045 13.5874C50.9919 13.9033 50.8912 14.2237 50.8019 14.5503C50.4778 15.7304 50.3043 16.9732 50.3043 18.2565C50.3043 22.1375 51.889 25.6493 54.4473 28.1779C54.491 28.1495 54.4049 28.2083 54.4473 28.1779C57.9073 30.5673 60.0459 34.6477 60.0459 39.1687C60.0459 39.4586 60.0364 39.7473 60.0168 40.0329C59.9978 40.3418 59.9674 40.647 59.9262 40.9496C59.5344 43.8695 58.1896 46.4886 56.2143 48.4817H56.2131Z" fill="#F9FAFB"/>
<path d="M56.2124 48.4819L56.2114 48.481" stroke="#F9FAFB" stroke-width="0.0316553" stroke-miterlimit="10"/>
<path d="M24.9138 27.9158C24.9163 27.9518 24.9176 27.9884 24.9176 28.0244" stroke="#F9FAFB" stroke-width="0.0316553" stroke-miterlimit="10"/>
<path d="M24.9138 27.9158C24.9163 27.9518 24.9176 27.9884 24.9176 28.0244" stroke="#F9FAFB" stroke-width="0.0316553" stroke-miterlimit="10"/>
<path d="M11.0692 27.3208C13.6276 29.8494 15.2123 33.3606 15.2123 37.2422C15.2123 38.5255 15.0388 39.7683 14.7146 40.9484C14.6254 41.2751 14.5247 41.5954 14.412 41.9114C13.8815 43.4068 13.1021 44.785 12.124 45.9968C11.3294 46.9838 10.4019 47.86 9.36868 48.5982C7.38706 46.6388 5.9898 44.0899 5.46179 41.2352C5.40291 40.9243 5.35606 40.6097 5.31997 40.2912C5.25919 39.762 5.22754 39.2232 5.22754 38.6768C5.22754 33.995 7.53331 29.8507 11.0705 27.3208H11.0692Z" fill="#F9FAFB"/>
<path d="M24.9171 28.0259C24.9171 28.0259 24.9127 28.0297 24.9102 28.0297" stroke="#F9FAFB" stroke-width="0.0316553" stroke-miterlimit="10"/>
<path d="M9.30304 7.01392L17.3555 15.0449L20.1532 17.8356C22.4811 19.8761 24.1259 22.6782 24.7002 25.8526C24.8211 26.5243 24.8952 27.2132 24.9148 27.9153C24.9148 27.9526 24.9135 27.9906 24.911 28.028V28.0292C24.742 32.3825 22.5831 36.2261 19.3169 38.6736L17.1295 40.8996L12.1235 45.9936C13.1017 44.7819 13.881 43.4036 14.4116 41.9082C14.5243 41.5923 14.6249 41.2719 14.7142 40.9452C15.0383 39.7651 15.2118 38.5223 15.2118 37.239C15.2118 33.3581 13.6272 29.8462 11.0688 27.3176C11.1112 27.2872 11.0251 27.3461 11.0688 27.3176C7.60885 24.9283 5.47021 20.8479 5.47021 16.3269C5.47021 16.0369 5.47971 15.7482 5.49934 15.4627C5.51833 15.1538 5.54872 14.8486 5.58987 14.546C5.98176 11.6261 7.32648 9.00693 9.30177 7.01392H9.30304Z" fill="#F9FAFB"/>
<path d="M9.2998 7.01367L9.30075 7.01461" stroke="#F9FAFB" stroke-width="0.0316553" stroke-miterlimit="10"/>
<path d="M33.0186 35.7108C33.0546 35.7083 33.0912 35.707 33.1272 35.707" stroke="#F9FAFB" stroke-width="0.0316553" stroke-miterlimit="10"/>
<path d="M33.0186 35.7108C33.0546 35.7083 33.0912 35.707 33.1272 35.707" stroke="#F9FAFB" stroke-width="0.0316553" stroke-miterlimit="10"/>
<path d="M32.4253 49.5564C34.9539 46.998 38.4651 45.4133 42.3467 45.4133C43.63 45.4133 44.8728 45.5868 46.0529 45.911C46.3796 46.0002 46.6999 46.1009 47.0158 46.2136C48.5112 46.7441 49.8895 47.5235 51.1013 48.5016C52.0883 49.2962 52.9645 50.2237 53.7027 51.2569C51.7432 53.2385 49.1944 54.6358 46.3397 55.1638C46.0288 55.2227 45.7142 55.2695 45.3957 55.3056C44.8665 55.3664 44.3277 55.398 43.7813 55.398C39.0995 55.398 34.9552 53.0923 32.4253 49.5551V49.5564Z" fill="#F9FAFB"/>
<path d="M33.1304 35.707C33.1304 35.707 33.1342 35.7114 33.1342 35.714" stroke="#F9FAFB" stroke-width="0.0316553" stroke-miterlimit="10"/>
<path d="M12.1187 51.3207L20.1496 43.2683L22.9403 40.4706C24.9808 38.1426 27.783 36.4978 30.9574 35.9236C31.6291 35.8027 32.3179 35.7286 33.02 35.709C33.0574 35.709 33.0953 35.7103 33.1327 35.7128H33.134C37.4872 35.8818 41.3308 38.0407 43.7784 41.3069L46.0044 43.4943L51.0983 48.5003C49.8866 47.5221 48.5083 46.7428 47.0129 46.2122C46.697 46.0995 46.3766 45.9989 46.05 45.9096C44.8698 45.5854 43.6271 45.412 42.3438 45.412C38.4628 45.412 34.951 46.9966 32.4224 49.555C32.4508 49.5987 32.392 49.5126 32.4224 49.555C30.033 53.0149 25.9526 55.1536 21.4316 55.1536C21.1417 55.1536 20.853 55.1441 20.5675 55.1244C20.2585 55.1054 19.9533 55.0751 19.6507 55.0339C16.7308 54.642 14.1117 53.2973 12.1187 51.322V51.3207Z" fill="#F9FAFB"/>
<path d="M12.1187 51.3222L12.1196 51.3213" stroke="#F9FAFB" stroke-width="0.0316553" stroke-miterlimit="10"/>
</g>
<defs>
<clipPath id="clip0_486_39312">
<rect width="63.3106" height="55.2296" fill="white" transform="translate(0.866699 0.17041)"/>
</clipPath>
</defs>
</svg>
