<svg width="65" height="56" viewBox="0 0 65 56" fill="none" xmlns="http://www.w3.org/2000/svg">
<g clip-path="url(#clip0_486_40752)">
<path d="M32.6643 19.7751C32.6283 19.7777 32.5917 19.7789 32.5557 19.7789" stroke="#F9FAFB" stroke-width="0.0316553" stroke-miterlimit="10"/>
<path d="M32.6643 19.7751C32.6283 19.7777 32.5917 19.7789 32.5557 19.7789" stroke="#F9FAFB" stroke-width="0.0316553" stroke-miterlimit="10"/>
<path d="M33.2608 5.93078C30.7322 8.48916 27.221 10.0738 23.3394 10.0738C22.0561 10.0738 20.8133 9.90035 19.6332 9.5762C19.3065 9.48694 18.9862 9.38627 18.6703 9.27358C17.1749 8.74304 15.7966 7.96368 14.5848 6.98553C13.5978 6.19099 12.7216 5.26349 11.9834 4.23026C13.9429 2.24864 16.4917 0.851371 19.3464 0.323361C19.6573 0.264482 19.9719 0.217632 20.2904 0.181545C20.8197 0.120767 21.3584 0.0891113 21.9048 0.0891113C26.5866 0.0891113 30.7309 2.39488 33.2608 5.93205V5.93078Z" fill="#F9FAFB"/>
<path d="M32.5555 19.7801C32.5555 19.7801 32.5518 19.7757 32.5518 19.7732" stroke="#F9FAFB" stroke-width="0.0316553" stroke-miterlimit="10"/>
<path d="M53.5593 4.16334L45.5283 12.2158L42.7376 15.0135C40.6971 17.3414 37.895 18.9863 34.7206 19.5605C34.0489 19.6814 33.36 19.7555 32.6579 19.7751C32.6206 19.7751 32.5826 19.7738 32.5452 19.7713H32.544C28.1907 19.6023 24.3471 17.4434 21.8996 14.1772L19.6736 11.9898L14.5796 6.98383C15.7914 7.96198 17.1696 8.74133 18.665 9.27188C18.9809 9.38457 19.3013 9.48523 19.628 9.5745C20.8081 9.89865 22.0509 10.0721 23.3342 10.0721C27.2151 10.0721 30.727 8.48746 33.2556 5.92908C33.286 5.97149 33.2271 5.88539 33.2556 5.92908C35.6443 2.47042 39.7253 0.331787 44.2463 0.331787C44.5363 0.331787 44.825 0.341284 45.1105 0.36091C45.4194 0.379903 45.7246 0.410292 46.0272 0.451444C48.9471 0.843337 51.5663 2.18805 53.5593 4.16334Z" fill="#F9FAFB"/>
<path d="M53.5644 4.16113L53.5635 4.16207" stroke="#F9FAFB" stroke-width="0.0316553" stroke-miterlimit="10"/>
<path d="M40.601 27.4968C40.5984 27.4608 40.5972 27.4242 40.5972 27.3882" stroke="#F9FAFB" stroke-width="0.0316553" stroke-miterlimit="10"/>
<path d="M40.601 27.4968C40.5984 27.4608 40.5972 27.4242 40.5972 27.3882" stroke="#F9FAFB" stroke-width="0.0316553" stroke-miterlimit="10"/>
<path d="M54.4453 28.0933C51.8869 25.5647 50.3022 22.0535 50.3022 18.1719C50.3022 16.8886 50.4757 15.6458 50.7999 14.4657C50.8891 14.1391 50.9898 13.8187 51.1025 13.5028C51.633 12.0074 52.4124 10.6291 53.3905 9.41735C54.1851 8.43034 55.1126 7.55412 56.1458 6.81592C58.1274 8.77538 59.5247 11.3243 60.0527 14.1789C60.1116 14.4898 60.1584 14.8044 60.1945 15.1229C60.2553 15.6522 60.287 16.1909 60.287 16.7373C60.287 21.4191 57.9812 25.5634 54.444 28.0933H54.4453Z" fill="#F9FAFB"/>
<path d="M40.5972 27.3861C40.5972 27.3861 40.6016 27.3823 40.6041 27.3823" stroke="#F9FAFB" stroke-width="0.0316553" stroke-miterlimit="10"/>
<path d="M56.2131 48.3977L48.1606 40.3667L45.3629 37.576C43.035 35.5355 41.3902 32.7334 40.8159 29.559C40.695 28.8872 40.6209 28.1984 40.6013 27.4963C40.6013 27.459 40.6026 27.421 40.6051 27.3836V27.3823C40.7742 23.0291 42.933 19.1855 46.1992 16.7379L48.3866 14.5119L53.3926 9.41797C52.4144 10.6297 51.6351 12.008 51.1045 13.5034C50.9919 13.8193 50.8912 14.1397 50.8019 14.4664C50.4778 15.6465 50.3043 16.8893 50.3043 18.1726C50.3043 22.0535 51.889 25.5653 54.4473 28.094C54.491 28.0655 54.4049 28.1243 54.4473 28.094C57.9073 30.4833 60.0459 34.5637 60.0459 39.0847C60.0459 39.3746 60.0364 39.6633 60.0168 39.9489C59.9978 40.2578 59.9674 40.563 59.9262 40.8656C59.5344 43.7855 58.1896 46.4047 56.2143 48.3977H56.2131Z" fill="#F9FAFB"/>
<path d="M56.2126 48.3986L56.2117 48.3977" stroke="#F9FAFB" stroke-width="0.0316553" stroke-miterlimit="10"/>
<path d="M24.9136 27.8345C24.9161 27.8705 24.9174 27.9071 24.9174 27.9431" stroke="#F9FAFB" stroke-width="0.0316553" stroke-miterlimit="10"/>
<path d="M24.9136 27.8345C24.9161 27.8705 24.9174 27.9071 24.9174 27.9431" stroke="#F9FAFB" stroke-width="0.0316553" stroke-miterlimit="10"/>
<path d="M11.0692 27.2393C13.6276 29.7679 15.2123 33.2791 15.2123 37.1607C15.2123 38.444 15.0388 39.6868 14.7146 40.8669C14.6254 41.1935 14.5247 41.5139 14.412 41.8298C13.8815 43.3252 13.1021 44.7035 12.124 45.9152C11.3294 46.9023 10.4019 47.7785 9.36868 48.5167C7.38706 46.5572 5.9898 44.0083 5.46179 41.1537C5.40291 40.8428 5.35606 40.5281 5.31997 40.2097C5.25919 39.6804 5.22754 39.1416 5.22754 38.5953C5.22754 33.9135 7.53331 29.7691 11.0705 27.2393H11.0692Z" fill="#F9FAFB"/>
<path d="M24.9169 27.9441C24.9169 27.9441 24.9124 27.9479 24.9099 27.9479" stroke="#F9FAFB" stroke-width="0.0316553" stroke-miterlimit="10"/>
<path d="M9.30304 6.93262L17.3555 14.9636L20.1532 17.7543C22.4811 19.7948 24.1259 22.5969 24.7002 25.7713C24.8211 26.443 24.8952 27.1319 24.9148 27.834C24.9148 27.8713 24.9135 27.9093 24.911 27.9467V27.9479C24.742 32.3012 22.5831 36.1448 19.3169 38.5923L17.1295 40.8183L12.1235 45.9123C13.1017 44.7006 13.881 43.3223 14.4116 41.8269C14.5243 41.511 14.6249 41.1906 14.7142 40.8639C15.0383 39.6838 15.2118 38.441 15.2118 37.1577C15.2118 33.2768 13.6272 29.765 11.0688 27.2363C11.1112 27.2059 11.0251 27.2648 11.0688 27.2363C7.60885 24.847 5.47021 20.7666 5.47021 16.2456C5.47021 15.9556 5.47971 15.6669 5.49934 15.3814C5.51833 15.0725 5.54872 14.7673 5.58987 14.4647C5.98176 11.5448 7.32648 8.92563 9.30177 6.93262H9.30304Z" fill="#F9FAFB"/>
<path d="M9.29956 6.93262L9.3005 6.93356" stroke="#F9FAFB" stroke-width="0.0316553" stroke-miterlimit="10"/>
<path d="M33.0181 35.6295C33.0541 35.627 33.0907 35.6257 33.1267 35.6257" stroke="#F9FAFB" stroke-width="0.0316553" stroke-miterlimit="10"/>
<path d="M33.0181 35.6295C33.0541 35.627 33.0907 35.6257 33.1267 35.6257" stroke="#F9FAFB" stroke-width="0.0316553" stroke-miterlimit="10"/>
<path d="M32.4248 49.4751C34.9534 46.9167 38.4646 45.332 42.3462 45.332C43.6295 45.332 44.8723 45.5055 46.0524 45.8297C46.3791 45.9189 46.6994 46.0196 47.0154 46.1323C48.5108 46.6628 49.889 47.4422 51.1008 48.4203C52.0878 49.2149 52.964 50.1424 53.7022 51.1756C51.7428 53.1572 49.1939 54.5545 46.3392 55.0825C46.0283 55.1414 45.7137 55.1882 45.3952 55.2243C44.866 55.2851 44.3272 55.3167 43.7808 55.3167C39.099 55.3167 34.9547 53.011 32.4248 49.4738V49.4751Z" fill="#F9FAFB"/>
<path d="M33.1299 35.6257C33.1299 35.6257 33.1337 35.6301 33.1337 35.6327" stroke="#F9FAFB" stroke-width="0.0316553" stroke-miterlimit="10"/>
<path d="M12.1182 51.2392L20.1491 43.1867L22.9398 40.389C24.9803 38.0611 27.7825 36.4163 30.9569 35.8421C31.6286 35.7211 32.3174 35.6471 33.0195 35.6274C33.0569 35.6274 33.0949 35.6287 33.1322 35.6312H33.1335C37.4867 35.8003 41.3303 37.9592 43.7779 41.2254L46.0039 43.4127L51.0979 48.4187C49.8861 47.4406 48.5078 46.6612 47.0124 46.1307C46.6965 46.018 46.3762 45.9173 46.0495 45.828C44.8694 45.5039 43.6266 45.3304 42.3433 45.3304C38.4623 45.3304 34.9505 46.9151 32.4219 49.4735C32.4504 49.5172 32.3915 49.4311 32.4219 49.4735C30.0325 52.9334 25.9522 55.072 21.4312 55.072C21.1412 55.072 20.8525 55.0625 20.567 55.0429C20.258 55.0239 19.9528 54.9935 19.6502 54.9524C16.7303 54.5605 14.1112 53.2158 12.1182 51.2405V51.2392Z" fill="#F9FAFB"/>
<path d="M12.1182 51.2409L12.1191 51.24" stroke="#F9FAFB" stroke-width="0.0316553" stroke-miterlimit="10"/>
</g>
<defs>
<clipPath id="clip0_486_40752">
<rect width="63.3106" height="55.2296" fill="white" transform="translate(0.866699 0.0888672)"/>
</clipPath>
</defs>
</svg>
