<svg width="64" height="56" viewBox="0 0 64 56" fill="none" xmlns="http://www.w3.org/2000/svg">
<g clip-path="url(#clip0_486_39882)">
<path d="M32.2009 20.3159C32.1649 20.3184 32.1283 20.3197 32.0923 20.3197" stroke="#F9FAFB" stroke-width="0.0316553" stroke-miterlimit="10"/>
<path d="M32.2009 20.3159C32.1649 20.3184 32.1283 20.3197 32.0923 20.3197" stroke="#F9FAFB" stroke-width="0.0316553" stroke-miterlimit="10"/>
<path d="M32.7974 6.47106C30.2688 9.02944 26.7576 10.6141 22.876 10.6141C21.5927 10.6141 20.3499 10.4406 19.1698 10.1165C18.8432 10.0272 18.5228 9.92655 18.2069 9.81386C16.7115 9.28332 15.3332 8.50397 14.1215 7.52582C13.1344 6.73127 12.2582 5.80377 11.52 4.77054C13.4795 2.78892 16.0284 1.39165 18.883 0.863644C19.1939 0.804765 19.5085 0.757915 19.827 0.721828C20.3563 0.66105 20.895 0.629395 21.4414 0.629395C26.1232 0.629395 30.2675 2.93517 32.7974 6.47233V6.47106Z" fill="#F9FAFB"/>
<path d="M32.0927 20.3207C32.0927 20.3207 32.0889 20.3162 32.0889 20.3137" stroke="#F9FAFB" stroke-width="0.0316553" stroke-miterlimit="10"/>
<path d="M53.0959 4.70363L45.065 12.7561L42.2742 15.5538C40.2337 17.8817 37.4316 19.5265 34.2572 20.1008C33.5855 20.2217 32.8967 20.2958 32.1945 20.3154C32.1572 20.3154 32.1192 20.3141 32.0819 20.3116H32.0806C27.7274 20.1425 23.8838 17.9837 21.4362 14.7175L19.2102 12.5301L14.1162 7.52411C15.328 8.50226 16.7062 9.28162 18.2016 9.81216C18.5176 9.92485 18.8379 10.0255 19.1646 10.1148C20.3447 10.4389 21.5875 10.6124 22.8708 10.6124C26.7517 10.6124 30.2636 9.02774 32.7922 6.46936C32.8226 6.51178 32.7637 6.42568 32.7922 6.46936C35.1809 3.0107 39.2619 0.87207 43.7829 0.87207C44.0729 0.87207 44.3616 0.881567 44.6471 0.901193C44.9561 0.920186 45.2612 0.950575 45.5638 0.991727C48.4837 1.38362 51.1029 2.72834 53.0959 4.70363Z" fill="#F9FAFB"/>
<path d="M53.1015 4.70068L53.1006 4.70162" stroke="#F9FAFB" stroke-width="0.0316553" stroke-miterlimit="10"/>
<path d="M40.1371 28.0388C40.1346 28.0028 40.1333 27.9662 40.1333 27.9302" stroke="#F9FAFB" stroke-width="0.0316553" stroke-miterlimit="10"/>
<path d="M40.1371 28.0388C40.1346 28.0028 40.1333 27.9662 40.1333 27.9302" stroke="#F9FAFB" stroke-width="0.0316553" stroke-miterlimit="10"/>
<path d="M53.9804 28.6353C51.4221 26.1067 49.8374 22.5955 49.8374 18.7139C49.8374 17.4306 50.0109 16.1878 50.335 15.0077C50.4243 14.681 50.525 14.3607 50.6376 14.0448C51.1682 12.5494 51.9475 11.1711 52.9257 9.95934C53.7202 8.97233 54.6477 8.09611 55.681 7.35791C57.6626 9.31737 59.0599 11.8663 59.5879 14.7209C59.6467 15.0318 59.6936 15.3464 59.7297 15.6649C59.7905 16.1942 59.8221 16.7329 59.8221 17.2793C59.8221 21.9611 57.5163 26.1054 53.9792 28.6353H53.9804Z" fill="#F9FAFB"/>
<path d="M40.1333 27.9276C40.1333 27.9276 40.1377 27.9238 40.1402 27.9238" stroke="#F9FAFB" stroke-width="0.0316553" stroke-miterlimit="10"/>
<path d="M55.7485 48.9401L47.696 40.9092L44.8983 38.1185C42.5704 36.078 40.9256 33.2758 40.3513 30.1014C40.2304 29.4297 40.1563 28.7409 40.1367 28.0388C40.1367 28.0014 40.138 27.9635 40.1405 27.9261V27.9248C40.3096 23.5716 42.4684 19.728 45.7346 17.2804L47.922 15.0544L52.928 9.96045C51.9498 11.1722 51.1705 12.5505 50.6399 14.0459C50.5273 14.3618 50.4266 14.6822 50.3373 15.0088C50.0132 16.1889 49.8397 17.4317 49.8397 18.715C49.8397 22.596 51.4244 26.1078 53.9827 28.6364C54.0264 28.608 53.9403 28.6668 53.9827 28.6364C57.4427 31.0258 59.5813 35.1061 59.5813 39.6272C59.5813 39.9171 59.5718 40.2058 59.5522 40.4913C59.5332 40.8003 59.5028 41.1055 59.4616 41.4081C59.0698 44.328 57.725 46.9471 55.7497 48.9401H55.7485Z" fill="#F9FAFB"/>
<path d="M55.748 48.9409L55.7471 48.9399" stroke="#F9FAFB" stroke-width="0.0316553" stroke-miterlimit="10"/>
<path d="M24.4512 28.374C24.4537 28.41 24.455 28.4467 24.455 28.4827" stroke="#F9FAFB" stroke-width="0.0316553" stroke-miterlimit="10"/>
<path d="M24.4512 28.374C24.4537 28.41 24.455 28.4467 24.455 28.4827" stroke="#F9FAFB" stroke-width="0.0316553" stroke-miterlimit="10"/>
<path d="M10.6063 27.7791C13.1647 30.3077 14.7494 33.8189 14.7494 37.7005C14.7494 38.9838 14.5759 40.2265 14.2517 41.4067C14.1625 41.7333 14.0618 42.0537 13.9491 42.3696C13.4186 43.865 12.6392 45.2433 11.6611 46.455C10.8665 47.4421 9.93902 48.3183 8.90579 49.0565C6.92417 47.097 5.52691 44.5481 4.9989 41.6935C4.94002 41.3826 4.89317 41.0679 4.85708 40.7495C4.7963 40.2202 4.76465 39.6814 4.76465 39.1351C4.76465 34.4533 7.07042 30.3089 10.6076 27.7791H10.6063Z" fill="#F9FAFB"/>
<path d="M24.4542 28.4841C24.4542 28.4841 24.4498 28.4879 24.4473 28.4879" stroke="#F9FAFB" stroke-width="0.0316553" stroke-miterlimit="10"/>
<path d="M8.84064 7.47241L16.8931 15.5034L19.6908 18.2941C22.0187 20.3346 23.6635 23.1367 24.2378 26.3111C24.3587 26.9828 24.4328 27.6717 24.4524 28.3738C24.4524 28.4111 24.4511 28.4491 24.4486 28.4865V28.4877C24.2796 32.841 22.1207 36.6846 18.8545 39.1321L16.6671 41.3581L11.6611 46.4521C12.6393 45.2403 13.4186 43.8621 13.9492 42.3667C14.0619 42.0508 14.1625 41.7304 14.2518 41.4037C14.5759 40.2236 14.7494 38.9808 14.7494 37.6975C14.7494 33.8166 13.1647 30.3047 10.6064 27.7761C10.6488 27.7457 10.5627 27.8046 10.6064 27.7761C7.14644 25.3868 5.00781 21.3064 5.00781 16.7854C5.00781 16.4954 5.01731 16.2067 5.03694 15.9212C5.05593 15.6123 5.08632 15.3071 5.12747 15.0045C5.51936 12.0846 6.86408 9.46543 8.83937 7.47241H8.84064Z" fill="#F9FAFB"/>
<path d="M8.83691 7.47217L8.83785 7.47311" stroke="#F9FAFB" stroke-width="0.0316553" stroke-miterlimit="10"/>
<path d="M32.5552 36.1698C32.5912 36.1673 32.6278 36.166 32.6638 36.166" stroke="#F9FAFB" stroke-width="0.0316553" stroke-miterlimit="10"/>
<path d="M32.5552 36.1698C32.5912 36.1673 32.6278 36.166 32.6638 36.166" stroke="#F9FAFB" stroke-width="0.0316553" stroke-miterlimit="10"/>
<path d="M31.9614 50.0154C34.49 47.457 38.0013 45.8723 41.8828 45.8723C43.1661 45.8723 44.4089 46.0458 45.589 46.3699C45.9157 46.4592 46.2361 46.5599 46.552 46.6726C48.0474 47.2031 49.4256 47.9825 50.6374 48.9606C51.6244 49.7552 52.5006 50.6827 53.2388 51.7159C51.2794 53.6975 48.7305 55.0948 45.8758 55.6228C45.565 55.6817 45.2503 55.7285 44.9319 55.7646C44.4026 55.8254 43.8638 55.857 43.3174 55.857C38.6356 55.857 34.4913 53.5513 31.9614 50.0141V50.0154Z" fill="#F9FAFB"/>
<path d="M32.6665 36.166C32.6665 36.166 32.6703 36.1704 32.6703 36.173" stroke="#F9FAFB" stroke-width="0.0316553" stroke-miterlimit="10"/>
<path d="M11.6553 51.7797L19.6862 43.7273L22.477 40.9296C24.5175 38.6016 27.3196 36.9568 30.494 36.3826C31.1657 36.2617 31.8545 36.1876 32.5566 36.168C32.594 36.168 32.632 36.1692 32.6693 36.1718H32.6706C37.0238 36.3408 40.8674 38.4997 43.315 41.7659L45.541 43.9533L50.635 48.9592C49.4232 47.9811 48.0449 47.2017 46.5495 46.6712C46.2336 46.5585 45.9133 46.4578 45.5866 46.3686C44.4065 46.0444 43.1637 45.871 41.8804 45.871C37.9994 45.871 34.4876 47.4556 31.959 50.014C31.9875 50.0577 31.9286 49.9716 31.959 50.014C29.5696 53.4739 25.4893 55.6126 20.9683 55.6126C20.6783 55.6126 20.3896 55.6031 20.1041 55.5834C19.7951 55.5644 19.49 55.534 19.1873 55.4929C16.2674 55.101 13.6483 53.7563 11.6553 51.781V51.7797Z" fill="#F9FAFB"/>
<path d="M11.6553 51.781L11.6562 51.78" stroke="#F9FAFB" stroke-width="0.0316553" stroke-miterlimit="10"/>
</g>
<defs>
<clipPath id="clip0_486_39882">
<rect width="63.3106" height="55.2296" fill="white" transform="translate(0.403809 0.629639)"/>
</clipPath>
</defs>
</svg>
