<svg width="65" height="56" viewBox="0 0 65 56" fill="none" xmlns="http://www.w3.org/2000/svg">
<g clip-path="url(#clip0_486_41922)">
<path d="M32.7415 20.4646C32.7055 20.4671 32.6688 20.4684 32.6328 20.4684" stroke="#F9FAFB" stroke-width="0.0316553" stroke-miterlimit="10"/>
<path d="M32.7415 20.4646C32.7055 20.4671 32.6688 20.4684 32.6328 20.4684" stroke="#F9FAFB" stroke-width="0.0316553" stroke-miterlimit="10"/>
<path d="M33.3377 6.6195C30.8091 9.17788 27.2979 10.7625 23.4163 10.7625C22.133 10.7625 20.8902 10.5891 19.7101 10.2649C19.3834 10.1757 19.0631 10.075 18.7472 9.9623C17.2518 9.43176 15.8735 8.6524 14.6617 7.67425C13.6747 6.87971 12.7985 5.95221 12.0603 4.91898C14.0198 2.93736 16.5686 1.54009 19.4233 1.01208C19.7342 0.953202 20.0488 0.906353 20.3673 0.870265C20.8966 0.809487 21.4353 0.777832 21.9817 0.777832C26.6635 0.777832 30.8078 3.0836 33.3377 6.62077V6.6195Z" fill="#F9FAFB"/>
<path d="M32.6327 20.4698C32.6327 20.4698 32.6289 20.4654 32.6289 20.4629" stroke="#F9FAFB" stroke-width="0.0316553" stroke-miterlimit="10"/>
<path d="M53.6362 4.85255L45.6052 12.905L42.8145 15.7027C40.774 18.0307 37.9719 19.6755 34.7975 20.2497C34.1258 20.3706 33.4369 20.4447 32.7348 20.4643C32.6975 20.4643 32.6595 20.463 32.6221 20.4605H32.6209C28.2676 20.2915 24.4241 18.1326 21.9765 14.8664L19.7505 12.679L14.6565 7.67304C15.8683 8.65119 17.2465 9.43054 18.7419 9.96109C19.0578 10.0738 19.3782 10.1744 19.7049 10.2637C20.885 10.5879 22.1278 10.7613 23.4111 10.7613C27.292 10.7613 30.8039 9.17667 33.3325 6.61829C33.3629 6.6607 33.304 6.5746 33.3325 6.61829C35.7212 3.15963 39.8022 1.021 44.3232 1.021C44.6132 1.021 44.9019 1.03049 45.1874 1.05012C45.4963 1.06911 45.8015 1.0995 46.1041 1.14065C49.024 1.53255 51.6432 2.87726 53.6362 4.85255Z" fill="#F9FAFB"/>
<path d="M53.6421 4.85034L53.6411 4.85128" stroke="#F9FAFB" stroke-width="0.0316553" stroke-miterlimit="10"/>
<path d="M40.6776 28.1878C40.6751 28.1518 40.6738 28.1151 40.6738 28.0791" stroke="#F9FAFB" stroke-width="0.0316553" stroke-miterlimit="10"/>
<path d="M40.6776 28.1878C40.6751 28.1518 40.6738 28.1151 40.6738 28.0791" stroke="#F9FAFB" stroke-width="0.0316553" stroke-miterlimit="10"/>
<path d="M54.5212 28.7847C51.9628 26.2561 50.3782 22.7449 50.3782 18.8633C50.3782 17.58 50.5516 16.3373 50.8758 15.1571C50.9651 14.8305 51.0657 14.5101 51.1784 14.1942C51.709 12.6988 52.4883 11.3205 53.4665 10.1088C54.261 9.12174 55.1885 8.24553 56.2217 7.50732C58.2034 9.46679 59.6006 12.0157 60.1286 14.8703C60.1875 15.1812 60.2344 15.4959 60.2705 15.8143C60.3312 16.3436 60.3629 16.8824 60.3629 17.4287C60.3629 22.1105 58.0571 26.2549 54.52 28.7847H54.5212Z" fill="#F9FAFB"/>
<path d="M40.6738 28.0773C40.6738 28.0773 40.6782 28.0735 40.6808 28.0735" stroke="#F9FAFB" stroke-width="0.0316553" stroke-miterlimit="10"/>
<path d="M56.2897 49.0888L48.2373 41.0579L45.4396 38.2672C43.1116 36.2267 41.4668 33.4245 40.8926 30.2501C40.7717 29.5784 40.6976 28.8896 40.678 28.1875C40.678 28.1501 40.6792 28.1121 40.6818 28.0748V28.0735C40.8508 23.7203 43.0097 19.8767 46.2759 17.4291L48.4633 15.2031L53.4692 10.1091C52.4911 11.3209 51.7118 12.6992 51.1812 14.1946C51.0685 14.5105 50.9678 14.8308 50.8786 15.1575C50.5544 16.3376 50.381 17.5804 50.381 18.8637C50.381 22.7447 51.9656 26.2565 54.524 28.7851C54.5677 28.7566 54.4816 28.8155 54.524 28.7851C57.9839 31.1745 60.1226 35.2548 60.1226 39.7758C60.1226 40.0658 60.1131 40.3545 60.0934 40.64C60.0744 40.949 60.0441 41.2541 60.0029 41.5568C59.611 44.4767 58.2663 47.0958 56.291 49.0888H56.2897Z" fill="#F9FAFB"/>
<path d="M56.2888 49.0903L56.2878 49.0894" stroke="#F9FAFB" stroke-width="0.0316553" stroke-miterlimit="10"/>
<path d="M24.9912 28.5237C24.9937 28.5597 24.995 28.5963 24.995 28.6323" stroke="#F9FAFB" stroke-width="0.0316553" stroke-miterlimit="10"/>
<path d="M24.9912 28.5237C24.9937 28.5597 24.995 28.5963 24.995 28.6323" stroke="#F9FAFB" stroke-width="0.0316553" stroke-miterlimit="10"/>
<path d="M11.1464 27.928C13.7047 30.4566 15.2894 33.9678 15.2894 37.8494C15.2894 39.1327 15.1159 40.3755 14.7918 41.5556C14.7025 41.8823 14.6018 42.2026 14.4892 42.5185C13.9586 44.0139 13.1793 45.3922 12.2011 46.604C11.4066 47.591 10.4791 48.4672 9.44583 49.2054C7.46421 47.2459 6.06695 44.6971 5.53894 41.8424C5.48006 41.5315 5.43321 41.2169 5.39712 40.8984C5.33634 40.3691 5.30469 39.8304 5.30469 39.284C5.30469 34.6022 7.61046 30.4579 11.1476 27.928H11.1464Z" fill="#F9FAFB"/>
<path d="M24.9942 28.6331C24.9942 28.6331 24.9898 28.6368 24.9873 28.6368" stroke="#F9FAFB" stroke-width="0.0316553" stroke-miterlimit="10"/>
<path d="M9.38067 7.62183L17.4331 15.6528L20.2308 18.4435C22.5588 20.484 24.2036 23.2861 24.7778 26.4605C24.8987 27.1323 24.9728 27.8211 24.9924 28.5232C24.9924 28.5605 24.9912 28.5985 24.9886 28.6359V28.6371C24.8196 32.9904 22.6607 36.834 19.3945 39.2816L17.2071 41.5076L12.2012 46.6015C13.1793 45.3898 13.9587 44.0115 14.4892 42.5161C14.6019 42.2002 14.7026 41.8798 14.7918 41.5531C15.116 40.373 15.2895 39.1302 15.2895 37.8469C15.2895 33.966 13.7048 30.4542 11.1464 27.9255C11.1888 27.8951 11.1027 27.954 11.1464 27.9255C7.68648 25.5362 5.54785 21.4558 5.54785 16.9348C5.54785 16.6449 5.55735 16.3562 5.57697 16.0706C5.59597 15.7617 5.62636 15.4565 5.66751 15.1539C6.0594 12.234 7.40412 9.61484 9.37941 7.62183H9.38067Z" fill="#F9FAFB"/>
<path d="M9.37695 7.62158L9.37789 7.62252" stroke="#F9FAFB" stroke-width="0.0316553" stroke-miterlimit="10"/>
<path d="M33.0955 36.319C33.1315 36.3164 33.1681 36.3152 33.2041 36.3152" stroke="#F9FAFB" stroke-width="0.0316553" stroke-miterlimit="10"/>
<path d="M33.0955 36.319C33.1315 36.3164 33.1681 36.3152 33.2041 36.3152" stroke="#F9FAFB" stroke-width="0.0316553" stroke-miterlimit="10"/>
<path d="M32.502 50.1643C35.0306 47.6059 38.5418 46.0212 42.4234 46.0212C43.7067 46.0212 44.9494 46.1947 46.1296 46.5189C46.4562 46.6081 46.7766 46.7088 47.0925 46.8215C48.5879 47.352 49.9662 48.1314 51.1779 49.1095C52.1649 49.9041 53.0412 50.8316 53.7794 51.8648C51.8199 53.8464 49.271 55.2437 46.4164 55.7717C46.1055 55.8306 45.7908 55.8774 45.4724 55.9135C44.9431 55.9743 44.4043 56.006 43.858 56.006C39.1762 56.006 35.0318 53.7002 32.502 50.163V50.1643Z" fill="#F9FAFB"/>
<path d="M33.2073 36.3152C33.2073 36.3152 33.2111 36.3196 33.2111 36.3221" stroke="#F9FAFB" stroke-width="0.0316553" stroke-miterlimit="10"/>
<path d="M12.1953 51.9291L20.2263 43.8767L23.017 41.079C25.0575 38.751 27.8596 37.1062 31.034 36.532C31.7057 36.4111 32.3946 36.337 33.0967 36.3174C33.134 36.3174 33.172 36.3186 33.2094 36.3212H33.2106C37.5639 36.4902 41.4074 38.6491 43.855 41.9153L46.081 44.1027L51.175 49.1087C49.9632 48.1305 48.585 47.3512 47.0896 46.8206C46.7737 46.7079 46.4533 46.6073 46.1266 46.518C44.9465 46.1938 43.7037 46.0204 42.4204 46.0204C38.5395 46.0204 35.0276 47.605 32.499 50.1634C32.5275 50.2071 32.4686 50.121 32.499 50.1634C30.1097 53.6233 26.0293 55.762 21.5083 55.762C21.2183 55.762 20.9296 55.7525 20.6441 55.7328C20.3352 55.7138 20.03 55.6835 19.7274 55.6423C16.8075 55.2504 14.1883 53.9057 12.1953 51.9304V51.9291Z" fill="#F9FAFB"/>
<path d="M12.1953 51.9309L12.1963 51.9299" stroke="#F9FAFB" stroke-width="0.0316553" stroke-miterlimit="10"/>
</g>
<defs>
<clipPath id="clip0_486_41922">
<rect width="63.3106" height="55.2296" fill="white" transform="translate(0.94458 0.777832)"/>
</clipPath>
</defs>
</svg>
