<svg width="65" height="56" viewBox="0 0 65 56" fill="none" xmlns="http://www.w3.org/2000/svg">
<g clip-path="url(#clip0_486_44802)">
<path d="M32.7417 20.3005C32.7057 20.3031 32.6691 20.3043 32.6331 20.3043" stroke="#F9FAFB" stroke-width="0.0316553" stroke-miterlimit="10"/>
<path d="M32.7417 20.3005C32.7057 20.3031 32.6691 20.3043 32.6331 20.3043" stroke="#F9FAFB" stroke-width="0.0316553" stroke-miterlimit="10"/>
<path d="M33.338 6.45593C30.8093 9.01431 27.2981 10.599 23.4166 10.599C22.1333 10.599 20.8905 10.4255 19.7104 10.1013C19.3837 10.0121 19.0633 9.91142 18.7474 9.79873C17.252 9.26818 15.8737 8.48883 14.662 7.51068C13.675 6.71613 12.7987 5.78863 12.0605 4.7554C14.02 2.77378 16.5689 1.37652 19.4236 0.848507C19.7344 0.789628 20.0491 0.742778 20.3675 0.706691C20.8968 0.645913 21.4356 0.614258 21.9819 0.614258C26.6638 0.614258 30.8081 2.92003 33.338 6.45719V6.45593Z" fill="#F9FAFB"/>
<path d="M32.6332 20.3058C32.6332 20.3058 32.6294 20.3014 32.6294 20.2988" stroke="#F9FAFB" stroke-width="0.0316553" stroke-miterlimit="10"/>
<path d="M53.6364 4.68849L45.6055 12.741L42.8148 15.5387C40.7743 17.8666 37.9721 19.5114 34.7977 20.0856C34.126 20.2066 33.4372 20.2806 32.7351 20.3003C32.6977 20.3003 32.6597 20.299 32.6224 20.2965H32.6211C28.2679 20.1274 24.4243 17.9685 21.9767 14.7023L19.7507 12.5149L14.6567 7.50898C15.8685 8.48713 17.2468 9.26648 18.7422 9.79702C19.0581 9.90972 19.3784 10.0104 19.7051 10.0996C20.8852 10.4238 22.128 10.5973 23.4113 10.5973C27.2923 10.5973 30.8041 9.0126 33.3327 6.45422C33.3631 6.49664 33.3042 6.41054 33.3327 6.45422C35.7214 2.99557 39.8024 0.856934 44.3234 0.856934C44.6134 0.856934 44.9021 0.86643 45.1876 0.886056C45.4966 0.90505 45.8017 0.935439 46.1044 0.976591C49.0243 1.36848 51.6434 2.7132 53.6364 4.68849Z" fill="#F9FAFB"/>
<path d="M53.6418 4.68604L53.6409 4.68698" stroke="#F9FAFB" stroke-width="0.0316553" stroke-miterlimit="10"/>
<path d="M40.6774 28.0242C40.6748 27.9882 40.6736 27.9515 40.6736 27.9155" stroke="#F9FAFB" stroke-width="0.0316553" stroke-miterlimit="10"/>
<path d="M40.6774 28.0242C40.6748 27.9882 40.6736 27.9515 40.6736 27.9155" stroke="#F9FAFB" stroke-width="0.0316553" stroke-miterlimit="10"/>
<path d="M54.5215 28.6202C51.9631 26.0916 50.3784 22.5804 50.3784 18.6988C50.3784 17.4155 50.5519 16.1727 50.876 14.9926C50.9653 14.6659 51.066 14.3456 51.1787 14.0296C51.7092 12.5342 52.4886 11.156 53.4667 9.9442C54.2613 8.95719 55.1888 8.08097 56.222 7.34277C58.2036 9.30224 59.6009 11.8511 60.1289 14.7058C60.1878 15.0166 60.2346 15.3313 60.2707 15.6498C60.3315 16.179 60.3631 16.7178 60.3631 17.2642C60.3631 21.946 58.0574 26.0903 54.5202 28.6202H54.5215Z" fill="#F9FAFB"/>
<path d="M40.6738 27.9132C40.6738 27.9132 40.6782 27.9094 40.6808 27.9094" stroke="#F9FAFB" stroke-width="0.0316553" stroke-miterlimit="10"/>
<path d="M56.2895 48.925L48.237 40.8941L45.4393 38.1033C43.1114 36.0628 41.4666 33.2607 40.8924 30.0863C40.7714 29.4146 40.6974 28.7258 40.6777 28.0237C40.6777 27.9863 40.679 27.9483 40.6815 27.911V27.9097C40.8506 23.5565 43.0095 19.7129 46.2757 17.2653L48.463 15.0393L53.469 9.94531C52.4909 11.1571 51.7115 12.5353 51.181 14.0307C51.0683 14.3467 50.9676 14.667 50.8783 14.9937C50.5542 16.1738 50.3807 17.4166 50.3807 18.6999C50.3807 22.5808 51.9654 26.0927 54.5238 28.6213C54.5674 28.5928 54.4813 28.6517 54.5238 28.6213C57.9837 31.0106 60.1223 35.091 60.1223 39.612C60.1223 39.902 60.1128 40.1907 60.0932 40.4762C60.0742 40.7852 60.0438 41.0903 60.0027 41.3929C59.6108 44.3128 58.266 46.932 56.2908 48.925H56.2895Z" fill="#F9FAFB"/>
<path d="M56.289 48.926L56.2881 48.925" stroke="#F9FAFB" stroke-width="0.0316553" stroke-miterlimit="10"/>
<path d="M24.9912 28.3591C24.9937 28.3951 24.995 28.4318 24.995 28.4678" stroke="#F9FAFB" stroke-width="0.0316553" stroke-miterlimit="10"/>
<path d="M24.9912 28.3591C24.9937 28.3951 24.995 28.4318 24.995 28.4678" stroke="#F9FAFB" stroke-width="0.0316553" stroke-miterlimit="10"/>
<path d="M11.1464 27.7644C13.7047 30.293 15.2894 33.8042 15.2894 37.6858C15.2894 38.9691 15.1159 40.2119 14.7918 41.392C14.7025 41.7187 14.6018 42.039 14.4892 42.355C13.9586 43.8504 13.1793 45.2286 12.2011 46.4404C11.4066 47.4274 10.4791 48.3036 9.44583 49.0418C7.46421 47.0824 6.06695 44.5335 5.53894 41.6788C5.48006 41.3679 5.43321 41.0533 5.39712 40.7348C5.33634 40.2056 5.30469 39.6668 5.30469 39.1204C5.30469 34.4386 7.61046 30.2943 11.1476 27.7644H11.1464Z" fill="#F9FAFB"/>
<path d="M24.9942 28.4692C24.9942 28.4692 24.9898 28.473 24.9873 28.473" stroke="#F9FAFB" stroke-width="0.0316553" stroke-miterlimit="10"/>
<path d="M9.38067 7.45776L17.4331 15.4887L20.2308 18.2794C22.5588 20.3199 24.2036 23.1221 24.7778 26.2965C24.8987 26.9682 24.9728 27.657 24.9924 28.3591C24.9924 28.3965 24.9912 28.4345 24.9886 28.4718V28.4731C24.8196 32.8263 22.6607 36.6699 19.3945 39.1175L17.2071 41.3435L12.2012 46.4375C13.1793 45.2257 13.9587 43.8474 14.4892 42.352C14.6019 42.0361 14.7026 41.7158 14.7918 41.3891C15.116 40.209 15.2895 38.9662 15.2895 37.6829C15.2895 33.8019 13.7048 30.2901 11.1464 27.7615C11.1888 27.7311 11.1027 27.79 11.1464 27.7615C7.68648 25.3721 5.54785 21.2918 5.54785 16.7708C5.54785 16.4808 5.55735 16.1921 5.57697 15.9066C5.59597 15.5976 5.62636 15.2924 5.66751 14.9898C6.0594 12.0699 7.40412 9.45078 9.37941 7.45776H9.38067Z" fill="#F9FAFB"/>
<path d="M9.37695 7.45776L9.37789 7.45871" stroke="#F9FAFB" stroke-width="0.0316553" stroke-miterlimit="10"/>
<path d="M33.095 36.1554C33.131 36.1529 33.1676 36.1516 33.2036 36.1516" stroke="#F9FAFB" stroke-width="0.0316553" stroke-miterlimit="10"/>
<path d="M33.095 36.1554C33.131 36.1529 33.1676 36.1516 33.2036 36.1516" stroke="#F9FAFB" stroke-width="0.0316553" stroke-miterlimit="10"/>
<path d="M32.5017 50.001C35.0303 47.4426 38.5415 45.8579 42.4231 45.8579C43.7064 45.8579 44.9492 46.0314 46.1293 46.3555C46.456 46.4448 46.7763 46.5455 47.0923 46.6582C48.5877 47.1887 49.9659 47.9681 51.1777 48.9462C52.1647 49.7407 53.0409 50.6682 53.7791 51.7015C51.8197 53.6831 49.2708 55.0804 46.4161 55.6084C46.1053 55.6673 45.7906 55.7141 45.4721 55.7502C44.9429 55.811 44.4041 55.8426 43.8577 55.8426C39.1759 55.8426 35.0316 53.5369 32.5017 49.9997V50.001Z" fill="#F9FAFB"/>
<path d="M33.2068 36.1516C33.2068 36.1516 33.2106 36.156 33.2106 36.1586" stroke="#F9FAFB" stroke-width="0.0316553" stroke-miterlimit="10"/>
<path d="M12.1951 51.7651L20.226 43.7126L23.0167 40.9149C25.0572 38.587 27.8594 36.9422 31.0338 36.3679C31.7055 36.247 32.3943 36.1729 33.0964 36.1533C33.1338 36.1533 33.1718 36.1546 33.2091 36.1571H33.2104C37.5636 36.3262 41.4072 38.485 43.8548 41.7512L46.0808 43.9386L51.1748 48.9446C49.963 47.9664 48.5847 47.1871 47.0893 46.6565C46.7734 46.5439 46.4531 46.4432 46.1264 46.3539C44.9463 46.0298 43.7035 45.8563 42.4202 45.8563C38.5392 45.8563 35.0274 47.441 32.4988 49.9993C32.5273 50.043 32.4684 49.9569 32.4988 49.9993C30.1094 53.4593 26.0291 55.5979 21.5081 55.5979C21.2181 55.5979 20.9294 55.5884 20.6439 55.5688C20.3349 55.5498 20.0298 55.5194 19.7271 55.4782C16.8072 55.0864 14.1881 53.7416 12.1951 51.7663V51.7651Z" fill="#F9FAFB"/>
<path d="M12.1951 51.7663L12.196 51.7654" stroke="#F9FAFB" stroke-width="0.0316553" stroke-miterlimit="10"/>
</g>
<defs>
<clipPath id="clip0_486_44802">
<rect width="63.3106" height="55.2296" fill="white" transform="translate(0.94458 0.614746)"/>
</clipPath>
</defs>
</svg>
