<svg width="65" height="56" viewBox="0 0 65 56" fill="none" xmlns="http://www.w3.org/2000/svg">
<g clip-path="url(#clip0_486_38412)">
<path d="M32.5086 20.3987C32.4726 20.4012 32.4359 20.4025 32.3999 20.4025" stroke="#F9FAFB" stroke-width="0.0316553" stroke-miterlimit="10"/>
<path d="M32.5086 20.3987C32.4726 20.4012 32.4359 20.4025 32.3999 20.4025" stroke="#F9FAFB" stroke-width="0.0316553" stroke-miterlimit="10"/>
<path d="M33.1046 6.55383C30.5759 9.11221 27.0647 10.6969 23.1832 10.6969C21.8999 10.6969 20.6571 10.5234 19.477 10.1993C19.1503 10.11 18.8299 10.0093 18.514 9.89663C17.0186 9.36608 15.6403 8.58673 14.4286 7.60858C13.4416 6.81403 12.5653 5.88653 11.8271 4.8533C13.7866 2.87168 16.3355 1.47442 19.1902 0.946407C19.501 0.887529 19.8157 0.840679 20.1341 0.804592C20.6634 0.743814 21.2022 0.712158 21.7485 0.712158C26.4304 0.712158 30.5747 3.01793 33.1046 6.55509V6.55383Z" fill="#F9FAFB"/>
<path d="M32.3993 20.4039C32.3993 20.4039 32.3955 20.3995 32.3955 20.397" stroke="#F9FAFB" stroke-width="0.0316553" stroke-miterlimit="10"/>
<path d="M53.4035 4.78688L45.3726 12.8394L42.5818 15.637C40.5413 17.965 37.7392 19.6098 34.5648 20.184C33.8931 20.3049 33.2043 20.379 32.5022 20.3986C32.4648 20.3986 32.4268 20.3974 32.3895 20.3948H32.3882C28.035 20.2258 24.1914 18.0669 21.7438 14.8007L19.5178 12.6133L14.4238 7.60737C15.6356 8.58551 17.0139 9.36487 18.5093 9.89541C18.8252 10.0081 19.1455 10.1088 19.4722 10.198C20.6523 10.5222 21.8951 10.6957 23.1784 10.6957C27.0594 10.6957 30.5712 9.11099 33.0998 6.55261C33.1302 6.59503 33.0713 6.50893 33.0998 6.55261C35.4885 3.09395 39.5695 0.955322 44.0905 0.955322C44.3805 0.955322 44.6692 0.964819 44.9547 0.984445C45.2637 1.00344 45.5688 1.03383 45.8715 1.07498C48.7913 1.46687 51.4105 2.81159 53.4035 4.78688Z" fill="#F9FAFB"/>
<path d="M53.4082 4.78442L53.4072 4.78536" stroke="#F9FAFB" stroke-width="0.0316553" stroke-miterlimit="10"/>
<path d="M40.4437 28.1211C40.4412 28.0851 40.4399 28.0485 40.4399 28.0125" stroke="#F9FAFB" stroke-width="0.0316553" stroke-miterlimit="10"/>
<path d="M40.4437 28.1211C40.4412 28.0851 40.4399 28.0485 40.4399 28.0125" stroke="#F9FAFB" stroke-width="0.0316553" stroke-miterlimit="10"/>
<path d="M54.2881 28.7171C51.7297 26.1885 50.145 22.6773 50.145 18.7957C50.145 17.5124 50.3185 16.2696 50.6426 15.0895C50.7319 14.7628 50.8326 14.4425 50.9453 14.1266C51.4758 12.6312 52.2552 11.2529 53.2333 10.0411C54.0279 9.05412 54.9554 8.1779 55.9886 7.4397C57.9702 9.39916 59.3675 11.948 59.8955 14.8027C59.9544 15.1136 60.0012 15.4282 60.0373 15.7467C60.0981 16.276 60.1297 16.8147 60.1297 17.3611C60.1297 22.0429 57.824 26.1872 54.2868 28.7171H54.2881Z" fill="#F9FAFB"/>
<path d="M40.4399 28.0104C40.4399 28.0104 40.4444 28.0066 40.4469 28.0066" stroke="#F9FAFB" stroke-width="0.0316553" stroke-miterlimit="10"/>
<path d="M56.0556 49.0219L48.0031 40.991L45.2054 38.2003C42.8775 36.1598 41.2327 33.3576 40.6585 30.1832C40.5375 29.5115 40.4635 28.8227 40.4438 28.1206C40.4438 28.0832 40.4451 28.0452 40.4476 28.0079V28.0066C40.6167 23.6534 42.7756 19.8098 46.0418 17.3622L48.2291 15.1362L53.2351 10.0422C52.257 11.254 51.4776 12.6323 50.9471 14.1277C50.8344 14.4436 50.7337 14.7639 50.6445 15.0906C50.3203 16.2707 50.1468 17.5135 50.1468 18.7968C50.1468 22.6778 51.7315 26.1896 54.2899 28.7182C54.3336 28.6897 54.2475 28.7486 54.2899 28.7182C57.7498 31.1076 59.8884 35.1879 59.8884 39.7089C59.8884 39.9989 59.8789 40.2876 59.8593 40.5731C59.8403 40.8821 59.8099 41.1872 59.7688 41.4899C59.3769 44.4098 58.0322 47.0289 56.0569 49.0219H56.0556Z" fill="#F9FAFB"/>
<path d="M56.0551 49.0227L56.0542 49.0217" stroke="#F9FAFB" stroke-width="0.0316553" stroke-miterlimit="10"/>
<path d="M24.7578 28.4565C24.7603 28.4926 24.7616 28.5292 24.7616 28.5652" stroke="#F9FAFB" stroke-width="0.0316553" stroke-miterlimit="10"/>
<path d="M24.7578 28.4565C24.7603 28.4926 24.7616 28.5292 24.7616 28.5652" stroke="#F9FAFB" stroke-width="0.0316553" stroke-miterlimit="10"/>
<path d="M10.9134 27.8613C13.4718 30.39 15.0565 33.9012 15.0565 37.7827C15.0565 39.066 14.883 40.3088 14.5589 41.4889C14.4696 41.8156 14.3689 42.136 14.2562 42.4519C13.7257 43.9473 12.9463 45.3256 11.9682 46.5373C11.1737 47.5243 10.2462 48.4005 9.21292 49.1387C7.2313 47.1793 5.83404 44.6304 5.30603 41.7757C5.24715 41.4649 5.2003 41.1502 5.16421 40.8318C5.10343 40.3025 5.07178 39.7637 5.07178 39.2173C5.07178 34.5355 7.37755 30.3912 10.9147 27.8613H10.9134Z" fill="#F9FAFB"/>
<path d="M24.7613 28.5664C24.7613 28.5664 24.7569 28.5702 24.7544 28.5702" stroke="#F9FAFB" stroke-width="0.0316553" stroke-miterlimit="10"/>
<path d="M9.14679 7.55518L17.1993 15.5861L19.997 18.3769C22.3249 20.4174 23.9697 23.2195 24.5439 26.3939C24.6648 27.0656 24.7389 27.7544 24.7585 28.4565C24.7585 28.4939 24.7573 28.5319 24.7547 28.5692V28.5705C24.5857 32.9237 22.4268 36.7673 19.1606 39.2149L16.9732 41.4409L11.9673 46.5349C12.9454 45.3231 13.7248 43.9448 14.2553 42.4494C14.368 42.1335 14.4687 41.8132 14.5579 41.4865C14.8821 40.3064 15.0556 39.0636 15.0556 37.7803C15.0556 33.8993 13.4709 30.3875 10.9125 27.8589C10.9549 27.8285 10.8688 27.8874 10.9125 27.8589C7.4526 25.4695 5.31396 21.3892 5.31396 16.8682C5.31396 16.5782 5.32346 16.2895 5.34309 16.004C5.36208 15.695 5.39247 15.3899 5.43362 15.0872C5.82551 12.1674 7.17023 9.54819 9.14552 7.55518H9.14679Z" fill="#F9FAFB"/>
<path d="M9.14355 7.55518L9.1445 7.55612" stroke="#F9FAFB" stroke-width="0.0316553" stroke-miterlimit="10"/>
<path d="M32.8618 36.2526C32.8978 36.25 32.9345 36.2488 32.9705 36.2488" stroke="#F9FAFB" stroke-width="0.0316553" stroke-miterlimit="10"/>
<path d="M32.8618 36.2526C32.8978 36.25 32.9345 36.2488 32.9705 36.2488" stroke="#F9FAFB" stroke-width="0.0316553" stroke-miterlimit="10"/>
<path d="M32.2686 50.0981C34.7972 47.5397 38.3084 45.9551 42.19 45.9551C43.4733 45.9551 44.716 46.1285 45.8962 46.4527C46.2228 46.542 46.5432 46.6426 46.8591 46.7553C48.3545 47.2859 49.7328 48.0652 50.9445 49.0434C51.9316 49.8379 52.8078 50.7654 53.546 51.7986C51.5865 53.7803 49.0376 55.1775 46.183 55.7055C45.8721 55.7644 45.5574 55.8113 45.239 55.8474C44.7097 55.9081 44.1709 55.9398 43.6246 55.9398C38.9428 55.9398 34.7984 53.634 32.2686 50.0969V50.0981Z" fill="#F9FAFB"/>
<path d="M32.9736 36.2488C32.9736 36.2488 32.9774 36.2532 32.9774 36.2557" stroke="#F9FAFB" stroke-width="0.0316553" stroke-miterlimit="10"/>
<path d="M11.9619 51.863L19.9929 43.8105L22.7836 41.0128C24.8241 38.6849 27.6262 37.0401 30.8006 36.4658C31.4723 36.3449 32.1612 36.2708 32.8633 36.2512C32.9006 36.2512 32.9386 36.2525 32.976 36.255H32.9772C37.3305 36.4241 41.1741 38.5829 43.6216 41.8491L45.8476 44.0365L50.9416 49.0425C49.7298 48.0643 48.3516 47.285 46.8562 46.7544C46.5403 46.6418 46.2199 46.5411 45.8932 46.4518C44.7131 46.1277 43.4703 45.9542 42.187 45.9542C38.3061 45.9542 34.7942 47.5389 32.2656 50.0972C32.2941 50.1409 32.2352 50.0548 32.2656 50.0972C29.8763 53.5572 25.7959 55.6958 21.2749 55.6958C20.9849 55.6958 20.6962 55.6863 20.4107 55.6667C20.1018 55.6477 19.7966 55.6173 19.494 55.5761C16.5741 55.1843 13.9549 53.8395 11.9619 51.8642V51.863Z" fill="#F9FAFB"/>
<path d="M11.9619 51.864L11.9629 51.863" stroke="#F9FAFB" stroke-width="0.0316553" stroke-miterlimit="10"/>
</g>
<defs>
<clipPath id="clip0_486_38412">
<rect width="63.3106" height="55.2296" fill="white" transform="translate(0.710938 0.711182)"/>
</clipPath>
</defs>
</svg>
