<svg width="80" height="21" viewBox="0 0 80 21" fill="none" xmlns="http://www.w3.org/2000/svg">
<path d="M11.9105 0.00115967C14.4642 0.00115967 16.5122 0.747036 18.0545 2.23879C19.5968 3.73053 20.368 5.9429 20.368 8.87583V20.4812H15.6272V9.48267C15.6272 7.71276 15.2101 6.38535 14.3757 5.50042C13.5413 4.5902 12.353 4.13509 10.8107 4.13509C9.06606 4.13509 7.68808 4.66605 6.67672 5.72797C5.66537 6.76461 5.15969 8.26901 5.15969 10.2412V20.4812H0.418945V0.228715H4.93213V2.8456C5.71593 1.91009 6.70201 1.20215 7.89035 0.721752C9.0787 0.241357 10.4187 0.00115967 11.9105 0.00115967ZM33.3939 20.7467C31.3459 20.7467 29.5 20.3042 27.8567 19.4193C26.213 18.5343 24.9235 17.3081 23.988 15.7404C23.0779 14.1476 22.6228 12.3524 22.6228 10.355C22.6228 8.3575 23.0779 6.57498 23.988 5.00738C24.9235 3.43979 26.213 2.2135 27.8567 1.32857C29.5 0.443629 31.3459 0.00115967 33.3939 0.00115967C35.4669 0.00115967 37.3253 0.443629 38.969 1.32857C40.6123 2.2135 41.8893 3.43979 42.7995 5.00738C43.7348 6.57498 44.2028 8.3575 44.2028 10.355C44.2028 12.3524 43.7348 14.1476 42.7995 15.7404C41.8893 17.3081 40.6123 18.5343 38.969 19.4193C37.3253 20.3042 35.4669 20.7467 33.3939 20.7467ZM33.3939 16.6886C35.1385 16.6886 36.5796 16.1071 37.7174 14.944C38.8552 13.7809 39.4241 12.2513 39.4241 10.355C39.4241 8.45864 38.8552 6.92897 37.7174 5.7659C36.5796 4.60283 35.1385 4.02131 33.3939 4.02131C31.6493 4.02131 30.2081 4.60283 29.0703 5.7659C27.9576 6.92897 27.4016 8.45864 27.4016 10.355C27.4016 12.2513 27.9576 13.7809 29.0703 14.944C30.2081 16.1071 31.6493 16.6886 33.3939 16.6886ZM50.9737 3.18694C52.339 1.06309 54.7409 0.00115967 58.1796 0.00115967V4.51434C57.775 4.43849 57.4083 4.40057 57.0798 4.40057C55.234 4.40057 53.7928 4.94416 52.7562 6.03138C51.7194 7.09331 51.2013 8.63564 51.2013 10.6584V20.4812H46.4603V0.228715H50.9737V3.18694ZM79.5382 0.228715V20.4812H75.0246V17.8643C74.2404 18.8251 73.2675 19.5457 72.1041 20.0261C70.9663 20.5065 69.7022 20.7467 68.3118 20.7467C66.3396 20.7467 64.5697 20.3168 63.0022 19.4572C61.4597 18.5975 60.2461 17.3839 59.3613 15.8163C58.5015 14.2487 58.0718 12.4283 58.0718 10.355C58.0718 8.28164 58.5015 6.47386 59.3613 4.93153C60.2461 3.36394 61.4597 2.15031 63.0022 1.29064C64.5697 0.430987 66.3396 0.00115967 68.3118 0.00115967C69.6264 0.00115967 70.827 0.228715 71.9145 0.683826C73.0275 1.13894 73.9875 1.80897 74.7974 2.6939V0.228715H79.5382ZM68.8428 16.6886C70.587 16.6886 72.029 16.1071 73.1668 14.944C74.3046 13.7809 74.8735 12.2513 74.8735 10.355C74.8735 8.45864 74.3046 6.92897 73.1668 5.7659C72.029 4.60283 70.587 4.02131 68.8428 4.02131C67.0982 4.02131 65.657 4.60283 64.5192 5.7659C63.4065 6.92897 62.8505 8.45864 62.8505 10.355C62.8505 12.2513 63.4065 13.7809 64.5192 14.944C65.657 16.1071 67.0982 16.6886 68.8428 16.6886Z" fill="white"/>
</svg>
