<svg width="80" height="21" viewBox="0 0 80 21" fill="none" xmlns="http://www.w3.org/2000/svg">
<path d="M11.9105 0.00109863C14.4642 0.00109863 16.5122 0.746975 18.0545 2.23873C19.5968 3.73047 20.368 5.94284 20.368 8.87577V20.4811H15.6272V9.48261C15.6272 7.7127 15.2101 6.38529 14.3757 5.50036C13.5413 4.59014 12.353 4.13502 10.8107 4.13502C9.06606 4.13502 7.68808 4.66599 6.67672 5.72791C5.66537 6.76455 5.15969 8.26895 5.15969 10.2411V20.4811H0.418945V0.228654H4.93213V2.84554C5.71593 1.91003 6.70201 1.20209 7.89035 0.721691C9.0787 0.241296 10.4187 0.00109863 11.9105 0.00109863ZM33.3939 20.7466C31.3459 20.7466 29.5 20.3041 27.8567 19.4192C26.213 18.5343 24.9235 17.308 23.988 15.7404C23.0779 14.1475 22.6228 12.3523 22.6228 10.3549C22.6228 8.35744 23.0779 6.57492 23.988 5.00732C24.9235 3.43973 26.213 2.21343 27.8567 1.32851C29.5 0.443568 31.3459 0.00109863 33.3939 0.00109863C35.4669 0.00109863 37.3253 0.443568 38.969 1.32851C40.6123 2.21343 41.8893 3.43973 42.7995 5.00732C43.7348 6.57492 44.2028 8.35744 44.2028 10.3549C44.2028 12.3523 43.7348 14.1475 42.7995 15.7404C41.8893 17.308 40.6123 18.5343 38.969 19.4192C37.3253 20.3041 35.4669 20.7466 33.3939 20.7466ZM33.3939 16.6885C35.1385 16.6885 36.5796 16.107 37.7174 14.9439C38.8552 13.7809 39.4241 12.2512 39.4241 10.3549C39.4241 8.45858 38.8552 6.92891 37.7174 5.76584C36.5796 4.60277 35.1385 4.02125 33.3939 4.02125C31.6493 4.02125 30.2081 4.60277 29.0703 5.76584C27.9576 6.92891 27.4016 8.45858 27.4016 10.3549C27.4016 12.2512 27.9576 13.7809 29.0703 14.9439C30.2081 16.107 31.6493 16.6885 33.3939 16.6885ZM50.9737 3.18688C52.339 1.06302 54.7409 0.00109863 58.1796 0.00109863V4.51428C57.775 4.43843 57.4083 4.40051 57.0798 4.40051C55.234 4.40051 53.7928 4.9441 52.7562 6.03132C51.7194 7.09325 51.2013 8.63558 51.2013 10.6583V20.4811H46.4603V0.228654H50.9737V3.18688ZM79.5382 0.228654V20.4811H75.0246V17.8642C74.2404 18.825 73.2675 19.5456 72.1041 20.026C70.9663 20.5064 69.7022 20.7466 68.3118 20.7466C66.3396 20.7466 64.5697 20.3168 63.0022 19.4571C61.4597 18.5975 60.2461 17.3838 59.3613 15.8162C58.5015 14.2486 58.0718 12.4282 58.0718 10.3549C58.0718 8.28158 58.5015 6.4738 59.3613 4.93147C60.2461 3.36387 61.4597 2.15024 63.0022 1.29058C64.5697 0.430926 66.3396 0.00109863 68.3118 0.00109863C69.6264 0.00109863 70.827 0.228654 71.9145 0.683765C73.0275 1.13888 73.9875 1.80891 74.7974 2.69384V0.228654H79.5382ZM68.8428 16.6885C70.587 16.6885 72.029 16.107 73.1668 14.9439C74.3046 13.7809 74.8735 12.2512 74.8735 10.3549C74.8735 8.45858 74.3046 6.92891 73.1668 5.76584C72.029 4.60277 70.587 4.02125 68.8428 4.02125C67.0982 4.02125 65.657 4.60277 64.5192 5.76584C63.4065 6.92891 62.8505 8.45858 62.8505 10.3549C62.8505 12.2512 63.4065 13.7809 64.5192 14.9439C65.657 16.107 67.0982 16.6885 68.8428 16.6885Z" fill="#101828"/>
</svg>
