<svg width="80" height="21" viewBox="0 0 80 21" fill="none" xmlns="http://www.w3.org/2000/svg">
<path d="M12.1412 0.0012207C14.6949 0.0012207 16.7429 0.747097 18.2852 2.23885C19.8275 3.73059 20.5987 5.94296 20.5987 8.87589V20.4813H15.858V9.48273C15.858 7.71282 15.4408 6.38541 14.6064 5.50048C13.772 4.59026 12.5837 4.13515 11.0414 4.13515C9.29677 4.13515 7.91879 4.66611 6.90744 5.72804C5.89608 6.76467 5.3904 8.26907 5.3904 10.2413V20.4813H0.649658V0.228776H5.16284V2.84566C5.94665 1.91015 6.93272 1.20221 8.12106 0.721813C9.30941 0.241418 10.6495 0.0012207 12.1412 0.0012207ZM33.6246 20.7467C31.5766 20.7467 29.7307 20.3043 28.0874 19.4193C26.4437 18.5344 25.1542 17.3081 24.2187 15.7405C23.3086 14.1476 22.8535 12.3525 22.8535 10.355C22.8535 8.35756 23.3086 6.57504 24.2187 5.00744C25.1542 3.43985 26.4437 2.21356 28.0874 1.32863C29.7307 0.44369 31.5766 0.0012207 33.6246 0.0012207C35.6977 0.0012207 37.556 0.44369 39.1997 1.32863C40.843 2.21356 42.12 3.43985 43.0302 5.00744C43.9655 6.57504 44.4335 8.35756 44.4335 10.355C44.4335 12.3525 43.9655 14.1476 43.0302 15.7405C42.12 17.3081 40.843 18.5344 39.1997 19.4193C37.556 20.3043 35.6977 20.7467 33.6246 20.7467ZM33.6246 16.6887C35.3692 16.6887 36.8103 16.1071 37.9481 14.9441C39.0859 13.781 39.6548 12.2513 39.6548 10.355C39.6548 8.4587 39.0859 6.92903 37.9481 5.76596C36.8103 4.60289 35.3692 4.02137 33.6246 4.02137C31.88 4.02137 30.4388 4.60289 29.301 5.76596C28.1883 6.92903 27.6323 8.4587 27.6323 10.355C27.6323 12.2513 28.1883 13.781 29.301 14.9441C30.4388 16.1071 31.88 16.6887 33.6246 16.6887ZM51.2044 3.187C52.5698 1.06315 54.9716 0.0012207 58.4103 0.0012207V4.51441C58.0057 4.43855 57.639 4.40063 57.3105 4.40063C55.4647 4.40063 54.0235 4.94422 52.9869 6.03144C51.9501 7.09337 51.432 8.6357 51.432 10.6584V20.4813H46.691V0.228776H51.2044V3.187ZM79.7689 0.228776V20.4813H75.2553V17.8644C74.4711 18.8252 73.4983 19.5457 72.3348 20.0261C71.197 20.5065 69.9329 20.7467 68.5425 20.7467C66.5704 20.7467 64.8004 20.3169 63.2329 19.4573C61.6904 18.5976 60.4768 17.384 59.592 15.8164C58.7322 14.2488 58.3025 12.4283 58.3025 10.355C58.3025 8.2817 58.7322 6.47392 59.592 4.93159C60.4768 3.364 61.6904 2.15037 63.2329 1.2907C64.8004 0.431048 66.5704 0.0012207 68.5425 0.0012207C69.8571 0.0012207 71.0578 0.228776 72.1452 0.683887C73.2582 1.139 74.2182 1.80903 75.0281 2.69396V0.228776H79.7689ZM69.0735 16.6887C70.8178 16.6887 72.2597 16.1071 73.3975 14.9441C74.5353 13.781 75.1042 12.2513 75.1042 10.355C75.1042 8.4587 74.5353 6.92903 73.3975 5.76596C72.2597 4.60289 70.8178 4.02137 69.0735 4.02137C67.3289 4.02137 65.8877 4.60289 64.7499 5.76596C63.6372 6.92903 63.0812 8.4587 63.0812 10.355C63.0812 12.2513 63.6372 13.781 64.7499 14.9441C65.8877 16.1071 67.3289 16.6887 69.0735 16.6887Z" fill="#101828"/>
</svg>
