<svg width="19" height="13" viewBox="0 0 19 13" fill="none" xmlns="http://www.w3.org/2000/svg">
<path fill-rule="evenodd" clip-rule="evenodd" d="M9.54274 3.10398C12.0298 3.10408 14.4219 4.02616 16.2244 5.67964C16.3601 5.8073 16.5771 5.80569 16.7107 5.67603L18.0082 4.41257C18.0759 4.34681 18.1137 4.25773 18.1131 4.16505C18.1125 4.07237 18.0737 3.98372 18.0052 3.91873C13.2742 -0.455983 5.8105 -0.455983 1.07949 3.91873C1.01096 3.98368 0.972075 4.07229 0.971443 4.16497C0.970811 4.25766 1.00848 4.34676 1.07612 4.41257L2.37399 5.67603C2.50759 5.80588 2.72471 5.8075 2.86036 5.67964C4.6631 4.02606 7.05538 3.10397 9.54274 3.10398ZM9.53938 7.32425C10.8967 7.32417 12.2056 7.83591 13.2117 8.76004C13.3478 8.89119 13.5622 8.88835 13.6948 8.75363L14.9821 7.43432C15.0499 7.36512 15.0875 7.27124 15.0865 7.17369C15.0855 7.07614 15.046 6.98306 14.9769 6.91527C11.9131 4.02442 7.16832 4.02442 4.10448 6.91527C4.03528 6.98306 3.99579 7.07619 3.99488 7.17377C3.99397 7.27135 4.03172 7.36522 4.09965 7.43432L5.38656 8.75363C5.51922 8.88835 5.73358 8.89119 5.86966 8.76004C6.87512 7.83652 8.18296 7.32482 9.53938 7.32425ZM12.0638 10.1178C12.0657 10.2232 12.0287 10.3247 11.9614 10.3985L9.78471 12.8533C9.7209 12.9254 9.63391 12.966 9.54314 12.966C9.45237 12.966 9.36538 12.9254 9.30157 12.8533L7.12454 10.3985C7.05729 10.3247 7.02029 10.2231 7.02229 10.1177C7.02428 10.0124 7.06509 9.9126 7.13508 9.84199C8.52517 8.52809 10.5611 8.52809 11.9512 9.84199C12.0211 9.91266 12.0619 10.0125 12.0638 10.1178Z" fill="black"/>
</svg>
