<svg width="18" height="13" viewBox="0 0 18 13" fill="none" xmlns="http://www.w3.org/2000/svg">
<path fill-rule="evenodd" clip-rule="evenodd" d="M8.80763 3.10398C11.2947 3.10408 13.6867 4.02616 15.4893 5.67964C15.625 5.8073 15.8419 5.80569 15.9756 5.67603L17.2731 4.41257C17.3408 4.34681 17.3786 4.25773 17.378 4.16505C17.3774 4.07237 17.3386 3.98372 17.2701 3.91873C12.5391 -0.455984 5.0754 -0.455984 0.344384 3.91873C0.275852 3.98368 0.236968 4.07229 0.236336 4.16497C0.235704 4.25766 0.273376 4.34676 0.341017 4.41257L1.63888 5.67603C1.77248 5.80588 1.9896 5.8075 2.12525 5.67964C3.92799 4.02606 6.32028 3.10397 8.80763 3.10398ZM8.80428 7.32425C10.1616 7.32417 11.4705 7.83591 12.4766 8.76004C12.6127 8.89119 12.827 8.88835 12.9597 8.75363L14.247 7.43432C14.3148 7.36512 14.3524 7.27124 14.3514 7.17369C14.3504 7.07614 14.3109 6.98306 14.2418 6.91527C11.1779 4.02442 6.43321 4.02442 3.36938 6.91527C3.30017 6.98306 3.26068 7.07619 3.25977 7.17377C3.25887 7.27135 3.29661 7.36522 3.36454 7.43432L4.65145 8.75363C4.78411 8.88835 4.99847 8.89119 5.13456 8.76004C6.14001 7.83652 7.44785 7.32482 8.80428 7.32425ZM11.3287 10.1178C11.3306 10.2232 11.2936 10.3247 11.2263 10.3985L9.0496 12.8533C8.98579 12.9254 8.8988 12.966 8.80803 12.966C8.71726 12.966 8.63027 12.9254 8.56646 12.8533L6.38943 10.3985C6.32218 10.3247 6.28518 10.2231 6.28718 10.1177C6.28917 10.0124 6.32998 9.9126 6.39997 9.84199C7.79007 8.52809 9.82599 8.52809 11.2161 9.84199C11.286 9.91266 11.3268 10.0125 11.3287 10.1178Z" fill="white"/>
</svg>
